SplineFontDB: 3.0
FontName: Experiment-Thai
FullName: Noto Serif Thai
FamilyName: Noto Serif Thai
Weight: Regular
Copyright: 
Version: 1
ItalicAngle: 0
UnderlinePosition: -100.098
UnderlineWidth: 49.8047
Ascent: 800
Descent: 200
InvalidEm: 0
sfntRevision: 0x00010000
LayerCount: 2
Layer: 0 1 "Back" 1
Layer: 1 1 "Fore" 0
XUID: [1021 779 -1439063335 4517179]
FSType: 0
OS2Version: 4
OS2_WeightWidthSlopeOnly: 0
OS2_UseTypoMetrics: 0
CreationTime: 1288865558
ModificationTime: 1461935780
PfmFamily: 17
TTFWeight: 400
TTFWidth: 5
LineGap: 0
VLineGap: 0
Panose: 2 2 5 0 6 5 0 2 2 0
OS2TypoAscent: 1116
OS2TypoAOffset: 0
OS2TypoDescent: -256
OS2TypoDOffset: 0
OS2TypoLinegap: 0
OS2WinAscent: 1116
OS2WinAOffset: 0
OS2WinDescent: 256
OS2WinDOffset: 0
HheadAscent: 1116
HheadAOffset: 0
HheadDescent: -256
HheadDOffset: 0
OS2SubXSize: 700
OS2SubYSize: 650
OS2SubXOff: 0
OS2SubYOff: 140
OS2SupXSize: 700
OS2SupYSize: 650
OS2SupXOff: 0
OS2SupYOff: 477
OS2StrikeYSize: 50
OS2StrikeYPos: 366
OS2CapHeight: 2286
OS2XHeight: 1600
OS2FamilyClass: 512
OS2Vendor: 'GOOG'
OS2CodePages: 00000001.00000000
OS2UnicodeRanges: 01000000.00000000.00000000.00000000
Lookup: 6 256 0 "'ccmp' Glyph Composition/Decomposition in Thai lookup 0" { "'ccmp' Glyph Composition/Decomposition in Thai lookup 0 subtable"  } ['ccmp' ('thai' <'dflt' > ) ]
Lookup: 2 0 0 "'ccmp' Glyph Composition/Decomposition in Thai lookup 1" { "'ccmp' Glyph Composition/Decomposition in Thai lookup 1 subtable"  } ['ccmp' ('thai' <'dflt' > ) ]
Lookup: 1 0 0 "'ccmp' Glyph Composition/Decomposition in Thai lookup 2" { "'ccmp' Glyph Composition/Decomposition in Thai lookup 2 subtable"  } ['ccmp' ('thai' <'dflt' > ) ]
Lookup: 6 0 0 "'ccmp' Glyph Composition/Decomposition in Thai lookup 3" { "'ccmp' Glyph Composition/Decomposition in Thai lookup 3 subtable"  } ['ccmp' ('thai' <'dflt' > ) ]

StartChar: .notdef
Encoding: 65536 -1 0
Width: 500
GlyphClass: 2
Flags: W
LayerCount: 2
Back
SplineSet
50 0 m 1,0,-1
 50 714 l 1,1,-1
 450 714 l 1,2,-1
 450 0 l 1,3,-1
 50 0 l 1,0,-1
98 48 m 1,4,-1
 402 48 l 1,5,-1
 402 666 l 1,6,-1
 98 666 l 1,7,-1
 98 48 l 1,4,-1
EndSplineSet
Fore
SplineSet
50 0 m 1,0,-1
 50 714 l 1,1,-1
 450 714 l 1,2,-1
 450 0 l 1,3,-1
 50 0 l 1,0,-1
98 48 m 1,4,-1
 402 48 l 1,5,-1
 402 666 l 1,6,-1
 98 666 l 1,7,-1
 98 48 l 1,4,-1
EndSplineSet
EndChar

StartChar: uni0E01
Encoding: 3585 3585 4
Width: 597
GlyphClass: 2
Flags: W
AnchorPoint: "Anchor-1" 518 0 basechar 0
AnchorPoint: "Anchor-0" 518 0 basechar 0
LayerCount: 2
Back
SplineSet
81 0 m 1,0,-1
 81 192 l 2,1,2
 81 304 81 304 189 327 c 1,3,4
 170 343 170 343 129.5 354.5 c 128,-1,5
 89 366 89 366 65 366 c 1,6,7
 72 466 72 466 129.5 513 c 128,-1,8
 187 560 187 560 298 560 c 0,9,10
 410 560 410 560 463.5 508 c 128,-1,11
 517 456 517 456 517 340 c 2,12,-1
 517 58 l 1,13,-1
 468 0 l 1,14,-1
 435 0 l 1,15,-1
 435 349 l 2,16,17
 435 440 435 440 399.5 478 c 128,-1,18
 364 516 364 516 290 516 c 0,19,20
 227 516 227 516 190 483.5 c 128,-1,21
 153 451 153 451 149 389 c 1,22,23
 182 384 182 384 216 365 c 128,-1,24
 250 346 250 346 269 323 c 1,25,-1
 269 315 l 1,26,27
 212 304 212 304 187.5 273.5 c 128,-1,28
 163 243 163 243 163 191 c 2,29,-1
 163 0 l 1,30,-1
 81 0 l 1,0,-1
EndSplineSet
Fore
SplineSet
81 0 m 1,0,-1
 81 192 l 2,1,2
 81 304 81 304 189 327 c 1,3,4
 170 343 170 343 129.5 354.5 c 128,-1,5
 89 366 89 366 65 366 c 1,6,7
 72 466 72 466 129.5 513 c 128,-1,8
 187 560 187 560 298 560 c 0,9,10
 410 560 410 560 463.5 508 c 128,-1,11
 517 456 517 456 517 340 c 2,12,-1
 517 58 l 1,13,-1
 468 0 l 1,14,-1
 435 0 l 1,15,-1
 435 349 l 2,16,17
 435 440 435 440 399.5 478 c 128,-1,18
 364 516 364 516 290 516 c 0,19,20
 227 516 227 516 190 483.5 c 128,-1,21
 153 451 153 451 149 389 c 1,22,23
 182 384 182 384 216 365 c 128,-1,24
 250 346 250 346 269 323 c 1,25,-1
 269 315 l 1,26,27
 212 304 212 304 187.5 273.5 c 128,-1,28
 163 243 163 243 163 191 c 2,29,-1
 163 0 l 1,30,-1
 81 0 l 1,0,-1
EndSplineSet
EndChar

StartChar: uni0E02
Encoding: 3586 3586 5
Width: 630
GlyphClass: 2
Flags: W
AnchorPoint: "Anchor-1" 552 0 basechar 0
AnchorPoint: "Anchor-0" 552 0 basechar 0
LayerCount: 2
Back
SplineSet
156 42 m 1,0,-1
 235 42 l 1,1,-1
 235 241 l 2,2,3
 235 304 235 304 254 342 c 128,-1,4
 273 380 273 380 314 406 c 1,5,6
 310 456 310 456 279 486 c 128,-1,7
 248 516 248 516 199 516 c 0,8,9
 144 516 144 516 115.5 493.5 c 128,-1,10
 87 471 87 471 82 433 c 1,11,12
 91 444 91 444 110 451.5 c 128,-1,13
 129 459 129 459 147 459 c 0,14,15
 183 459 183 459 204.5 437 c 128,-1,16
 226 415 226 415 226 376 c 0,17,18
 226 338 226 338 202.5 315.5 c 128,-1,19
 179 293 179 293 137 293 c 0,20,21
 84 293 84 293 56.5 323.5 c 128,-1,22
 29 354 29 354 29 409 c 0,23,24
 29 478 29 478 77.5 519 c 128,-1,25
 126 560 126 560 212 560 c 0,26,27
 286 560 286 560 333 518 c 128,-1,28
 380 476 380 476 386 405 c 1,29,30
 359 384 359 384 344.5 363 c 128,-1,31
 330 342 330 342 323.5 318 c 128,-1,32
 317 294 317 294 317 244 c 2,33,-1
 317 42 l 1,34,-1
 350 42 l 2,35,36
 408 42 408 42 438.5 81.5 c 128,-1,37
 469 121 469 121 469 190 c 2,38,-1
 469 492 l 1,39,-1
 518 550 l 1,40,-1
 551 550 l 1,41,-1
 551 173 l 2,42,43
 551 90 551 90 506.5 45 c 128,-1,44
 462 0 462 0 382 0 c 2,45,-1
 156 0 l 1,46,-1
 156 42 l 1,0,-1
180 376 m 0,47,48
 180 395 180 395 168 406.5 c 128,-1,49
 156 418 156 418 136 418 c 0,50,51
 117 418 117 418 105 406.5 c 128,-1,52
 93 395 93 395 93 376 c 0,53,54
 93 356 93 356 105 344.5 c 128,-1,55
 117 333 117 333 136 333 c 0,56,57
 156 333 156 333 168 344.5 c 128,-1,58
 180 356 180 356 180 376 c 0,47,48
EndSplineSet
Fore
SplineSet
156 42 m 1,0,-1
 235 42 l 1,1,-1
 235 241 l 2,2,3
 235 304 235 304 254 342 c 128,-1,4
 273 380 273 380 314 406 c 1,5,6
 310 456 310 456 279 486 c 128,-1,7
 248 516 248 516 199 516 c 0,8,9
 144 516 144 516 115.5 493.5 c 128,-1,10
 87 471 87 471 82 433 c 1,11,12
 91 444 91 444 110 451.5 c 128,-1,13
 129 459 129 459 147 459 c 0,14,15
 183 459 183 459 204.5 437 c 128,-1,16
 226 415 226 415 226 376 c 0,17,18
 226 338 226 338 202.5 315.5 c 128,-1,19
 179 293 179 293 137 293 c 0,20,21
 84 293 84 293 56.5 323.5 c 128,-1,22
 29 354 29 354 29 409 c 0,23,24
 29 478 29 478 77.5 519 c 128,-1,25
 126 560 126 560 212 560 c 0,26,27
 286 560 286 560 333 518 c 128,-1,28
 380 476 380 476 386 405 c 1,29,30
 359 384 359 384 344.5 363 c 128,-1,31
 330 342 330 342 323.5 318 c 128,-1,32
 317 294 317 294 317 244 c 2,33,-1
 317 42 l 1,34,-1
 350 42 l 2,35,36
 408 42 408 42 438.5 81.5 c 128,-1,37
 469 121 469 121 469 190 c 2,38,-1
 469 492 l 1,39,-1
 518 550 l 1,40,-1
 551 550 l 1,41,-1
 551 173 l 2,42,43
 551 90 551 90 506.5 45 c 128,-1,44
 462 0 462 0 382 0 c 2,45,-1
 156 0 l 1,46,-1
 156 42 l 1,0,-1
180 376 m 0,47,48
 180 395 180 395 168 406.5 c 128,-1,49
 156 418 156 418 136 418 c 0,50,51
 117 418 117 418 105 406.5 c 128,-1,52
 93 395 93 395 93 376 c 0,53,54
 93 356 93 356 105 344.5 c 128,-1,55
 117 333 117 333 136 333 c 0,56,57
 156 333 156 333 168 344.5 c 128,-1,58
 180 356 180 356 180 376 c 0,47,48
EndSplineSet
EndChar

StartChar: uni0E03
Encoding: 3587 3587 6
Width: 630
GlyphClass: 2
Flags: W
AnchorPoint: "Anchor-1" 552 0 basechar 0
AnchorPoint: "Anchor-0" 552 0 basechar 0
LayerCount: 2
Back
SplineSet
141 507 m 1,0,1
 92 485 92 485 82 413 c 1,2,3
 91 424 91 424 110 431.5 c 128,-1,4
 129 439 129 439 147 439 c 0,5,6
 183 439 183 439 204.5 417 c 128,-1,7
 226 395 226 395 226 356 c 0,8,9
 226 318 226 318 202.5 295.5 c 128,-1,10
 179 273 179 273 137 273 c 0,11,12
 84 273 84 273 56.5 303.5 c 128,-1,13
 29 334 29 334 29 388 c 0,14,15
 29 448 29 448 61 495 c 128,-1,16
 93 542 93 542 146 557 c 1,17,-1
 212 497 l 1,18,-1
 278 557 l 1,19,20
 325 541 325 541 353.5 499.5 c 128,-1,21
 382 458 382 458 386 405 c 1,22,23
 359 384 359 384 344.5 363 c 128,-1,24
 330 342 330 342 323.5 318 c 128,-1,25
 317 294 317 294 317 244 c 2,26,-1
 317 42 l 1,27,-1
 350 42 l 2,28,29
 408 42 408 42 438.5 81.5 c 128,-1,30
 469 121 469 121 469 190 c 2,31,-1
 469 492 l 1,32,-1
 518 550 l 1,33,-1
 551 550 l 1,34,-1
 551 173 l 2,35,36
 551 90 551 90 506.5 45 c 128,-1,37
 462 0 462 0 382 0 c 2,38,-1
 156 0 l 1,39,-1
 156 42 l 1,40,-1
 235 42 l 1,41,-1
 235 241 l 2,42,43
 235 304 235 304 254 342 c 128,-1,44
 273 380 273 380 314 406 c 1,45,46
 312 434 312 434 301 459.5 c 128,-1,47
 290 485 290 485 274 498 c 1,48,-1
 212 444 l 1,49,-1
 141 507 l 1,0,1
180 356 m 0,50,51
 180 375 180 375 168 386.5 c 128,-1,52
 156 398 156 398 136 398 c 0,53,54
 117 398 117 398 105 386.5 c 128,-1,55
 93 375 93 375 93 356 c 0,56,57
 93 336 93 336 105 324.5 c 128,-1,58
 117 313 117 313 136 313 c 0,59,60
 156 313 156 313 168 324.5 c 128,-1,61
 180 336 180 336 180 356 c 0,50,51
EndSplineSet
Fore
SplineSet
141 507 m 1,0,1
 92 485 92 485 82 413 c 1,2,3
 91 424 91 424 110 431.5 c 128,-1,4
 129 439 129 439 147 439 c 0,5,6
 183 439 183 439 204.5 417 c 128,-1,7
 226 395 226 395 226 356 c 0,8,9
 226 318 226 318 202.5 295.5 c 128,-1,10
 179 273 179 273 137 273 c 0,11,12
 84 273 84 273 56.5 303.5 c 128,-1,13
 29 334 29 334 29 388 c 0,14,15
 29 448 29 448 61 495 c 128,-1,16
 93 542 93 542 146 557 c 1,17,-1
 212 497 l 1,18,-1
 278 557 l 1,19,20
 325 541 325 541 353.5 499.5 c 128,-1,21
 382 458 382 458 386 405 c 1,22,23
 359 384 359 384 344.5 363 c 128,-1,24
 330 342 330 342 323.5 318 c 128,-1,25
 317 294 317 294 317 244 c 2,26,-1
 317 42 l 1,27,-1
 350 42 l 2,28,29
 408 42 408 42 438.5 81.5 c 128,-1,30
 469 121 469 121 469 190 c 2,31,-1
 469 492 l 1,32,-1
 518 550 l 1,33,-1
 551 550 l 1,34,-1
 551 173 l 2,35,36
 551 90 551 90 506.5 45 c 128,-1,37
 462 0 462 0 382 0 c 2,38,-1
 156 0 l 1,39,-1
 156 42 l 1,40,-1
 235 42 l 1,41,-1
 235 241 l 2,42,43
 235 304 235 304 254 342 c 128,-1,44
 273 380 273 380 314 406 c 1,45,46
 312 434 312 434 301 459.5 c 128,-1,47
 290 485 290 485 274 498 c 1,48,-1
 212 444 l 1,49,-1
 141 507 l 1,0,1
180 356 m 0,50,51
 180 375 180 375 168 386.5 c 128,-1,52
 156 398 156 398 136 398 c 0,53,54
 117 398 117 398 105 386.5 c 128,-1,55
 93 375 93 375 93 356 c 0,56,57
 93 336 93 336 105 324.5 c 128,-1,58
 117 313 117 313 136 313 c 0,59,60
 156 313 156 313 168 324.5 c 128,-1,61
 180 336 180 336 180 356 c 0,50,51
EndSplineSet
EndChar

StartChar: uni0E04
Encoding: 3588 3588 7
Width: 624
GlyphClass: 2
Flags: W
AnchorPoint: "Anchor-1" 547 0 basechar 0
AnchorPoint: "Anchor-0" 547 0 basechar 0
LayerCount: 2
Back
SplineSet
220 228 m 1,0,1
 201 208 201 208 190 164 c 128,-1,2
 179 120 179 120 178 62 c 2,3,-1
 178 0 l 1,4,-1
 96 0 l 1,5,-1
 96 68 l 2,6,7
 96 161 96 161 76 234 c 0,8,9
 64 277 64 277 59.5 303 c 128,-1,10
 55 329 55 329 55 356 c 0,11,12
 55 451 55 451 120.5 505.5 c 128,-1,13
 186 560 186 560 302 560 c 0,14,15
 423 560 423 560 483.5 505.5 c 128,-1,16
 544 451 544 451 544 340 c 2,17,-1
 544 58 l 1,18,-1
 495 0 l 1,19,-1
 462 0 l 1,20,-1
 462 348 l 2,21,22
 462 515 462 515 302 515 c 0,23,24
 220 515 220 515 173 476 c 128,-1,25
 126 437 126 437 126 370 c 0,26,27
 126 344 126 344 131.5 318 c 128,-1,28
 137 292 137 292 152 244 c 1,29,-1
 164 200 l 1,30,31
 182 271 182 271 199 304 c 128,-1,32
 216 337 216 337 240 354 c 128,-1,33
 264 371 264 371 297 371 c 0,34,35
 344 371 344 371 370 346.5 c 128,-1,36
 396 322 396 322 396 278 c 0,37,38
 396 234 396 234 370 209.5 c 128,-1,39
 344 185 344 185 297 185 c 0,40,41
 243 185 243 185 220 228 c 1,0,1
246 277 m 256,42,43
 246 254 246 254 259 240.5 c 128,-1,44
 272 227 272 227 296 227 c 256,45,46
 319 227 319 227 333 240 c 128,-1,47
 347 253 347 253 347 277 c 256,48,49
 347 300 347 300 333 314 c 128,-1,50
 319 328 319 328 296 328 c 256,51,52
 273 328 273 328 259.5 314 c 128,-1,53
 246 300 246 300 246 277 c 256,42,43
EndSplineSet
Fore
SplineSet
220 228 m 1,0,1
 201 208 201 208 190 164 c 128,-1,2
 179 120 179 120 178 62 c 2,3,-1
 178 0 l 1,4,-1
 96 0 l 1,5,-1
 96 68 l 2,6,7
 96 161 96 161 76 234 c 0,8,9
 64 277 64 277 59.5 303 c 128,-1,10
 55 329 55 329 55 356 c 0,11,12
 55 451 55 451 120.5 505.5 c 128,-1,13
 186 560 186 560 302 560 c 0,14,15
 423 560 423 560 483.5 505.5 c 128,-1,16
 544 451 544 451 544 340 c 2,17,-1
 544 58 l 1,18,-1
 495 0 l 1,19,-1
 462 0 l 1,20,-1
 462 348 l 2,21,22
 462 515 462 515 302 515 c 0,23,24
 220 515 220 515 173 476 c 128,-1,25
 126 437 126 437 126 370 c 0,26,27
 126 344 126 344 131.5 318 c 128,-1,28
 137 292 137 292 152 244 c 1,29,-1
 164 200 l 1,30,31
 182 271 182 271 199 304 c 128,-1,32
 216 337 216 337 240 354 c 128,-1,33
 264 371 264 371 297 371 c 0,34,35
 344 371 344 371 370 346.5 c 128,-1,36
 396 322 396 322 396 278 c 0,37,38
 396 234 396 234 370 209.5 c 128,-1,39
 344 185 344 185 297 185 c 0,40,41
 243 185 243 185 220 228 c 1,0,1
246 277 m 256,42,43
 246 254 246 254 259 240.5 c 128,-1,44
 272 227 272 227 296 227 c 256,45,46
 319 227 319 227 333 240 c 128,-1,47
 347 253 347 253 347 277 c 256,48,49
 347 300 347 300 333 314 c 128,-1,50
 319 328 319 328 296 328 c 256,51,52
 273 328 273 328 259.5 314 c 128,-1,53
 246 300 246 300 246 277 c 256,42,43
EndSplineSet
EndChar

StartChar: uni0E05
Encoding: 3589 3589 8
Width: 624
GlyphClass: 2
Flags: W
AnchorPoint: "Anchor-1" 547 0 basechar 0
AnchorPoint: "Anchor-0" 547 0 basechar 0
LayerCount: 2
Back
SplineSet
215 504 m 1,0,1
 172 487 172 487 149 452 c 128,-1,2
 126 417 126 417 126 370 c 0,3,4
 126 344 126 344 131.5 318 c 128,-1,5
 137 292 137 292 152 244 c 1,6,-1
 164 200 l 1,7,8
 182 271 182 271 199 304 c 128,-1,9
 216 337 216 337 240 354 c 128,-1,10
 264 371 264 371 297 371 c 0,11,12
 344 371 344 371 370 346.5 c 128,-1,13
 396 322 396 322 396 278 c 0,14,15
 396 234 396 234 370 209.5 c 128,-1,16
 344 185 344 185 297 185 c 0,17,18
 244 185 244 185 220 228 c 1,19,20
 201 208 201 208 190 164 c 128,-1,21
 179 120 179 120 178 62 c 2,22,-1
 178 0 l 1,23,-1
 96 0 l 1,24,-1
 96 68 l 2,25,26
 96 161 96 161 76 234 c 0,27,28
 64 277 64 277 59.5 303 c 128,-1,29
 55 329 55 329 55 356 c 0,30,31
 55 434 55 434 97.5 487.5 c 128,-1,32
 140 541 140 541 216 558 c 1,33,-1
 302 482 l 1,34,-1
 388 558 l 1,35,36
 464 540 464 540 504 485 c 128,-1,37
 544 430 544 430 544 340 c 2,38,-1
 544 58 l 1,39,-1
 495 0 l 1,40,-1
 462 0 l 1,41,-1
 462 348 l 2,42,43
 462 469 462 469 388 504 c 1,44,-1
 302 427 l 1,45,-1
 215 504 l 1,0,1
246 277 m 256,46,47
 246 254 246 254 259 240.5 c 128,-1,48
 272 227 272 227 296 227 c 256,49,50
 319 227 319 227 333 240 c 128,-1,51
 347 253 347 253 347 277 c 256,52,53
 347 300 347 300 333 314 c 128,-1,54
 319 328 319 328 296 328 c 256,55,56
 273 328 273 328 259.5 314 c 128,-1,57
 246 300 246 300 246 277 c 256,46,47
EndSplineSet
Fore
SplineSet
215 504 m 1,0,1
 172 487 172 487 149 452 c 128,-1,2
 126 417 126 417 126 370 c 0,3,4
 126 344 126 344 131.5 318 c 128,-1,5
 137 292 137 292 152 244 c 1,6,-1
 164 200 l 1,7,8
 182 271 182 271 199 304 c 128,-1,9
 216 337 216 337 240 354 c 128,-1,10
 264 371 264 371 297 371 c 0,11,12
 344 371 344 371 370 346.5 c 128,-1,13
 396 322 396 322 396 278 c 0,14,15
 396 234 396 234 370 209.5 c 128,-1,16
 344 185 344 185 297 185 c 0,17,18
 244 185 244 185 220 228 c 1,19,20
 201 208 201 208 190 164 c 128,-1,21
 179 120 179 120 178 62 c 2,22,-1
 178 0 l 1,23,-1
 96 0 l 1,24,-1
 96 68 l 2,25,26
 96 161 96 161 76 234 c 0,27,28
 64 277 64 277 59.5 303 c 128,-1,29
 55 329 55 329 55 356 c 0,30,31
 55 434 55 434 97.5 487.5 c 128,-1,32
 140 541 140 541 216 558 c 1,33,-1
 302 482 l 1,34,-1
 388 558 l 1,35,36
 464 540 464 540 504 485 c 128,-1,37
 544 430 544 430 544 340 c 2,38,-1
 544 58 l 1,39,-1
 495 0 l 1,40,-1
 462 0 l 1,41,-1
 462 348 l 2,42,43
 462 469 462 469 388 504 c 1,44,-1
 302 427 l 1,45,-1
 215 504 l 1,0,1
246 277 m 256,46,47
 246 254 246 254 259 240.5 c 128,-1,48
 272 227 272 227 296 227 c 256,49,50
 319 227 319 227 333 240 c 128,-1,51
 347 253 347 253 347 277 c 256,52,53
 347 300 347 300 333 314 c 128,-1,54
 319 328 319 328 296 328 c 256,55,56
 273 328 273 328 259.5 314 c 128,-1,57
 246 300 246 300 246 277 c 256,46,47
EndSplineSet
EndChar

StartChar: uni0E06
Encoding: 3590 3590 9
Width: 630
GlyphClass: 2
Flags: W
AnchorPoint: "Anchor-1" 557 0 basechar 0
AnchorPoint: "Anchor-0" 557 0 basechar 0
LayerCount: 2
Back
SplineSet
155 79 m 0,0,1
 155 56 155 56 167.5 44 c 128,-1,2
 180 32 180 32 197 32 c 0,3,4
 235 32 235 32 235 77 c 2,5,-1
 235 157 l 1,6,7
 198 151 198 151 176.5 130.5 c 128,-1,8
 155 110 155 110 155 79 c 0,0,1
235 241 m 2,9,10
 235 304 235 304 254 342 c 128,-1,11
 273 380 273 380 314 406 c 1,12,13
 312 434 312 434 301 459.5 c 128,-1,14
 290 485 290 485 274 498 c 1,15,-1
 212 444 l 1,16,-1
 141 507 l 1,17,18
 92 485 92 485 82 413 c 1,19,20
 91 424 91 424 110 431.5 c 128,-1,21
 129 439 129 439 147 439 c 0,22,23
 183 439 183 439 204.5 417 c 128,-1,24
 226 395 226 395 226 356 c 0,25,26
 226 318 226 318 202.5 295.5 c 128,-1,27
 179 273 179 273 137 273 c 0,28,29
 84 273 84 273 56.5 303.5 c 128,-1,30
 29 334 29 334 29 388 c 0,31,32
 29 448 29 448 61 495 c 128,-1,33
 93 542 93 542 146 557 c 1,34,-1
 212 497 l 1,35,-1
 278 557 l 1,36,37
 325 541 325 541 353.5 499.5 c 128,-1,38
 382 458 382 458 386 405 c 1,39,40
 359 384 359 384 344.5 363 c 128,-1,41
 330 342 330 342 323.5 318 c 128,-1,42
 317 294 317 294 317 244 c 2,43,-1
 317 193 l 1,44,45
 366 182 366 182 402.5 155.5 c 128,-1,46
 439 129 439 129 469 94 c 1,47,-1
 469 492 l 1,48,-1
 518 550 l 1,49,-1
 551 550 l 1,50,-1
 551 0 l 1,51,-1
 469 0 l 1,52,53
 428 66 428 66 391.5 101.5 c 128,-1,54
 355 137 355 137 317 151 c 1,55,-1
 317 103 l 2,56,57
 317 47 317 47 291 19 c 128,-1,58
 265 -9 265 -9 208 -9 c 0,59,60
 159 -9 159 -9 134 15 c 128,-1,61
 109 39 109 39 109 79 c 0,62,63
 109 127 109 127 142 158 c 128,-1,64
 175 189 175 189 235 196 c 1,65,-1
 235 241 l 2,9,10
180 356 m 0,66,67
 180 375 180 375 168 386.5 c 128,-1,68
 156 398 156 398 136 398 c 0,69,70
 117 398 117 398 105 386.5 c 128,-1,71
 93 375 93 375 93 356 c 0,72,73
 93 336 93 336 105 324.5 c 128,-1,74
 117 313 117 313 136 313 c 0,75,76
 156 313 156 313 168 324.5 c 128,-1,77
 180 336 180 336 180 356 c 0,66,67
EndSplineSet
Fore
SplineSet
155 79 m 0,0,1
 155 56 155 56 167.5 44 c 128,-1,2
 180 32 180 32 197 32 c 0,3,4
 235 32 235 32 235 77 c 2,5,-1
 235 157 l 1,6,7
 198 151 198 151 176.5 130.5 c 128,-1,8
 155 110 155 110 155 79 c 0,0,1
235 241 m 2,9,10
 235 304 235 304 254 342 c 128,-1,11
 273 380 273 380 314 406 c 1,12,13
 312 434 312 434 301 459.5 c 128,-1,14
 290 485 290 485 274 498 c 1,15,-1
 212 444 l 1,16,-1
 141 507 l 1,17,18
 92 485 92 485 82 413 c 1,19,20
 91 424 91 424 110 431.5 c 128,-1,21
 129 439 129 439 147 439 c 0,22,23
 183 439 183 439 204.5 417 c 128,-1,24
 226 395 226 395 226 356 c 0,25,26
 226 318 226 318 202.5 295.5 c 128,-1,27
 179 273 179 273 137 273 c 0,28,29
 84 273 84 273 56.5 303.5 c 128,-1,30
 29 334 29 334 29 388 c 0,31,32
 29 448 29 448 61 495 c 128,-1,33
 93 542 93 542 146 557 c 1,34,-1
 212 497 l 1,35,-1
 278 557 l 1,36,37
 325 541 325 541 353.5 499.5 c 128,-1,38
 382 458 382 458 386 405 c 1,39,40
 359 384 359 384 344.5 363 c 128,-1,41
 330 342 330 342 323.5 318 c 128,-1,42
 317 294 317 294 317 244 c 2,43,-1
 317 193 l 1,44,45
 366 182 366 182 402.5 155.5 c 128,-1,46
 439 129 439 129 469 94 c 1,47,-1
 469 492 l 1,48,-1
 518 550 l 1,49,-1
 551 550 l 1,50,-1
 551 0 l 1,51,-1
 469 0 l 1,52,53
 428 66 428 66 391.5 101.5 c 128,-1,54
 355 137 355 137 317 151 c 1,55,-1
 317 103 l 2,56,57
 317 47 317 47 291 19 c 128,-1,58
 265 -9 265 -9 208 -9 c 0,59,60
 159 -9 159 -9 134 15 c 128,-1,61
 109 39 109 39 109 79 c 0,62,63
 109 127 109 127 142 158 c 128,-1,64
 175 189 175 189 235 196 c 1,65,-1
 235 241 l 2,9,10
180 356 m 0,66,67
 180 375 180 375 168 386.5 c 128,-1,68
 156 398 156 398 136 398 c 0,69,70
 117 398 117 398 105 386.5 c 128,-1,71
 93 375 93 375 93 356 c 0,72,73
 93 336 93 336 105 324.5 c 128,-1,74
 117 313 117 313 136 313 c 0,75,76
 156 313 156 313 168 324.5 c 128,-1,77
 180 336 180 336 180 356 c 0,66,67
EndSplineSet
EndChar

StartChar: uni0E07
Encoding: 3591 3591 10
Width: 473
GlyphClass: 2
Flags: W
AnchorPoint: "Anchor-1" 393 0 basechar 0
AnchorPoint: "Anchor-0" 393 0 basechar 0
LayerCount: 2
Back
SplineSet
287 369 m 0,0,1
 243 369 243 369 218.5 393 c 128,-1,2
 194 417 194 417 194 462 c 0,3,4
 194 506 194 506 220 530.5 c 128,-1,5
 246 555 246 555 293 555 c 0,6,7
 341 555 341 555 367 530.5 c 128,-1,8
 393 506 393 506 393 462 c 2,9,-1
 393 153 l 2,10,11
 393 65 393 65 363.5 27.5 c 128,-1,12
 334 -10 334 -10 263 -10 c 0,13,14
 217 -10 217 -10 190 3.5 c 128,-1,15
 163 17 163 17 144 48.5 c 128,-1,16
 125 80 125 80 102 162 c 0,17,18
 89 208 89 208 80.5 234 c 128,-1,19
 72 260 72 260 64 272.5 c 128,-1,20
 56 285 56 285 47 287.5 c 128,-1,21
 38 290 38 290 24 290 c 1,22,-1
 24 332 l 1,23,24
 85 332 85 332 108 321.5 c 128,-1,25
 131 311 131 311 146.5 281 c 128,-1,26
 162 251 162 251 180 183 c 0,27,28
 197 120 197 120 209 89 c 128,-1,29
 221 58 221 58 232.5 44.5 c 128,-1,30
 244 31 244 31 265 31 c 0,31,32
 290 31 290 31 300.5 53.5 c 128,-1,33
 311 76 311 76 311 131 c 2,34,-1
 311 371 l 1,35,36
 306 369 306 369 287 369 c 0,0,1
244 462 m 256,37,38
 244 439 244 439 257.5 425.5 c 128,-1,39
 271 412 271 412 294 412 c 256,40,41
 317 412 317 412 331 425 c 128,-1,42
 345 438 345 438 345 462 c 256,43,44
 345 485 345 485 331 499 c 128,-1,45
 317 513 317 513 294 513 c 256,46,47
 271 513 271 513 257.5 499 c 128,-1,48
 244 485 244 485 244 462 c 256,37,38
EndSplineSet
Fore
SplineSet
287 369 m 0,0,1
 243 369 243 369 218.5 393 c 128,-1,2
 194 417 194 417 194 462 c 0,3,4
 194 506 194 506 220 530.5 c 128,-1,5
 246 555 246 555 293 555 c 0,6,7
 341 555 341 555 367 530.5 c 128,-1,8
 393 506 393 506 393 462 c 2,9,-1
 393 153 l 2,10,11
 393 65 393 65 363.5 27.5 c 128,-1,12
 334 -10 334 -10 263 -10 c 0,13,14
 217 -10 217 -10 190 3.5 c 128,-1,15
 163 17 163 17 144 48.5 c 128,-1,16
 125 80 125 80 102 162 c 0,17,18
 89 208 89 208 80.5 234 c 128,-1,19
 72 260 72 260 64 272.5 c 128,-1,20
 56 285 56 285 47 287.5 c 128,-1,21
 38 290 38 290 24 290 c 1,22,-1
 24 332 l 1,23,24
 85 332 85 332 108 321.5 c 128,-1,25
 131 311 131 311 146.5 281 c 128,-1,26
 162 251 162 251 180 183 c 0,27,28
 197 120 197 120 209 89 c 128,-1,29
 221 58 221 58 232.5 44.5 c 128,-1,30
 244 31 244 31 265 31 c 0,31,32
 290 31 290 31 300.5 53.5 c 128,-1,33
 311 76 311 76 311 131 c 2,34,-1
 311 371 l 1,35,36
 306 369 306 369 287 369 c 0,0,1
244 462 m 256,37,38
 244 439 244 439 257.5 425.5 c 128,-1,39
 271 412 271 412 294 412 c 256,40,41
 317 412 317 412 331 425 c 128,-1,42
 345 438 345 438 345 462 c 256,43,44
 345 485 345 485 331 499 c 128,-1,45
 317 513 317 513 294 513 c 256,46,47
 271 513 271 513 257.5 499 c 128,-1,48
 244 485 244 485 244 462 c 256,37,38
EndSplineSet
EndChar

StartChar: uni0E08
Encoding: 3592 3592 11
Width: 580
GlyphClass: 2
Flags: W
AnchorPoint: "Anchor-1" 500 0 basechar 0
AnchorPoint: "Anchor-0" 500 0 basechar 0
LayerCount: 2
Back
SplineSet
372 -10 m 0,0,1
 326 -10 326 -10 298.5 2.5 c 128,-1,2
 271 15 271 15 252.5 44 c 128,-1,3
 234 73 234 73 217 134 c 2,4,-1
 204 180 l 1,5,6
 179 170 179 170 153 170 c 0,7,8
 105 170 105 170 79.5 194.5 c 128,-1,9
 54 219 54 219 54 263 c 0,10,11
 54 306 54 306 79.5 331 c 128,-1,12
 105 356 105 356 153 356 c 0,13,14
 198 356 198 356 225.5 328 c 128,-1,15
 253 300 253 300 271 238 c 2,16,-1
 311 103 l 2,17,18
 322 64 322 64 337 47.5 c 128,-1,19
 352 31 352 31 371 31 c 0,20,21
 397 31 397 31 407.5 54 c 128,-1,22
 418 77 418 77 418 131 c 2,23,-1
 418 335 l 2,24,25
 418 422 418 422 377.5 467 c 128,-1,26
 337 512 337 512 264 512 c 0,27,28
 160 512 160 512 69 454 c 1,29,-1
 46 492 l 1,30,31
 145 560 145 560 273 560 c 0,32,33
 384 560 384 560 442 503 c 128,-1,34
 500 446 500 446 500 342 c 2,35,-1
 500 153 l 2,36,37
 500 64 500 64 470.5 27 c 128,-1,38
 441 -10 441 -10 372 -10 c 0,0,1
104 263 m 256,39,40
 104 240 104 240 117 226.5 c 128,-1,41
 130 213 130 213 154 213 c 256,42,43
 177 213 177 213 191 226.5 c 128,-1,44
 205 240 205 240 205 263 c 256,45,46
 205 286 205 286 191 300 c 128,-1,47
 177 314 177 314 154 314 c 256,48,49
 131 314 131 314 117.5 300 c 128,-1,50
 104 286 104 286 104 263 c 256,39,40
EndSplineSet
Fore
SplineSet
372 -10 m 0,0,1
 326 -10 326 -10 298.5 2.5 c 128,-1,2
 271 15 271 15 252.5 44 c 128,-1,3
 234 73 234 73 217 134 c 2,4,-1
 204 180 l 1,5,6
 179 170 179 170 153 170 c 0,7,8
 105 170 105 170 79.5 194.5 c 128,-1,9
 54 219 54 219 54 263 c 0,10,11
 54 306 54 306 79.5 331 c 128,-1,12
 105 356 105 356 153 356 c 0,13,14
 198 356 198 356 225.5 328 c 128,-1,15
 253 300 253 300 271 238 c 2,16,-1
 311 103 l 2,17,18
 322 64 322 64 337 47.5 c 128,-1,19
 352 31 352 31 371 31 c 0,20,21
 397 31 397 31 407.5 54 c 128,-1,22
 418 77 418 77 418 131 c 2,23,-1
 418 335 l 2,24,25
 418 422 418 422 377.5 467 c 128,-1,26
 337 512 337 512 264 512 c 0,27,28
 160 512 160 512 69 454 c 1,29,-1
 46 492 l 1,30,31
 145 560 145 560 273 560 c 0,32,33
 384 560 384 560 442 503 c 128,-1,34
 500 446 500 446 500 342 c 2,35,-1
 500 153 l 2,36,37
 500 64 500 64 470.5 27 c 128,-1,38
 441 -10 441 -10 372 -10 c 0,0,1
104 263 m 256,39,40
 104 240 104 240 117 226.5 c 128,-1,41
 130 213 130 213 154 213 c 256,42,43
 177 213 177 213 191 226.5 c 128,-1,44
 205 240 205 240 205 263 c 256,45,46
 205 286 205 286 191 300 c 128,-1,47
 177 314 177 314 154 314 c 256,48,49
 131 314 131 314 117.5 300 c 128,-1,50
 104 286 104 286 104 263 c 256,39,40
EndSplineSet
EndChar

StartChar: uni0E09
Encoding: 3593 3593 12
Width: 645
GlyphClass: 2
Flags: W
AnchorPoint: "Anchor-1" 503 0 basechar 0
AnchorPoint: "Anchor-0" 503 0 basechar 0
LayerCount: 2
Back
SplineSet
241 82 m 1,0,1
 312 163 312 163 418 189 c 1,2,-1
 418 335 l 2,3,4
 418 422 418 422 377.5 467 c 128,-1,5
 337 512 337 512 264 512 c 0,6,7
 160 512 160 512 69 454 c 1,8,-1
 46 492 l 1,9,10
 145 560 145 560 273 560 c 0,11,12
 384 560 384 560 442 503 c 128,-1,13
 500 446 500 446 500 342 c 2,14,-1
 500 196 l 1,15,16
 560 189 560 189 593 158 c 128,-1,17
 626 127 626 127 626 79 c 0,18,19
 626 39 626 39 601 15 c 128,-1,20
 576 -9 576 -9 527 -9 c 0,21,22
 470 -9 470 -9 444 19 c 128,-1,23
 418 47 418 47 418 103 c 2,24,-1
 418 151 l 1,25,26
 309 111 309 111 241 0 c 1,27,-1
 159 0 l 1,28,-1
 159 189 l 1,29,30
 154 187 154 187 135 187 c 0,31,32
 92 187 92 187 67 211 c 128,-1,33
 42 235 42 235 42 280 c 0,34,35
 42 324 42 324 68 349 c 128,-1,36
 94 374 94 374 141 374 c 0,37,38
 189 374 189 374 215 349 c 128,-1,39
 241 324 241 324 241 280 c 2,40,-1
 241 82 l 1,0,1
580 79 m 0,41,42
 580 111 580 111 558.5 131 c 128,-1,43
 537 151 537 151 500 157 c 1,44,-1
 500 77 l 2,45,46
 500 55 500 55 510 43.5 c 128,-1,47
 520 32 520 32 538 32 c 0,48,49
 555 32 555 32 567.5 44 c 128,-1,50
 580 56 580 56 580 79 c 0,41,42
92 280 m 256,51,52
 92 257 92 257 105.5 243.5 c 128,-1,53
 119 230 119 230 142 230 c 256,54,55
 165 230 165 230 179 243 c 128,-1,56
 193 256 193 256 193 280 c 256,57,58
 193 303 193 303 179.5 317 c 128,-1,59
 166 331 166 331 142 331 c 256,60,61
 119 331 119 331 105.5 317 c 128,-1,62
 92 303 92 303 92 280 c 256,51,52
EndSplineSet
Fore
SplineSet
241 82 m 1,0,1
 312 163 312 163 418 189 c 1,2,-1
 418 335 l 2,3,4
 418 422 418 422 377.5 467 c 128,-1,5
 337 512 337 512 264 512 c 0,6,7
 160 512 160 512 69 454 c 1,8,-1
 46 492 l 1,9,10
 145 560 145 560 273 560 c 0,11,12
 384 560 384 560 442 503 c 128,-1,13
 500 446 500 446 500 342 c 2,14,-1
 500 196 l 1,15,16
 560 189 560 189 593 158 c 128,-1,17
 626 127 626 127 626 79 c 0,18,19
 626 39 626 39 601 15 c 128,-1,20
 576 -9 576 -9 527 -9 c 0,21,22
 470 -9 470 -9 444 19 c 128,-1,23
 418 47 418 47 418 103 c 2,24,-1
 418 151 l 1,25,26
 309 111 309 111 241 0 c 1,27,-1
 159 0 l 1,28,-1
 159 189 l 1,29,30
 154 187 154 187 135 187 c 0,31,32
 92 187 92 187 67 211 c 128,-1,33
 42 235 42 235 42 280 c 0,34,35
 42 324 42 324 68 349 c 128,-1,36
 94 374 94 374 141 374 c 0,37,38
 189 374 189 374 215 349 c 128,-1,39
 241 324 241 324 241 280 c 2,40,-1
 241 82 l 1,0,1
580 79 m 0,41,42
 580 111 580 111 558.5 131 c 128,-1,43
 537 151 537 151 500 157 c 1,44,-1
 500 77 l 2,45,46
 500 55 500 55 510 43.5 c 128,-1,47
 520 32 520 32 538 32 c 0,48,49
 555 32 555 32 567.5 44 c 128,-1,50
 580 56 580 56 580 79 c 0,41,42
92 280 m 256,51,52
 92 257 92 257 105.5 243.5 c 128,-1,53
 119 230 119 230 142 230 c 256,54,55
 165 230 165 230 179 243 c 128,-1,56
 193 256 193 256 193 280 c 256,57,58
 193 303 193 303 179.5 317 c 128,-1,59
 166 331 166 331 142 331 c 256,60,61
 119 331 119 331 105.5 317 c 128,-1,62
 92 303 92 303 92 280 c 256,51,52
EndSplineSet
EndChar

StartChar: uni0E0A
Encoding: 3594 3594 13
Width: 630
GlyphClass: 2
Flags: W
AnchorPoint: "Anchor-1" 552 0 basechar 0
AnchorPoint: "Anchor-0" 552 29 basechar 0
LayerCount: 2
Back
SplineSet
180 376 m 0,0,1
 180 395 180 395 168 406.5 c 128,-1,2
 156 418 156 418 136 418 c 0,3,4
 117 418 117 418 105 406.5 c 128,-1,5
 93 395 93 395 93 376 c 0,6,7
 93 356 93 356 105 344.5 c 128,-1,8
 117 333 117 333 136 333 c 0,9,10
 156 333 156 333 168 344.5 c 128,-1,11
 180 356 180 356 180 376 c 0,0,1
469 327 m 2,12,13
 469 386 469 386 423 404 c 1,14,-1
 423 427 l 1,15,16
 449 435 449 435 471 457 c 128,-1,17
 493 479 493 479 535 544 c 2,18,-1
 565 589 l 1,19,-1
 657 589 l 1,20,21
 586 486 586 486 573.5 471 c 128,-1,22
 561 456 561 456 548 445 c 128,-1,23
 535 434 535 434 522 427 c 128,-1,24
 509 420 509 420 492 415 c 1,25,26
 521 405 521 405 536 382.5 c 128,-1,27
 551 360 551 360 551 331 c 2,28,-1
 551 173 l 2,29,30
 551 90 551 90 506.5 45 c 128,-1,31
 462 0 462 0 382 0 c 2,32,-1
 156 0 l 1,33,-1
 156 42 l 1,34,-1
 235 42 l 1,35,-1
 235 241 l 2,36,37
 235 304 235 304 254 342 c 128,-1,38
 273 380 273 380 314 406 c 1,39,40
 310 456 310 456 279 486 c 128,-1,41
 248 516 248 516 199 516 c 0,42,43
 144 516 144 516 115.5 493.5 c 128,-1,44
 87 471 87 471 82 433 c 1,45,46
 91 444 91 444 110 451.5 c 128,-1,47
 129 459 129 459 147 459 c 0,48,49
 183 459 183 459 204.5 437 c 128,-1,50
 226 415 226 415 226 376 c 0,51,52
 226 338 226 338 202.5 315.5 c 128,-1,53
 179 293 179 293 137 293 c 0,54,55
 84 293 84 293 56.5 323.5 c 128,-1,56
 29 354 29 354 29 409 c 0,57,58
 29 478 29 478 77.5 519 c 128,-1,59
 126 560 126 560 212 560 c 0,60,61
 286 560 286 560 333 518 c 128,-1,62
 380 476 380 476 386 405 c 1,63,64
 359 384 359 384 344.5 363 c 128,-1,65
 330 342 330 342 323.5 318 c 128,-1,66
 317 294 317 294 317 244 c 2,67,-1
 317 42 l 1,68,-1
 350 42 l 2,69,70
 408 42 408 42 438.5 81.5 c 128,-1,71
 469 121 469 121 469 190 c 2,72,-1
 469 327 l 2,12,13
EndSplineSet
Fore
SplineSet
180 376 m 0,0,1
 180 395 180 395 168 406.5 c 128,-1,2
 156 418 156 418 136 418 c 0,3,4
 117 418 117 418 105 406.5 c 128,-1,5
 93 395 93 395 93 376 c 0,6,7
 93 356 93 356 105 344.5 c 128,-1,8
 117 333 117 333 136 333 c 0,9,10
 156 333 156 333 168 344.5 c 128,-1,11
 180 356 180 356 180 376 c 0,0,1
469 327 m 2,12,13
 469 386 469 386 423 404 c 1,14,-1
 423 427 l 1,15,16
 449 435 449 435 471 457 c 128,-1,17
 493 479 493 479 535 544 c 2,18,-1
 565 589 l 1,19,-1
 657 589 l 1,20,21
 586 486 586 486 573.5 471 c 128,-1,22
 561 456 561 456 548 445 c 128,-1,23
 535 434 535 434 522 427 c 128,-1,24
 509 420 509 420 492 415 c 1,25,26
 521 405 521 405 536 382.5 c 128,-1,27
 551 360 551 360 551 331 c 2,28,-1
 551 173 l 2,29,30
 551 90 551 90 506.5 45 c 128,-1,31
 462 0 462 0 382 0 c 2,32,-1
 156 0 l 1,33,-1
 156 42 l 1,34,-1
 235 42 l 1,35,-1
 235 241 l 2,36,37
 235 304 235 304 254 342 c 128,-1,38
 273 380 273 380 314 406 c 1,39,40
 310 456 310 456 279 486 c 128,-1,41
 248 516 248 516 199 516 c 0,42,43
 144 516 144 516 115.5 493.5 c 128,-1,44
 87 471 87 471 82 433 c 1,45,46
 91 444 91 444 110 451.5 c 128,-1,47
 129 459 129 459 147 459 c 0,48,49
 183 459 183 459 204.5 437 c 128,-1,50
 226 415 226 415 226 376 c 0,51,52
 226 338 226 338 202.5 315.5 c 128,-1,53
 179 293 179 293 137 293 c 0,54,55
 84 293 84 293 56.5 323.5 c 128,-1,56
 29 354 29 354 29 409 c 0,57,58
 29 478 29 478 77.5 519 c 128,-1,59
 126 560 126 560 212 560 c 0,60,61
 286 560 286 560 333 518 c 128,-1,62
 380 476 380 476 386 405 c 1,63,64
 359 384 359 384 344.5 363 c 128,-1,65
 330 342 330 342 323.5 318 c 128,-1,66
 317 294 317 294 317 244 c 2,67,-1
 317 42 l 1,68,-1
 350 42 l 2,69,70
 408 42 408 42 438.5 81.5 c 128,-1,71
 469 121 469 121 469 190 c 2,72,-1
 469 327 l 2,12,13
EndSplineSet
EndChar

StartChar: uni0E0B
Encoding: 3595 3595 14
Width: 660
GlyphClass: 2
Flags: W
AnchorPoint: "Anchor-1" 552 0 basechar 0
AnchorPoint: "Anchor-0" 552 29 basechar 0
LayerCount: 2
Back
SplineSet
235 241 m 2,0,1
 235 304 235 304 254 342 c 128,-1,2
 273 380 273 380 314 406 c 1,3,4
 312 434 312 434 301 459.5 c 128,-1,5
 290 485 290 485 274 498 c 1,6,-1
 212 444 l 1,7,-1
 141 507 l 1,8,9
 92 485 92 485 82 413 c 1,10,11
 91 424 91 424 110 431.5 c 128,-1,12
 129 439 129 439 147 439 c 0,13,14
 183 439 183 439 204.5 417 c 128,-1,15
 226 395 226 395 226 356 c 0,16,17
 226 318 226 318 202.5 295.5 c 128,-1,18
 179 273 179 273 137 273 c 0,19,20
 84 273 84 273 56.5 303.5 c 128,-1,21
 29 334 29 334 29 388 c 0,22,23
 29 448 29 448 61 495 c 128,-1,24
 93 542 93 542 146 557 c 1,25,-1
 212 497 l 1,26,-1
 278 557 l 1,27,28
 325 541 325 541 353.5 499.5 c 128,-1,29
 382 458 382 458 386 405 c 1,30,31
 359 384 359 384 344.5 363 c 128,-1,32
 330 342 330 342 323.5 318 c 128,-1,33
 317 294 317 294 317 244 c 2,34,-1
 317 42 l 1,35,-1
 350 42 l 2,36,37
 408 42 408 42 438.5 81.5 c 128,-1,38
 469 121 469 121 469 190 c 2,39,-1
 469 327 l 2,40,41
 469 386 469 386 423 404 c 1,42,-1
 423 427 l 1,43,44
 449 435 449 435 471 457 c 128,-1,45
 493 479 493 479 535 544 c 2,46,-1
 565 589 l 1,47,-1
 657 589 l 1,48,49
 586 486 586 486 573.5 471 c 128,-1,50
 561 456 561 456 548 445 c 128,-1,51
 535 434 535 434 522 427 c 128,-1,52
 509 420 509 420 492 415 c 1,53,54
 521 405 521 405 536 382.5 c 128,-1,55
 551 360 551 360 551 331 c 2,56,-1
 551 173 l 2,57,58
 551 90 551 90 506.5 45 c 128,-1,59
 462 0 462 0 382 0 c 2,60,-1
 156 0 l 1,61,-1
 156 42 l 1,62,-1
 235 42 l 1,63,-1
 235 241 l 2,0,1
180 356 m 0,64,65
 180 375 180 375 168 386.5 c 128,-1,66
 156 398 156 398 136 398 c 0,67,68
 117 398 117 398 105 386.5 c 128,-1,69
 93 375 93 375 93 356 c 0,70,71
 93 336 93 336 105 324.5 c 128,-1,72
 117 313 117 313 136 313 c 0,73,74
 156 313 156 313 168 324.5 c 128,-1,75
 180 336 180 336 180 356 c 0,64,65
EndSplineSet
Fore
SplineSet
235 241 m 2,0,1
 235 304 235 304 254 342 c 128,-1,2
 273 380 273 380 314 406 c 1,3,4
 312 434 312 434 301 459.5 c 128,-1,5
 290 485 290 485 274 498 c 1,6,-1
 212 444 l 1,7,-1
 141 507 l 1,8,9
 92 485 92 485 82 413 c 1,10,11
 91 424 91 424 110 431.5 c 128,-1,12
 129 439 129 439 147 439 c 0,13,14
 183 439 183 439 204.5 417 c 128,-1,15
 226 395 226 395 226 356 c 0,16,17
 226 318 226 318 202.5 295.5 c 128,-1,18
 179 273 179 273 137 273 c 0,19,20
 84 273 84 273 56.5 303.5 c 128,-1,21
 29 334 29 334 29 388 c 0,22,23
 29 448 29 448 61 495 c 128,-1,24
 93 542 93 542 146 557 c 1,25,-1
 212 497 l 1,26,-1
 278 557 l 1,27,28
 325 541 325 541 353.5 499.5 c 128,-1,29
 382 458 382 458 386 405 c 1,30,31
 359 384 359 384 344.5 363 c 128,-1,32
 330 342 330 342 323.5 318 c 128,-1,33
 317 294 317 294 317 244 c 2,34,-1
 317 42 l 1,35,-1
 350 42 l 2,36,37
 408 42 408 42 438.5 81.5 c 128,-1,38
 469 121 469 121 469 190 c 2,39,-1
 469 327 l 2,40,41
 469 386 469 386 423 404 c 1,42,-1
 423 427 l 1,43,44
 449 435 449 435 471 457 c 128,-1,45
 493 479 493 479 535 544 c 2,46,-1
 565 589 l 1,47,-1
 657 589 l 1,48,49
 586 486 586 486 573.5 471 c 128,-1,50
 561 456 561 456 548 445 c 128,-1,51
 535 434 535 434 522 427 c 128,-1,52
 509 420 509 420 492 415 c 1,53,54
 521 405 521 405 536 382.5 c 128,-1,55
 551 360 551 360 551 331 c 2,56,-1
 551 173 l 2,57,58
 551 90 551 90 506.5 45 c 128,-1,59
 462 0 462 0 382 0 c 2,60,-1
 156 0 l 1,61,-1
 156 42 l 1,62,-1
 235 42 l 1,63,-1
 235 241 l 2,0,1
180 356 m 0,64,65
 180 375 180 375 168 386.5 c 128,-1,66
 156 398 156 398 136 398 c 0,67,68
 117 398 117 398 105 386.5 c 128,-1,69
 93 375 93 375 93 356 c 0,70,71
 93 336 93 336 105 324.5 c 128,-1,72
 117 313 117 313 136 313 c 0,73,74
 156 313 156 313 168 324.5 c 128,-1,75
 180 336 180 336 180 356 c 0,64,65
EndSplineSet
EndChar

StartChar: uni0E0C
Encoding: 3596 3596 15
Width: 839
GlyphClass: 2
Flags: W
AnchorPoint: "Anchor-1" 767 0 basechar 0
AnchorPoint: "Anchor-0" 767 0 basechar 0
LayerCount: 2
Back
SplineSet
364 79 m 0,0,1
 364 56 364 56 376.5 44 c 128,-1,2
 389 32 389 32 406 32 c 0,3,4
 444 32 444 32 444 77 c 2,5,-1
 444 157 l 1,6,7
 407 151 407 151 385.5 130.5 c 128,-1,8
 364 110 364 110 364 79 c 0,0,1
81 192 m 2,9,10
 81 249 81 249 108 282 c 128,-1,11
 135 315 135 315 189 327 c 1,12,13
 170 343 170 343 129.5 354.5 c 128,-1,14
 89 366 89 366 65 366 c 1,15,16
 69 459 69 459 130 509.5 c 128,-1,17
 191 560 191 560 298 560 c 0,18,19
 413 560 413 560 469.5 506.5 c 128,-1,20
 526 453 526 453 526 340 c 2,21,-1
 526 193 l 1,22,23
 575 182 575 182 611.5 155.5 c 128,-1,24
 648 129 648 129 678 94 c 1,25,-1
 678 492 l 1,26,-1
 727 550 l 1,27,-1
 760 550 l 1,28,-1
 760 0 l 1,29,-1
 678 0 l 1,30,31
 637 66 637 66 600.5 101.5 c 128,-1,32
 564 137 564 137 526 151 c 1,33,-1
 526 103 l 2,34,35
 526 47 526 47 500 19 c 128,-1,36
 474 -9 474 -9 417 -9 c 0,37,38
 368 -9 368 -9 343 15 c 128,-1,39
 318 39 318 39 318 79 c 0,40,41
 318 127 318 127 351 158 c 128,-1,42
 384 189 384 189 444 196 c 1,43,-1
 444 344 l 2,44,45
 444 432 444 432 408 473.5 c 128,-1,46
 372 515 372 515 299 515 c 0,47,48
 174 515 174 515 149 389 c 1,49,50
 182 384 182 384 216 365.5 c 128,-1,51
 250 347 250 347 269 323 c 1,52,-1
 269 315 l 1,53,54
 212 304 212 304 187.5 273.5 c 128,-1,55
 163 243 163 243 163 192 c 2,56,-1
 163 176 l 1,57,58
 169 178 169 178 187 178 c 0,59,60
 231 178 231 178 255.5 153 c 128,-1,61
 280 128 280 128 280 84 c 0,62,63
 280 40 280 40 254.5 15.5 c 128,-1,64
 229 -9 229 -9 181 -9 c 0,65,66
 133 -9 133 -9 107 15.5 c 128,-1,67
 81 40 81 40 81 84 c 2,68,-1
 81 192 l 2,9,10
230 85 m 256,69,70
 230 108 230 108 217 121.5 c 128,-1,71
 204 135 204 135 180 135 c 256,72,73
 157 135 157 135 143 121.5 c 128,-1,74
 129 108 129 108 129 85 c 256,75,76
 129 62 129 62 143 48 c 128,-1,77
 157 34 157 34 180 34 c 256,78,79
 203 34 203 34 216.5 48 c 128,-1,80
 230 62 230 62 230 85 c 256,69,70
EndSplineSet
Fore
SplineSet
364 79 m 0,0,1
 364 56 364 56 376.5 44 c 128,-1,2
 389 32 389 32 406 32 c 0,3,4
 444 32 444 32 444 77 c 2,5,-1
 444 157 l 1,6,7
 407 151 407 151 385.5 130.5 c 128,-1,8
 364 110 364 110 364 79 c 0,0,1
81 192 m 2,9,10
 81 249 81 249 108 282 c 128,-1,11
 135 315 135 315 189 327 c 1,12,13
 170 343 170 343 129.5 354.5 c 128,-1,14
 89 366 89 366 65 366 c 1,15,16
 69 459 69 459 130 509.5 c 128,-1,17
 191 560 191 560 298 560 c 0,18,19
 413 560 413 560 469.5 506.5 c 128,-1,20
 526 453 526 453 526 340 c 2,21,-1
 526 193 l 1,22,23
 575 182 575 182 611.5 155.5 c 128,-1,24
 648 129 648 129 678 94 c 1,25,-1
 678 492 l 1,26,-1
 727 550 l 1,27,-1
 760 550 l 1,28,-1
 760 0 l 1,29,-1
 678 0 l 1,30,31
 637 66 637 66 600.5 101.5 c 128,-1,32
 564 137 564 137 526 151 c 1,33,-1
 526 103 l 2,34,35
 526 47 526 47 500 19 c 128,-1,36
 474 -9 474 -9 417 -9 c 0,37,38
 368 -9 368 -9 343 15 c 128,-1,39
 318 39 318 39 318 79 c 0,40,41
 318 127 318 127 351 158 c 128,-1,42
 384 189 384 189 444 196 c 1,43,-1
 444 344 l 2,44,45
 444 432 444 432 408 473.5 c 128,-1,46
 372 515 372 515 299 515 c 0,47,48
 174 515 174 515 149 389 c 1,49,50
 182 384 182 384 216 365.5 c 128,-1,51
 250 347 250 347 269 323 c 1,52,-1
 269 315 l 1,53,54
 212 304 212 304 187.5 273.5 c 128,-1,55
 163 243 163 243 163 192 c 2,56,-1
 163 176 l 1,57,58
 169 178 169 178 187 178 c 0,59,60
 231 178 231 178 255.5 153 c 128,-1,61
 280 128 280 128 280 84 c 0,62,63
 280 40 280 40 254.5 15.5 c 128,-1,64
 229 -9 229 -9 181 -9 c 0,65,66
 133 -9 133 -9 107 15.5 c 128,-1,67
 81 40 81 40 81 84 c 2,68,-1
 81 192 l 2,9,10
230 85 m 256,69,70
 230 108 230 108 217 121.5 c 128,-1,71
 204 135 204 135 180 135 c 256,72,73
 157 135 157 135 143 121.5 c 128,-1,74
 129 108 129 108 129 85 c 256,75,76
 129 62 129 62 143 48 c 128,-1,77
 157 34 157 34 180 34 c 256,78,79
 203 34 203 34 216.5 48 c 128,-1,80
 230 62 230 62 230 85 c 256,69,70
EndSplineSet
EndChar

StartChar: uni0E0D
Encoding: 3597 3597 16
Width: 831
GlyphClass: 2
Flags: W
AnchorPoint: "Anchor-1" 752 -195 basechar 0
AnchorPoint: "Anchor-0" 752 0 basechar 0
LayerCount: 2
Back
SplineSet
532 -232 m 0,0,1
 479 -232 479 -232 446.5 -205 c 128,-1,2
 414 -178 414 -178 414 -134 c 0,3,4
 414 -96 414 -96 439 -73 c 128,-1,5
 464 -50 464 -50 506 -50 c 256,6,7
 548 -50 548 -50 572 -71.5 c 128,-1,8
 596 -93 596 -93 596 -129 c 0,9,10
 596 -150 596 -150 588.5 -166.5 c 128,-1,11
 581 -183 581 -183 571 -191 c 1,12,13
 662 -173 662 -173 710 -38 c 1,14,-1
 785 -62 l 1,15,16
 755 -146 755 -146 693.5 -189 c 128,-1,17
 632 -232 632 -232 532 -232 c 0,0,1
462 -135 m 0,18,19
 462 -154 462 -154 473.5 -165.5 c 128,-1,20
 485 -177 485 -177 506 -177 c 0,21,22
 524 -177 524 -177 536.5 -165.5 c 128,-1,23
 549 -154 549 -154 549 -135 c 0,24,25
 549 -114 549 -114 536.5 -103 c 128,-1,26
 524 -92 524 -92 506 -92 c 0,27,28
 485 -92 485 -92 473.5 -103 c 128,-1,29
 462 -114 462 -114 462 -135 c 0,18,19
435 0 m 1,30,-1
 435 349 l 2,31,32
 435 440 435 440 399.5 478 c 128,-1,33
 364 516 364 516 290 516 c 0,34,35
 227 516 227 516 190 483.5 c 128,-1,36
 153 451 153 451 149 389 c 1,37,38
 182 384 182 384 216 365 c 128,-1,39
 250 346 250 346 269 323 c 1,40,-1
 269 315 l 1,41,42
 212 304 212 304 187.5 273.5 c 128,-1,43
 163 243 163 243 163 191 c 2,44,-1
 163 176 l 1,45,46
 169 178 169 178 187 178 c 0,47,48
 231 178 231 178 255.5 153.5 c 128,-1,49
 280 129 280 129 280 85 c 0,50,51
 280 41 280 41 254.5 16 c 128,-1,52
 229 -9 229 -9 181 -9 c 0,53,54
 133 -9 133 -9 107 15.5 c 128,-1,55
 81 40 81 40 81 84 c 2,56,-1
 81 192 l 2,57,58
 81 304 81 304 189 327 c 1,59,60
 170 343 170 343 129.5 354.5 c 128,-1,61
 89 366 89 366 65 366 c 1,62,63
 72 466 72 466 129.5 513 c 128,-1,64
 187 560 187 560 298 560 c 0,65,66
 410 560 410 560 463.5 508 c 128,-1,67
 517 456 517 456 517 340 c 2,68,-1
 517 42 l 1,69,-1
 550 42 l 2,70,71
 608 42 608 42 638.5 81.5 c 128,-1,72
 669 121 669 121 669 190 c 2,73,-1
 669 492 l 1,74,-1
 718 550 l 1,75,-1
 751 550 l 1,76,-1
 751 173 l 2,77,78
 751 91 751 91 706.5 45.5 c 128,-1,79
 662 0 662 0 582 0 c 2,80,-1
 435 0 l 1,30,-1
230 85 m 256,81,82
 230 108 230 108 217 121.5 c 128,-1,83
 204 135 204 135 180 135 c 256,84,85
 157 135 157 135 143 121.5 c 128,-1,86
 129 108 129 108 129 85 c 256,87,88
 129 62 129 62 143 48 c 128,-1,89
 157 34 157 34 180 34 c 256,90,91
 203 34 203 34 216.5 48 c 128,-1,92
 230 62 230 62 230 85 c 256,81,82
EndSplineSet
Fore
SplineSet
532 -232 m 0,0,1
 479 -232 479 -232 446.5 -205 c 128,-1,2
 414 -178 414 -178 414 -134 c 0,3,4
 414 -96 414 -96 439 -73 c 128,-1,5
 464 -50 464 -50 506 -50 c 256,6,7
 548 -50 548 -50 572 -71.5 c 128,-1,8
 596 -93 596 -93 596 -129 c 0,9,10
 596 -150 596 -150 588.5 -166.5 c 128,-1,11
 581 -183 581 -183 571 -191 c 1,12,13
 662 -173 662 -173 710 -38 c 1,14,-1
 785 -62 l 1,15,16
 755 -146 755 -146 693.5 -189 c 128,-1,17
 632 -232 632 -232 532 -232 c 0,0,1
462 -135 m 0,18,19
 462 -154 462 -154 473.5 -165.5 c 128,-1,20
 485 -177 485 -177 506 -177 c 0,21,22
 524 -177 524 -177 536.5 -165.5 c 128,-1,23
 549 -154 549 -154 549 -135 c 0,24,25
 549 -114 549 -114 536.5 -103 c 128,-1,26
 524 -92 524 -92 506 -92 c 0,27,28
 485 -92 485 -92 473.5 -103 c 128,-1,29
 462 -114 462 -114 462 -135 c 0,18,19
435 0 m 1,30,-1
 435 349 l 2,31,32
 435 440 435 440 399.5 478 c 128,-1,33
 364 516 364 516 290 516 c 0,34,35
 227 516 227 516 190 483.5 c 128,-1,36
 153 451 153 451 149 389 c 1,37,38
 182 384 182 384 216 365 c 128,-1,39
 250 346 250 346 269 323 c 1,40,-1
 269 315 l 1,41,42
 212 304 212 304 187.5 273.5 c 128,-1,43
 163 243 163 243 163 191 c 2,44,-1
 163 176 l 1,45,46
 169 178 169 178 187 178 c 0,47,48
 231 178 231 178 255.5 153.5 c 128,-1,49
 280 129 280 129 280 85 c 0,50,51
 280 41 280 41 254.5 16 c 128,-1,52
 229 -9 229 -9 181 -9 c 0,53,54
 133 -9 133 -9 107 15.5 c 128,-1,55
 81 40 81 40 81 84 c 2,56,-1
 81 192 l 2,57,58
 81 304 81 304 189 327 c 1,59,60
 170 343 170 343 129.5 354.5 c 128,-1,61
 89 366 89 366 65 366 c 1,62,63
 72 466 72 466 129.5 513 c 128,-1,64
 187 560 187 560 298 560 c 0,65,66
 410 560 410 560 463.5 508 c 128,-1,67
 517 456 517 456 517 340 c 2,68,-1
 517 42 l 1,69,-1
 550 42 l 2,70,71
 608 42 608 42 638.5 81.5 c 128,-1,72
 669 121 669 121 669 190 c 2,73,-1
 669 492 l 1,74,-1
 718 550 l 1,75,-1
 751 550 l 1,76,-1
 751 173 l 2,77,78
 751 91 751 91 706.5 45.5 c 128,-1,79
 662 0 662 0 582 0 c 2,80,-1
 435 0 l 1,30,-1
230 85 m 256,81,82
 230 108 230 108 217 121.5 c 128,-1,83
 204 135 204 135 180 135 c 256,84,85
 157 135 157 135 143 121.5 c 128,-1,86
 129 108 129 108 129 85 c 256,87,88
 129 62 129 62 143 48 c 128,-1,89
 157 34 157 34 180 34 c 256,90,91
 203 34 203 34 216.5 48 c 128,-1,92
 230 62 230 62 230 85 c 256,81,82
EndSplineSet
Substitution2: "Single Substitution lookup 7 subtable" uni0E0D.alt1
EndChar

StartChar: uni0E0D.alt1
Encoding: 65537 -1 17
Width: 831
GlyphClass: 2
Flags: W
AnchorPoint: "Anchor-1" 752 0 basechar 0
AnchorPoint: "Anchor-0" 752 0 basechar 0
LayerCount: 2
Back
SplineSet
435 0 m 1,0,-1
 435 349 l 2,1,2
 435 440 435 440 399.5 478 c 128,-1,3
 364 516 364 516 290 516 c 0,4,5
 227 516 227 516 190 483.5 c 128,-1,6
 153 451 153 451 149 389 c 1,7,8
 182 384 182 384 216 365 c 128,-1,9
 250 346 250 346 269 323 c 1,10,-1
 269 315 l 1,11,12
 212 304 212 304 187.5 273.5 c 128,-1,13
 163 243 163 243 163 191 c 2,14,-1
 163 175 l 1,15,16
 168 177 168 177 187 177 c 0,17,18
 231 177 231 177 255.5 152.5 c 128,-1,19
 280 128 280 128 280 84 c 0,20,21
 280 40 280 40 254.5 15.5 c 128,-1,22
 229 -9 229 -9 181 -9 c 0,23,24
 133 -9 133 -9 107 15.5 c 128,-1,25
 81 40 81 40 81 84 c 2,26,-1
 81 192 l 2,27,28
 81 304 81 304 189 327 c 1,29,30
 170 343 170 343 129.5 354.5 c 128,-1,31
 89 366 89 366 65 366 c 1,32,33
 72 466 72 466 129.5 513 c 128,-1,34
 187 560 187 560 298 560 c 0,35,36
 410 560 410 560 463.5 508 c 128,-1,37
 517 456 517 456 517 340 c 2,38,-1
 517 42 l 1,39,-1
 550 42 l 2,40,41
 608 42 608 42 638.5 81.5 c 128,-1,42
 669 121 669 121 669 190 c 2,43,-1
 669 492 l 1,44,-1
 718 550 l 1,45,-1
 751 550 l 1,46,-1
 751 173 l 2,47,48
 751 91 751 91 706.5 45.5 c 128,-1,49
 662 0 662 0 582 0 c 2,50,-1
 435 0 l 1,0,-1
230 84 m 256,51,52
 230 107 230 107 217 120.5 c 128,-1,53
 204 134 204 134 180 134 c 256,54,55
 157 134 157 134 143 120.5 c 128,-1,56
 129 107 129 107 129 84 c 256,57,58
 129 61 129 61 143 47 c 128,-1,59
 157 33 157 33 180 33 c 256,60,61
 203 33 203 33 216.5 47 c 128,-1,62
 230 61 230 61 230 84 c 256,51,52
EndSplineSet
Fore
SplineSet
435 0 m 1,0,-1
 435 349 l 2,1,2
 435 440 435 440 399.5 478 c 128,-1,3
 364 516 364 516 290 516 c 0,4,5
 227 516 227 516 190 483.5 c 128,-1,6
 153 451 153 451 149 389 c 1,7,8
 182 384 182 384 216 365 c 128,-1,9
 250 346 250 346 269 323 c 1,10,-1
 269 315 l 1,11,12
 212 304 212 304 187.5 273.5 c 128,-1,13
 163 243 163 243 163 191 c 2,14,-1
 163 175 l 1,15,16
 168 177 168 177 187 177 c 0,17,18
 231 177 231 177 255.5 152.5 c 128,-1,19
 280 128 280 128 280 84 c 0,20,21
 280 40 280 40 254.5 15.5 c 128,-1,22
 229 -9 229 -9 181 -9 c 0,23,24
 133 -9 133 -9 107 15.5 c 128,-1,25
 81 40 81 40 81 84 c 2,26,-1
 81 192 l 2,27,28
 81 304 81 304 189 327 c 1,29,30
 170 343 170 343 129.5 354.5 c 128,-1,31
 89 366 89 366 65 366 c 1,32,33
 72 466 72 466 129.5 513 c 128,-1,34
 187 560 187 560 298 560 c 0,35,36
 410 560 410 560 463.5 508 c 128,-1,37
 517 456 517 456 517 340 c 2,38,-1
 517 42 l 1,39,-1
 550 42 l 2,40,41
 608 42 608 42 638.5 81.5 c 128,-1,42
 669 121 669 121 669 190 c 2,43,-1
 669 492 l 1,44,-1
 718 550 l 1,45,-1
 751 550 l 1,46,-1
 751 173 l 2,47,48
 751 91 751 91 706.5 45.5 c 128,-1,49
 662 0 662 0 582 0 c 2,50,-1
 435 0 l 1,0,-1
230 84 m 256,51,52
 230 107 230 107 217 120.5 c 128,-1,53
 204 134 204 134 180 134 c 256,54,55
 157 134 157 134 143 120.5 c 128,-1,56
 129 107 129 107 129 84 c 256,57,58
 129 61 129 61 143 47 c 128,-1,59
 157 33 157 33 180 33 c 256,60,61
 203 33 203 33 216.5 47 c 128,-1,62
 230 61 230 61 230 84 c 256,51,52
EndSplineSet
EndChar

StartChar: uni0E0E
Encoding: 3598 3598 18
Width: 642
GlyphClass: 2
Flags: W
AnchorPoint: "Anchor-1" 576 -254 basechar 0
AnchorPoint: "Anchor-0" 576 0 basechar 0
LayerCount: 2
Back
SplineSet
252 -95 m 0,0,1
 228 -95 228 -95 212.5 -106.5 c 128,-1,2
 197 -118 197 -118 197 -140 c 0,3,4
 197 -162 197 -162 211.5 -174 c 128,-1,5
 226 -186 226 -186 248 -186 c 0,6,7
 273 -186 273 -186 295.5 -167.5 c 128,-1,8
 318 -149 318 -149 332 -119 c 1,9,10
 290 -95 290 -95 252 -95 c 0,0,1
493 349 m 2,11,12
 493 440 493 440 457.5 478 c 128,-1,13
 422 516 422 516 348 516 c 0,14,15
 285 516 285 516 248 483.5 c 128,-1,16
 211 451 211 451 207 389 c 1,17,18
 240 384 240 384 274 365 c 128,-1,19
 308 346 308 346 327 323 c 1,20,-1
 327 315 l 1,21,22
 270 304 270 304 245.5 273.5 c 128,-1,23
 221 243 221 243 221 191 c 2,24,-1
 221 84 l 2,25,26
 221 40 221 40 195 15.5 c 128,-1,27
 169 -9 169 -9 121 -9 c 0,28,29
 74 -9 74 -9 48 15.5 c 128,-1,30
 22 40 22 40 22 84 c 0,31,32
 22 128 22 128 46.5 153 c 128,-1,33
 71 178 71 178 115 178 c 0,34,35
 133 178 133 178 139 176 c 1,36,-1
 139 192 l 2,37,38
 139 304 139 304 247 327 c 1,39,40
 227 344 227 344 187.5 355 c 128,-1,41
 148 366 148 366 123 366 c 1,42,43
 130 466 130 466 187.5 513 c 128,-1,44
 245 560 245 560 356 560 c 0,45,46
 467 560 467 560 521 508 c 128,-1,47
 575 456 575 456 575 340 c 2,48,-1
 575 -199 l 1,49,-1
 524 -254 l 1,50,-1
 498 -254 l 1,51,52
 450 -197 450 -197 384 -150 c 1,53,54
 359 -185 359 -185 324.5 -206.5 c 128,-1,55
 290 -228 290 -228 248 -228 c 0,56,57
 205 -228 205 -228 177 -205 c 128,-1,58
 149 -182 149 -182 149 -141 c 256,59,60
 149 -100 149 -100 176.5 -76.5 c 128,-1,61
 204 -53 204 -53 250 -53 c 0,62,63
 302 -53 302 -53 348 -76 c 1,64,-1
 365 -13 l 1,65,-1
 440 -34 l 1,66,67
 427 -74 427 -74 409 -109 c 1,68,69
 457 -140 457 -140 493 -176 c 1,70,-1
 493 349 l 2,11,12
72 85 m 256,71,72
 72 62 72 62 85.5 48 c 128,-1,73
 99 34 99 34 122 34 c 256,74,75
 145 34 145 34 159 48 c 128,-1,76
 173 62 173 62 173 85 c 256,77,78
 173 108 173 108 159.5 121.5 c 128,-1,79
 146 135 146 135 122 135 c 256,80,81
 99 135 99 135 85.5 121.5 c 128,-1,82
 72 108 72 108 72 85 c 256,71,72
EndSplineSet
Fore
SplineSet
252 -95 m 0,0,1
 228 -95 228 -95 212.5 -106.5 c 128,-1,2
 197 -118 197 -118 197 -140 c 0,3,4
 197 -162 197 -162 211.5 -174 c 128,-1,5
 226 -186 226 -186 248 -186 c 0,6,7
 273 -186 273 -186 295.5 -167.5 c 128,-1,8
 318 -149 318 -149 332 -119 c 1,9,10
 290 -95 290 -95 252 -95 c 0,0,1
493 349 m 2,11,12
 493 440 493 440 457.5 478 c 128,-1,13
 422 516 422 516 348 516 c 0,14,15
 285 516 285 516 248 483.5 c 128,-1,16
 211 451 211 451 207 389 c 1,17,18
 240 384 240 384 274 365 c 128,-1,19
 308 346 308 346 327 323 c 1,20,-1
 327 315 l 1,21,22
 270 304 270 304 245.5 273.5 c 128,-1,23
 221 243 221 243 221 191 c 2,24,-1
 221 84 l 2,25,26
 221 40 221 40 195 15.5 c 128,-1,27
 169 -9 169 -9 121 -9 c 0,28,29
 74 -9 74 -9 48 15.5 c 128,-1,30
 22 40 22 40 22 84 c 0,31,32
 22 128 22 128 46.5 153 c 128,-1,33
 71 178 71 178 115 178 c 0,34,35
 133 178 133 178 139 176 c 1,36,-1
 139 192 l 2,37,38
 139 304 139 304 247 327 c 1,39,40
 227 344 227 344 187.5 355 c 128,-1,41
 148 366 148 366 123 366 c 1,42,43
 130 466 130 466 187.5 513 c 128,-1,44
 245 560 245 560 356 560 c 0,45,46
 467 560 467 560 521 508 c 128,-1,47
 575 456 575 456 575 340 c 2,48,-1
 575 -199 l 1,49,-1
 524 -254 l 1,50,-1
 498 -254 l 1,51,52
 450 -197 450 -197 384 -150 c 1,53,54
 359 -185 359 -185 324.5 -206.5 c 128,-1,55
 290 -228 290 -228 248 -228 c 0,56,57
 205 -228 205 -228 177 -205 c 128,-1,58
 149 -182 149 -182 149 -141 c 256,59,60
 149 -100 149 -100 176.5 -76.5 c 128,-1,61
 204 -53 204 -53 250 -53 c 0,62,63
 302 -53 302 -53 348 -76 c 1,64,-1
 365 -13 l 1,65,-1
 440 -34 l 1,66,67
 427 -74 427 -74 409 -109 c 1,68,69
 457 -140 457 -140 493 -176 c 1,70,-1
 493 349 l 2,11,12
72 85 m 256,71,72
 72 62 72 62 85.5 48 c 128,-1,73
 99 34 99 34 122 34 c 256,74,75
 145 34 145 34 159 48 c 128,-1,76
 173 62 173 62 173 85 c 256,77,78
 173 108 173 108 159.5 121.5 c 128,-1,79
 146 135 146 135 122 135 c 256,80,81
 99 135 99 135 85.5 121.5 c 128,-1,82
 72 108 72 108 72 85 c 256,71,72
EndSplineSet
EndChar

StartChar: uni0E0F
Encoding: 3599 3599 19
Width: 642
GlyphClass: 2
Flags: W
AnchorPoint: "Anchor-1" 576 -254 basechar 0
AnchorPoint: "Anchor-0" 576 0 basechar 0
LayerCount: 2
Back
SplineSet
72 85 m 256,0,1
 72 62 72 62 85.5 48 c 128,-1,2
 99 34 99 34 122 34 c 256,3,4
 145 34 145 34 159 48 c 128,-1,5
 173 62 173 62 173 85 c 256,6,7
 173 108 173 108 159.5 121.5 c 128,-1,8
 146 135 146 135 122 135 c 256,9,10
 99 135 99 135 85.5 121.5 c 128,-1,11
 72 108 72 108 72 85 c 256,0,1
154 -104 m 0,12,13
 130 -104 130 -104 114.5 -115.5 c 128,-1,14
 99 -127 99 -127 99 -149 c 0,15,16
 99 -172 99 -172 113.5 -183.5 c 128,-1,17
 128 -195 128 -195 150 -195 c 0,18,19
 173 -195 173 -195 195 -180 c 128,-1,20
 217 -165 217 -165 231 -138 c 1,21,22
 190 -104 190 -104 154 -104 c 0,12,13
150 -237 m 0,23,24
 106 -237 106 -237 78.5 -213.5 c 128,-1,25
 51 -190 51 -190 51 -150 c 0,26,27
 51 -109 51 -109 79 -85.5 c 128,-1,28
 107 -62 107 -62 152 -62 c 0,29,30
 178 -62 178 -62 204.5 -72 c 128,-1,31
 231 -82 231 -82 252 -97 c 1,32,33
 271 -53 271 -53 291 25 c 1,34,-1
 366 5 l 1,35,36
 338 -76 338 -76 296 -135 c 1,37,38
 304 -143 304 -143 333 -179 c 1,39,40
 349 -166 349 -166 366.5 -140 c 128,-1,41
 384 -114 384 -114 394 -90 c 1,42,43
 446 -123 446 -123 493 -171 c 1,44,-1
 493 349 l 2,45,46
 493 440 493 440 457.5 478 c 128,-1,47
 422 516 422 516 348 516 c 0,48,49
 285 516 285 516 248 483.5 c 128,-1,50
 211 451 211 451 207 389 c 1,51,52
 240 384 240 384 274 365 c 128,-1,53
 308 346 308 346 327 323 c 1,54,-1
 327 315 l 1,55,56
 270 304 270 304 245.5 273.5 c 128,-1,57
 221 243 221 243 221 191 c 2,58,-1
 221 84 l 2,59,60
 221 40 221 40 195 15.5 c 128,-1,61
 169 -9 169 -9 121 -9 c 0,62,63
 74 -9 74 -9 48 15.5 c 128,-1,64
 22 40 22 40 22 84 c 0,65,66
 22 128 22 128 46.5 153 c 128,-1,67
 71 178 71 178 115 178 c 0,68,69
 133 178 133 178 139 176 c 1,70,-1
 139 192 l 2,71,72
 139 304 139 304 247 327 c 1,73,74
 227 344 227 344 187.5 355 c 128,-1,75
 148 366 148 366 123 366 c 1,76,77
 130 466 130 466 187.5 513 c 128,-1,78
 245 560 245 560 356 560 c 0,79,80
 467 560 467 560 521 508 c 128,-1,81
 575 456 575 456 575 340 c 2,82,-1
 575 -199 l 1,83,-1
 524 -254 l 1,84,-1
 498 -254 l 1,85,86
 445 -184 445 -184 407 -152 c 1,87,88
 397 -173 397 -173 371 -200 c 128,-1,89
 345 -227 345 -227 321 -243 c 1,90,91
 297 -203 297 -203 267 -174 c 1,92,93
 215 -237 215 -237 150 -237 c 0,23,24
EndSplineSet
Fore
SplineSet
72 85 m 256,0,1
 72 62 72 62 85.5 48 c 128,-1,2
 99 34 99 34 122 34 c 256,3,4
 145 34 145 34 159 48 c 128,-1,5
 173 62 173 62 173 85 c 256,6,7
 173 108 173 108 159.5 121.5 c 128,-1,8
 146 135 146 135 122 135 c 256,9,10
 99 135 99 135 85.5 121.5 c 128,-1,11
 72 108 72 108 72 85 c 256,0,1
154 -104 m 0,12,13
 130 -104 130 -104 114.5 -115.5 c 128,-1,14
 99 -127 99 -127 99 -149 c 0,15,16
 99 -172 99 -172 113.5 -183.5 c 128,-1,17
 128 -195 128 -195 150 -195 c 0,18,19
 173 -195 173 -195 195 -180 c 128,-1,20
 217 -165 217 -165 231 -138 c 1,21,22
 190 -104 190 -104 154 -104 c 0,12,13
150 -237 m 0,23,24
 106 -237 106 -237 78.5 -213.5 c 128,-1,25
 51 -190 51 -190 51 -150 c 0,26,27
 51 -109 51 -109 79 -85.5 c 128,-1,28
 107 -62 107 -62 152 -62 c 0,29,30
 178 -62 178 -62 204.5 -72 c 128,-1,31
 231 -82 231 -82 252 -97 c 1,32,33
 271 -53 271 -53 291 25 c 1,34,-1
 366 5 l 1,35,36
 338 -76 338 -76 296 -135 c 1,37,38
 304 -143 304 -143 333 -179 c 1,39,40
 349 -166 349 -166 366.5 -140 c 128,-1,41
 384 -114 384 -114 394 -90 c 1,42,43
 446 -123 446 -123 493 -171 c 1,44,-1
 493 349 l 2,45,46
 493 440 493 440 457.5 478 c 128,-1,47
 422 516 422 516 348 516 c 0,48,49
 285 516 285 516 248 483.5 c 128,-1,50
 211 451 211 451 207 389 c 1,51,52
 240 384 240 384 274 365 c 128,-1,53
 308 346 308 346 327 323 c 1,54,-1
 327 315 l 1,55,56
 270 304 270 304 245.5 273.5 c 128,-1,57
 221 243 221 243 221 191 c 2,58,-1
 221 84 l 2,59,60
 221 40 221 40 195 15.5 c 128,-1,61
 169 -9 169 -9 121 -9 c 0,62,63
 74 -9 74 -9 48 15.5 c 128,-1,64
 22 40 22 40 22 84 c 0,65,66
 22 128 22 128 46.5 153 c 128,-1,67
 71 178 71 178 115 178 c 0,68,69
 133 178 133 178 139 176 c 1,70,-1
 139 192 l 2,71,72
 139 304 139 304 247 327 c 1,73,74
 227 344 227 344 187.5 355 c 128,-1,75
 148 366 148 366 123 366 c 1,76,77
 130 466 130 466 187.5 513 c 128,-1,78
 245 560 245 560 356 560 c 0,79,80
 467 560 467 560 521 508 c 128,-1,81
 575 456 575 456 575 340 c 2,82,-1
 575 -199 l 1,83,-1
 524 -254 l 1,84,-1
 498 -254 l 1,85,86
 445 -184 445 -184 407 -152 c 1,87,88
 397 -173 397 -173 371 -200 c 128,-1,89
 345 -227 345 -227 321 -243 c 1,90,91
 297 -203 297 -203 267 -174 c 1,92,93
 215 -237 215 -237 150 -237 c 0,23,24
EndSplineSet
EndChar

StartChar: uni0E10
Encoding: 3600 3600 20
Width: 562
GlyphClass: 2
Flags: W
AnchorPoint: "Anchor-1" 493 -244 basechar 0
AnchorPoint: "Anchor-0" 493 0 basechar 0
LayerCount: 2
Back
SplineSet
138 -104 m 0,0,1
 116 -104 116 -104 102.5 -115.5 c 128,-1,2
 89 -127 89 -127 89 -149 c 0,3,4
 89 -172 89 -172 102 -183.5 c 128,-1,5
 115 -195 115 -195 134 -195 c 0,6,7
 181 -195 181 -195 211 -138 c 1,8,9
 170 -104 170 -104 138 -104 c 0,0,1
367 -192 m 1,10,11
 352 -207 352 -207 332 -222 c 128,-1,12
 312 -237 312 -237 301 -243 c 1,13,14
 277 -203 277 -203 247 -174 c 1,15,16
 222 -204 222 -204 195.5 -220.5 c 128,-1,17
 169 -237 169 -237 134 -237 c 0,18,19
 92 -237 92 -237 66.5 -214.5 c 128,-1,20
 41 -192 41 -192 41 -150 c 0,21,22
 41 -108 41 -108 66.5 -85 c 128,-1,23
 92 -62 92 -62 136 -62 c 0,24,25
 184 -62 184 -62 232 -97 c 1,26,27
 243 -72 243 -72 258 -24 c 1,28,-1
 325 -48 l 1,29,30
 303 -96 303 -96 276 -135 c 1,31,32
 284 -143 284 -143 313 -179 c 1,33,34
 332 -168 332 -168 361 -137 c 1,35,36
 414 -161 414 -161 452 -190 c 1,37,-1
 452 -135 l 1,38,39
 450 -136 450 -136 441 -136 c 0,40,41
 416 -136 416 -136 400.5 -121.5 c 128,-1,42
 385 -107 385 -107 385 -81 c 256,43,44
 385 -55 385 -55 401.5 -40 c 128,-1,45
 418 -25 418 -25 448 -25 c 0,46,47
 479 -25 479 -25 496.5 -40 c 128,-1,48
 514 -55 514 -55 514 -82 c 2,49,-1
 514 -214 l 1,50,-1
 463 -254 l 1,51,-1
 452 -254 l 1,52,53
 409 -215 409 -215 367 -192 c 1,10,11
420 -81 m 0,54,55
 420 -105 420 -105 445 -105 c 0,56,57
 469 -105 469 -105 469 -81 c 0,58,59
 469 -56 469 -56 445 -56 c 0,60,61
 420 -56 420 -56 420 -81 c 0,54,55
63 389 m 2,62,63
 63 475 63 475 99 512.5 c 128,-1,64
 135 550 135 550 217 550 c 0,65,66
 265 550 265 550 385 539 c 1,67,-1
 419 536 l 1,68,69
 468 536 468 536 496 557 c 2,70,-1
 514 570 l 1,71,-1
 534 548 l 1,72,73
 521 534 521 534 509 520 c 128,-1,74
 497 506 497 506 479.5 495.5 c 128,-1,75
 462 485 462 485 439 478.5 c 128,-1,76
 416 472 416 472 382 472 c 2,77,-1
 347 474 l 1,78,79
 231 483 231 483 215 483 c 0,80,81
 148 483 148 483 123.5 463.5 c 128,-1,82
 99 444 99 444 99 398 c 1,83,-1
 286 398 l 2,84,85
 392 398 392 398 442.5 355.5 c 128,-1,86
 493 313 493 313 493 222 c 2,87,-1
 493 153 l 2,88,89
 493 64 493 64 464 27 c 128,-1,90
 435 -10 435 -10 365 -10 c 0,91,92
 317 -10 317 -10 290 3 c 128,-1,93
 263 16 263 16 244.5 46.5 c 128,-1,94
 226 77 226 77 209 136 c 1,95,96
 184 126 184 126 158 126 c 0,97,98
 110 126 110 126 84.5 150.5 c 128,-1,99
 59 175 59 175 59 219 c 0,100,101
 59 262 59 262 85 287.5 c 128,-1,102
 111 313 111 313 158 313 c 0,103,104
 202 313 202 313 229 285.5 c 128,-1,105
 256 258 256 258 276 194 c 2,106,-1
 304 103 l 2,107,108
 316 64 316 64 329.5 47.5 c 128,-1,109
 343 31 343 31 364 31 c 0,110,111
 390 31 390 31 400.5 53.5 c 128,-1,112
 411 76 411 76 411 131 c 2,113,-1
 411 213 l 2,114,115
 411 290 411 290 376 322.5 c 128,-1,116
 341 355 341 355 262 355 c 2,117,-1
 63 355 l 1,118,-1
 63 389 l 2,62,63
109 219 m 256,119,120
 109 196 109 196 122.5 182.5 c 128,-1,121
 136 169 136 169 159 169 c 256,122,123
 182 169 182 169 196 182.5 c 128,-1,124
 210 196 210 196 210 219 c 256,125,126
 210 242 210 242 196.5 256 c 128,-1,127
 183 270 183 270 159 270 c 256,128,129
 136 270 136 270 122.5 256 c 128,-1,130
 109 242 109 242 109 219 c 256,119,120
EndSplineSet
Fore
SplineSet
138 -104 m 0,0,1
 116 -104 116 -104 102.5 -115.5 c 128,-1,2
 89 -127 89 -127 89 -149 c 0,3,4
 89 -172 89 -172 102 -183.5 c 128,-1,5
 115 -195 115 -195 134 -195 c 0,6,7
 181 -195 181 -195 211 -138 c 1,8,9
 170 -104 170 -104 138 -104 c 0,0,1
367 -192 m 1,10,11
 352 -207 352 -207 332 -222 c 128,-1,12
 312 -237 312 -237 301 -243 c 1,13,14
 277 -203 277 -203 247 -174 c 1,15,16
 222 -204 222 -204 195.5 -220.5 c 128,-1,17
 169 -237 169 -237 134 -237 c 0,18,19
 92 -237 92 -237 66.5 -214.5 c 128,-1,20
 41 -192 41 -192 41 -150 c 0,21,22
 41 -108 41 -108 66.5 -85 c 128,-1,23
 92 -62 92 -62 136 -62 c 0,24,25
 184 -62 184 -62 232 -97 c 1,26,27
 243 -72 243 -72 258 -24 c 1,28,-1
 325 -48 l 1,29,30
 303 -96 303 -96 276 -135 c 1,31,32
 284 -143 284 -143 313 -179 c 1,33,34
 332 -168 332 -168 361 -137 c 1,35,36
 414 -161 414 -161 452 -190 c 1,37,-1
 452 -135 l 1,38,39
 450 -136 450 -136 441 -136 c 0,40,41
 416 -136 416 -136 400.5 -121.5 c 128,-1,42
 385 -107 385 -107 385 -81 c 256,43,44
 385 -55 385 -55 401.5 -40 c 128,-1,45
 418 -25 418 -25 448 -25 c 0,46,47
 479 -25 479 -25 496.5 -40 c 128,-1,48
 514 -55 514 -55 514 -82 c 2,49,-1
 514 -214 l 1,50,-1
 463 -254 l 1,51,-1
 452 -254 l 1,52,53
 409 -215 409 -215 367 -192 c 1,10,11
420 -81 m 0,54,55
 420 -105 420 -105 445 -105 c 0,56,57
 469 -105 469 -105 469 -81 c 0,58,59
 469 -56 469 -56 445 -56 c 0,60,61
 420 -56 420 -56 420 -81 c 0,54,55
63 389 m 2,62,63
 63 475 63 475 99 512.5 c 128,-1,64
 135 550 135 550 217 550 c 0,65,66
 265 550 265 550 385 539 c 1,67,-1
 419 536 l 1,68,69
 468 536 468 536 496 557 c 2,70,-1
 514 570 l 1,71,-1
 534 548 l 1,72,73
 521 534 521 534 509 520 c 128,-1,74
 497 506 497 506 479.5 495.5 c 128,-1,75
 462 485 462 485 439 478.5 c 128,-1,76
 416 472 416 472 382 472 c 2,77,-1
 347 474 l 1,78,79
 231 483 231 483 215 483 c 0,80,81
 148 483 148 483 123.5 463.5 c 128,-1,82
 99 444 99 444 99 398 c 1,83,-1
 286 398 l 2,84,85
 392 398 392 398 442.5 355.5 c 128,-1,86
 493 313 493 313 493 222 c 2,87,-1
 493 153 l 2,88,89
 493 64 493 64 464 27 c 128,-1,90
 435 -10 435 -10 365 -10 c 0,91,92
 317 -10 317 -10 290 3 c 128,-1,93
 263 16 263 16 244.5 46.5 c 128,-1,94
 226 77 226 77 209 136 c 1,95,96
 184 126 184 126 158 126 c 0,97,98
 110 126 110 126 84.5 150.5 c 128,-1,99
 59 175 59 175 59 219 c 0,100,101
 59 262 59 262 85 287.5 c 128,-1,102
 111 313 111 313 158 313 c 0,103,104
 202 313 202 313 229 285.5 c 128,-1,105
 256 258 256 258 276 194 c 2,106,-1
 304 103 l 2,107,108
 316 64 316 64 329.5 47.5 c 128,-1,109
 343 31 343 31 364 31 c 0,110,111
 390 31 390 31 400.5 53.5 c 128,-1,112
 411 76 411 76 411 131 c 2,113,-1
 411 213 l 2,114,115
 411 290 411 290 376 322.5 c 128,-1,116
 341 355 341 355 262 355 c 2,117,-1
 63 355 l 1,118,-1
 63 389 l 2,62,63
109 219 m 256,119,120
 109 196 109 196 122.5 182.5 c 128,-1,121
 136 169 136 169 159 169 c 256,122,123
 182 169 182 169 196 182.5 c 128,-1,124
 210 196 210 196 210 219 c 256,125,126
 210 242 210 242 196.5 256 c 128,-1,127
 183 270 183 270 159 270 c 256,128,129
 136 270 136 270 122.5 256 c 128,-1,130
 109 242 109 242 109 219 c 256,119,120
EndSplineSet
Substitution2: "Single Substitution lookup 9 subtable" uni0E10.alt1
EndChar

StartChar: uni0E10.alt1
Encoding: 65538 -1 21
Width: 562
GlyphClass: 2
Flags: W
AnchorPoint: "Anchor-1" 493 0 basechar 0
AnchorPoint: "Anchor-0" 493 0 basechar 0
LayerCount: 2
Back
SplineSet
63 389 m 2,0,1
 63 475 63 475 99 512.5 c 128,-1,2
 135 550 135 550 217 550 c 0,3,4
 265 550 265 550 385 539 c 1,5,-1
 419 536 l 1,6,7
 468 536 468 536 496 557 c 2,8,-1
 514 570 l 1,9,-1
 534 548 l 1,10,11
 521 534 521 534 509 520 c 128,-1,12
 497 506 497 506 479.5 495.5 c 128,-1,13
 462 485 462 485 439 478.5 c 128,-1,14
 416 472 416 472 382 472 c 2,15,-1
 347 474 l 1,16,17
 231 483 231 483 215 483 c 0,18,19
 148 483 148 483 123.5 463.5 c 128,-1,20
 99 444 99 444 99 398 c 1,21,-1
 286 398 l 2,22,23
 392 398 392 398 442.5 355.5 c 128,-1,24
 493 313 493 313 493 222 c 2,25,-1
 493 153 l 2,26,27
 493 64 493 64 464 27 c 128,-1,28
 435 -10 435 -10 365 -10 c 0,29,30
 317 -10 317 -10 290 3 c 128,-1,31
 263 16 263 16 244.5 46.5 c 128,-1,32
 226 77 226 77 209 136 c 1,33,34
 184 126 184 126 158 126 c 0,35,36
 110 126 110 126 84.5 150.5 c 128,-1,37
 59 175 59 175 59 219 c 0,38,39
 59 262 59 262 85 287.5 c 128,-1,40
 111 313 111 313 158 313 c 0,41,42
 202 313 202 313 229 285.5 c 128,-1,43
 256 258 256 258 276 194 c 2,44,-1
 304 103 l 2,45,46
 316 64 316 64 329.5 47.5 c 128,-1,47
 343 31 343 31 364 31 c 0,48,49
 390 31 390 31 400.5 53.5 c 128,-1,50
 411 76 411 76 411 131 c 2,51,-1
 411 213 l 2,52,53
 411 290 411 290 376 322.5 c 128,-1,54
 341 355 341 355 262 355 c 2,55,-1
 63 355 l 1,56,-1
 63 389 l 2,0,1
109 219 m 256,57,58
 109 196 109 196 122.5 182.5 c 128,-1,59
 136 169 136 169 159 169 c 256,60,61
 182 169 182 169 196 182.5 c 128,-1,62
 210 196 210 196 210 219 c 256,63,64
 210 242 210 242 196.5 256 c 128,-1,65
 183 270 183 270 159 270 c 256,66,67
 136 270 136 270 122.5 256 c 128,-1,68
 109 242 109 242 109 219 c 256,57,58
EndSplineSet
Fore
SplineSet
63 389 m 2,0,1
 63 475 63 475 99 512.5 c 128,-1,2
 135 550 135 550 217 550 c 0,3,4
 265 550 265 550 385 539 c 1,5,-1
 419 536 l 1,6,7
 468 536 468 536 496 557 c 2,8,-1
 514 570 l 1,9,-1
 534 548 l 1,10,11
 521 534 521 534 509 520 c 128,-1,12
 497 506 497 506 479.5 495.5 c 128,-1,13
 462 485 462 485 439 478.5 c 128,-1,14
 416 472 416 472 382 472 c 2,15,-1
 347 474 l 1,16,17
 231 483 231 483 215 483 c 0,18,19
 148 483 148 483 123.5 463.5 c 128,-1,20
 99 444 99 444 99 398 c 1,21,-1
 286 398 l 2,22,23
 392 398 392 398 442.5 355.5 c 128,-1,24
 493 313 493 313 493 222 c 2,25,-1
 493 153 l 2,26,27
 493 64 493 64 464 27 c 128,-1,28
 435 -10 435 -10 365 -10 c 0,29,30
 317 -10 317 -10 290 3 c 128,-1,31
 263 16 263 16 244.5 46.5 c 128,-1,32
 226 77 226 77 209 136 c 1,33,34
 184 126 184 126 158 126 c 0,35,36
 110 126 110 126 84.5 150.5 c 128,-1,37
 59 175 59 175 59 219 c 0,38,39
 59 262 59 262 85 287.5 c 128,-1,40
 111 313 111 313 158 313 c 0,41,42
 202 313 202 313 229 285.5 c 128,-1,43
 256 258 256 258 276 194 c 2,44,-1
 304 103 l 2,45,46
 316 64 316 64 329.5 47.5 c 128,-1,47
 343 31 343 31 364 31 c 0,48,49
 390 31 390 31 400.5 53.5 c 128,-1,50
 411 76 411 76 411 131 c 2,51,-1
 411 213 l 2,52,53
 411 290 411 290 376 322.5 c 128,-1,54
 341 355 341 355 262 355 c 2,55,-1
 63 355 l 1,56,-1
 63 389 l 2,0,1
109 219 m 256,57,58
 109 196 109 196 122.5 182.5 c 128,-1,59
 136 169 136 169 159 169 c 256,60,61
 182 169 182 169 196 182.5 c 128,-1,62
 210 196 210 196 210 219 c 256,63,64
 210 242 210 242 196.5 256 c 128,-1,65
 183 270 183 270 159 270 c 256,66,67
 136 270 136 270 122.5 256 c 128,-1,68
 109 242 109 242 109 219 c 256,57,58
EndSplineSet
EndChar

StartChar: uni0E11
Encoding: 3601 3601 22
Width: 736
GlyphClass: 2
Flags: W
AnchorPoint: "Anchor-1" 654 0 basechar 0
AnchorPoint: "Anchor-0" 654 0 basechar 0
LayerCount: 2
Back
SplineSet
575 0 m 1,0,-1
 575 452 l 2,1,2
 575 494 575 494 557 494 c 0,3,4
 546 494 546 494 535.5 478.5 c 128,-1,5
 525 463 525 463 511 430 c 2,6,-1
 335 0 l 1,7,-1
 235 0 l 1,8,-1
 235 241 l 2,9,10
 235 304 235 304 254 342 c 128,-1,11
 273 380 273 380 314 406 c 1,12,13
 312 434 312 434 301 459.5 c 128,-1,14
 290 485 290 485 274 498 c 1,15,-1
 212 444 l 1,16,-1
 141 507 l 1,17,18
 92 485 92 485 82 413 c 1,19,20
 91 424 91 424 110 431.5 c 128,-1,21
 129 439 129 439 147 439 c 0,22,23
 183 439 183 439 204.5 417 c 128,-1,24
 226 395 226 395 226 356 c 0,25,26
 226 318 226 318 202.5 295.5 c 128,-1,27
 179 273 179 273 137 273 c 0,28,29
 84 273 84 273 56.5 303.5 c 128,-1,30
 29 334 29 334 29 388 c 0,31,32
 29 448 29 448 61 495 c 128,-1,33
 93 542 93 542 146 557 c 1,34,-1
 212 497 l 1,35,-1
 278 557 l 1,36,37
 325 541 325 541 353.5 499.5 c 128,-1,38
 382 458 382 458 386 405 c 1,39,40
 359 384 359 384 344.5 363 c 128,-1,41
 330 342 330 342 323.5 318 c 128,-1,42
 317 294 317 294 317 244 c 2,43,-1
 317 86 l 1,44,-1
 462 443 l 2,45,46
 489 511 489 511 513.5 535.5 c 128,-1,47
 538 560 538 560 577 560 c 0,48,49
 618 560 618 560 637.5 535 c 128,-1,50
 657 510 657 510 657 452 c 2,51,-1
 657 58 l 1,52,-1
 608 0 l 1,53,-1
 575 0 l 1,0,-1
180 356 m 0,54,55
 180 375 180 375 168 386.5 c 128,-1,56
 156 398 156 398 136 398 c 0,57,58
 117 398 117 398 105 386.5 c 128,-1,59
 93 375 93 375 93 356 c 0,60,61
 93 336 93 336 105 324.5 c 128,-1,62
 117 313 117 313 136 313 c 0,63,64
 156 313 156 313 168 324.5 c 128,-1,65
 180 336 180 336 180 356 c 0,54,55
EndSplineSet
Fore
SplineSet
575 0 m 1,0,-1
 575 452 l 2,1,2
 575 494 575 494 557 494 c 0,3,4
 546 494 546 494 535.5 478.5 c 128,-1,5
 525 463 525 463 511 430 c 2,6,-1
 335 0 l 1,7,-1
 235 0 l 1,8,-1
 235 241 l 2,9,10
 235 304 235 304 254 342 c 128,-1,11
 273 380 273 380 314 406 c 1,12,13
 312 434 312 434 301 459.5 c 128,-1,14
 290 485 290 485 274 498 c 1,15,-1
 212 444 l 1,16,-1
 141 507 l 1,17,18
 92 485 92 485 82 413 c 1,19,20
 91 424 91 424 110 431.5 c 128,-1,21
 129 439 129 439 147 439 c 0,22,23
 183 439 183 439 204.5 417 c 128,-1,24
 226 395 226 395 226 356 c 0,25,26
 226 318 226 318 202.5 295.5 c 128,-1,27
 179 273 179 273 137 273 c 0,28,29
 84 273 84 273 56.5 303.5 c 128,-1,30
 29 334 29 334 29 388 c 0,31,32
 29 448 29 448 61 495 c 128,-1,33
 93 542 93 542 146 557 c 1,34,-1
 212 497 l 1,35,-1
 278 557 l 1,36,37
 325 541 325 541 353.5 499.5 c 128,-1,38
 382 458 382 458 386 405 c 1,39,40
 359 384 359 384 344.5 363 c 128,-1,41
 330 342 330 342 323.5 318 c 128,-1,42
 317 294 317 294 317 244 c 2,43,-1
 317 86 l 1,44,-1
 462 443 l 2,45,46
 489 511 489 511 513.5 535.5 c 128,-1,47
 538 560 538 560 577 560 c 0,48,49
 618 560 618 560 637.5 535 c 128,-1,50
 657 510 657 510 657 452 c 2,51,-1
 657 58 l 1,52,-1
 608 0 l 1,53,-1
 575 0 l 1,0,-1
180 356 m 0,54,55
 180 375 180 375 168 386.5 c 128,-1,56
 156 398 156 398 136 398 c 0,57,58
 117 398 117 398 105 386.5 c 128,-1,59
 93 375 93 375 93 356 c 0,60,61
 93 336 93 336 105 324.5 c 128,-1,62
 117 313 117 313 136 313 c 0,63,64
 156 313 156 313 168 324.5 c 128,-1,65
 180 336 180 336 180 356 c 0,54,55
EndSplineSet
EndChar

StartChar: uni0E12
Encoding: 3602 3602 23
Width: 857
GlyphClass: 2
Flags: W
AnchorPoint: "Anchor-1" 781 0 basechar 0
AnchorPoint: "Anchor-0" 781 0 basechar 0
LayerCount: 2
Back
SplineSet
544 193 m 1,0,1
 593 182 593 182 629.5 155.5 c 128,-1,2
 666 129 666 129 696 94 c 1,3,-1
 696 492 l 1,4,-1
 745 550 l 1,5,-1
 778 550 l 1,6,-1
 778 0 l 1,7,-1
 696 0 l 1,8,9
 654 68 654 68 618 102.5 c 128,-1,10
 582 137 582 137 544 151 c 1,11,-1
 544 103 l 2,12,13
 544 47 544 47 518 19 c 128,-1,14
 492 -9 492 -9 435 -9 c 0,15,16
 386 -9 386 -9 361 15 c 128,-1,17
 336 39 336 39 336 79 c 0,18,19
 336 127 336 127 369 158 c 128,-1,20
 402 189 402 189 462 196 c 1,21,-1
 462 348 l 2,22,23
 462 469 462 469 388 504 c 1,24,-1
 302 427 l 1,25,-1
 215 504 l 1,26,27
 172 487 172 487 149 452 c 128,-1,28
 126 417 126 417 126 370 c 0,29,30
 126 339 126 339 134 305 c 128,-1,31
 142 271 142 271 152 235 c 128,-1,32
 162 199 162 199 170 160 c 128,-1,33
 178 121 178 121 178 80 c 1,34,-1
 245 144 l 2,35,36
 287 184 287 184 307 225 c 1,37,38
 257 225 257 225 230 249 c 128,-1,39
 203 273 203 273 203 318 c 0,40,41
 203 362 203 362 228.5 386.5 c 128,-1,42
 254 411 254 411 302 411 c 0,43,44
 350 411 350 411 375.5 385.5 c 128,-1,45
 401 360 401 360 401 310 c 0,46,47
 401 261 401 261 378 221 c 128,-1,48
 355 181 355 181 315 143 c 0,49,50
 199 34 199 34 168 0 c 1,51,-1
 96 0 l 1,52,-1
 96 68 l 2,53,54
 96 161 96 161 76 234 c 0,55,56
 64 277 64 277 59.5 303 c 128,-1,57
 55 329 55 329 55 356 c 0,58,59
 55 434 55 434 97.5 487.5 c 128,-1,60
 140 541 140 541 216 558 c 1,61,-1
 302 482 l 1,62,-1
 388 558 l 1,63,64
 464 540 464 540 504 485 c 128,-1,65
 544 430 544 430 544 340 c 2,66,-1
 544 193 l 1,0,1
382 79 m 0,67,68
 382 56 382 56 394.5 44 c 128,-1,69
 407 32 407 32 424 32 c 0,70,71
 462 32 462 32 462 77 c 2,72,-1
 462 157 l 1,73,74
 425 151 425 151 403.5 130.5 c 128,-1,75
 382 110 382 110 382 79 c 0,67,68
353 317 m 256,76,77
 353 340 353 340 340 354 c 128,-1,78
 327 368 327 368 303 368 c 256,79,80
 280 368 280 368 266 354 c 128,-1,81
 252 340 252 340 252 317 c 256,82,83
 252 294 252 294 266 280.5 c 128,-1,84
 280 267 280 267 303 267 c 256,85,86
 326 267 326 267 339.5 280.5 c 128,-1,87
 353 294 353 294 353 317 c 256,76,77
EndSplineSet
Fore
SplineSet
544 193 m 1,0,1
 593 182 593 182 629.5 155.5 c 128,-1,2
 666 129 666 129 696 94 c 1,3,-1
 696 492 l 1,4,-1
 745 550 l 1,5,-1
 778 550 l 1,6,-1
 778 0 l 1,7,-1
 696 0 l 1,8,9
 654 68 654 68 618 102.5 c 128,-1,10
 582 137 582 137 544 151 c 1,11,-1
 544 103 l 2,12,13
 544 47 544 47 518 19 c 128,-1,14
 492 -9 492 -9 435 -9 c 0,15,16
 386 -9 386 -9 361 15 c 128,-1,17
 336 39 336 39 336 79 c 0,18,19
 336 127 336 127 369 158 c 128,-1,20
 402 189 402 189 462 196 c 1,21,-1
 462 348 l 2,22,23
 462 469 462 469 388 504 c 1,24,-1
 302 427 l 1,25,-1
 215 504 l 1,26,27
 172 487 172 487 149 452 c 128,-1,28
 126 417 126 417 126 370 c 0,29,30
 126 339 126 339 134 305 c 128,-1,31
 142 271 142 271 152 235 c 128,-1,32
 162 199 162 199 170 160 c 128,-1,33
 178 121 178 121 178 80 c 1,34,-1
 245 144 l 2,35,36
 287 184 287 184 307 225 c 1,37,38
 257 225 257 225 230 249 c 128,-1,39
 203 273 203 273 203 318 c 0,40,41
 203 362 203 362 228.5 386.5 c 128,-1,42
 254 411 254 411 302 411 c 0,43,44
 350 411 350 411 375.5 385.5 c 128,-1,45
 401 360 401 360 401 310 c 0,46,47
 401 261 401 261 378 221 c 128,-1,48
 355 181 355 181 315 143 c 0,49,50
 199 34 199 34 168 0 c 1,51,-1
 96 0 l 1,52,-1
 96 68 l 2,53,54
 96 161 96 161 76 234 c 0,55,56
 64 277 64 277 59.5 303 c 128,-1,57
 55 329 55 329 55 356 c 0,58,59
 55 434 55 434 97.5 487.5 c 128,-1,60
 140 541 140 541 216 558 c 1,61,-1
 302 482 l 1,62,-1
 388 558 l 1,63,64
 464 540 464 540 504 485 c 128,-1,65
 544 430 544 430 544 340 c 2,66,-1
 544 193 l 1,0,1
382 79 m 0,67,68
 382 56 382 56 394.5 44 c 128,-1,69
 407 32 407 32 424 32 c 0,70,71
 462 32 462 32 462 77 c 2,72,-1
 462 157 l 1,73,74
 425 151 425 151 403.5 130.5 c 128,-1,75
 382 110 382 110 382 79 c 0,67,68
353 317 m 256,76,77
 353 340 353 340 340 354 c 128,-1,78
 327 368 327 368 303 368 c 256,79,80
 280 368 280 368 266 354 c 128,-1,81
 252 340 252 340 252 317 c 256,82,83
 252 294 252 294 266 280.5 c 128,-1,84
 280 267 280 267 303 267 c 256,85,86
 326 267 326 267 339.5 280.5 c 128,-1,87
 353 294 353 294 353 317 c 256,76,77
EndSplineSet
EndChar

StartChar: uni0E13
Encoding: 3603 3603 24
Width: 931
GlyphClass: 2
Flags: W
AnchorPoint: "Anchor-1" 781 0 basechar 0
AnchorPoint: "Anchor-0" 781 0 basechar 0
LayerCount: 2
Back
SplineSet
230 84 m 256,0,1
 230 107 230 107 217 120.5 c 128,-1,2
 204 134 204 134 180 134 c 256,3,4
 157 134 157 134 143 120.5 c 128,-1,5
 129 107 129 107 129 84 c 256,6,7
 129 61 129 61 143 47 c 128,-1,8
 157 33 157 33 180 33 c 256,9,10
 203 33 203 33 216.5 47 c 128,-1,11
 230 61 230 61 230 84 c 256,0,1
856 79 m 0,12,13
 856 111 856 111 834.5 131 c 128,-1,14
 813 151 813 151 776 157 c 1,15,-1
 776 77 l 2,16,17
 776 55 776 55 786 43.5 c 128,-1,18
 796 32 796 32 814 32 c 0,19,20
 831 32 831 32 843.5 44 c 128,-1,21
 856 56 856 56 856 79 c 0,12,13
694 492 m 1,22,-1
 743 550 l 1,23,-1
 776 550 l 1,24,-1
 776 196 l 1,25,26
 836 189 836 189 869 158 c 128,-1,27
 902 127 902 127 902 79 c 0,28,29
 902 39 902 39 877 15 c 128,-1,30
 852 -9 852 -9 803 -9 c 0,31,32
 745 -9 745 -9 719.5 19 c 128,-1,33
 694 47 694 47 694 103 c 2,34,-1
 694 151 l 1,35,36
 585 111 585 111 517 0 c 1,37,-1
 435 0 l 1,38,-1
 435 349 l 2,39,40
 435 440 435 440 399.5 478 c 128,-1,41
 364 516 364 516 290 516 c 0,42,43
 227 516 227 516 190 483.5 c 128,-1,44
 153 451 153 451 149 389 c 1,45,46
 182 384 182 384 216 365 c 128,-1,47
 250 346 250 346 269 323 c 1,48,-1
 269 315 l 1,49,50
 212 304 212 304 187.5 273.5 c 128,-1,51
 163 243 163 243 163 191 c 2,52,-1
 163 175 l 1,53,54
 168 177 168 177 187 177 c 0,55,56
 231 177 231 177 255.5 152.5 c 128,-1,57
 280 128 280 128 280 84 c 0,58,59
 280 40 280 40 254.5 15.5 c 128,-1,60
 229 -9 229 -9 181 -9 c 0,61,62
 133 -9 133 -9 107 15.5 c 128,-1,63
 81 40 81 40 81 84 c 2,64,-1
 81 192 l 2,65,66
 81 304 81 304 189 327 c 1,67,68
 170 343 170 343 129.5 354.5 c 128,-1,69
 89 366 89 366 65 366 c 1,70,71
 72 466 72 466 129.5 513 c 128,-1,72
 187 560 187 560 298 560 c 0,73,74
 410 560 410 560 463.5 508 c 128,-1,75
 517 456 517 456 517 340 c 2,76,-1
 517 82 l 1,77,78
 588 163 588 163 694 189 c 1,79,-1
 694 492 l 1,22,-1
EndSplineSet
Fore
SplineSet
230 84 m 256,0,1
 230 107 230 107 217 120.5 c 128,-1,2
 204 134 204 134 180 134 c 256,3,4
 157 134 157 134 143 120.5 c 128,-1,5
 129 107 129 107 129 84 c 256,6,7
 129 61 129 61 143 47 c 128,-1,8
 157 33 157 33 180 33 c 256,9,10
 203 33 203 33 216.5 47 c 128,-1,11
 230 61 230 61 230 84 c 256,0,1
856 79 m 0,12,13
 856 111 856 111 834.5 131 c 128,-1,14
 813 151 813 151 776 157 c 1,15,-1
 776 77 l 2,16,17
 776 55 776 55 786 43.5 c 128,-1,18
 796 32 796 32 814 32 c 0,19,20
 831 32 831 32 843.5 44 c 128,-1,21
 856 56 856 56 856 79 c 0,12,13
694 492 m 1,22,-1
 743 550 l 1,23,-1
 776 550 l 1,24,-1
 776 196 l 1,25,26
 836 189 836 189 869 158 c 128,-1,27
 902 127 902 127 902 79 c 0,28,29
 902 39 902 39 877 15 c 128,-1,30
 852 -9 852 -9 803 -9 c 0,31,32
 745 -9 745 -9 719.5 19 c 128,-1,33
 694 47 694 47 694 103 c 2,34,-1
 694 151 l 1,35,36
 585 111 585 111 517 0 c 1,37,-1
 435 0 l 1,38,-1
 435 349 l 2,39,40
 435 440 435 440 399.5 478 c 128,-1,41
 364 516 364 516 290 516 c 0,42,43
 227 516 227 516 190 483.5 c 128,-1,44
 153 451 153 451 149 389 c 1,45,46
 182 384 182 384 216 365 c 128,-1,47
 250 346 250 346 269 323 c 1,48,-1
 269 315 l 1,49,50
 212 304 212 304 187.5 273.5 c 128,-1,51
 163 243 163 243 163 191 c 2,52,-1
 163 175 l 1,53,54
 168 177 168 177 187 177 c 0,55,56
 231 177 231 177 255.5 152.5 c 128,-1,57
 280 128 280 128 280 84 c 0,58,59
 280 40 280 40 254.5 15.5 c 128,-1,60
 229 -9 229 -9 181 -9 c 0,61,62
 133 -9 133 -9 107 15.5 c 128,-1,63
 81 40 81 40 81 84 c 2,64,-1
 81 192 l 2,65,66
 81 304 81 304 189 327 c 1,67,68
 170 343 170 343 129.5 354.5 c 128,-1,69
 89 366 89 366 65 366 c 1,70,71
 72 466 72 466 129.5 513 c 128,-1,72
 187 560 187 560 298 560 c 0,73,74
 410 560 410 560 463.5 508 c 128,-1,75
 517 456 517 456 517 340 c 2,76,-1
 517 82 l 1,77,78
 588 163 588 163 694 189 c 1,79,-1
 694 492 l 1,22,-1
EndSplineSet
EndChar

StartChar: uni0E14
Encoding: 3604 3604 25
Width: 624
GlyphClass: 2
Flags: W
AnchorPoint: "Anchor-1" 547 0 basechar 0
AnchorPoint: "Anchor-0" 547 0 basechar 0
LayerCount: 2
Back
SplineSet
96 0 m 1,0,-1
 96 68 l 2,1,2
 96 161 96 161 76 234 c 0,3,4
 64 277 64 277 59.5 303 c 128,-1,5
 55 329 55 329 55 356 c 0,6,7
 55 451 55 451 120.5 505.5 c 128,-1,8
 186 560 186 560 302 560 c 0,9,10
 423 560 423 560 483.5 505.5 c 128,-1,11
 544 451 544 451 544 340 c 2,12,-1
 544 58 l 1,13,-1
 495 0 l 1,14,-1
 462 0 l 1,15,-1
 462 348 l 2,16,17
 462 515 462 515 302 515 c 0,18,19
 220 515 220 515 173 476 c 128,-1,20
 126 437 126 437 126 370 c 0,21,22
 126 339 126 339 134 305.5 c 128,-1,23
 142 272 142 272 152 235 c 128,-1,24
 162 198 162 198 170 156.5 c 128,-1,25
 178 115 178 115 178 69 c 1,26,27
 202 90 202 90 241 118 c 0,28,29
 265 136 265 136 284 152.5 c 128,-1,30
 303 169 303 169 311 185 c 1,31,32
 261 185 261 185 234 209 c 128,-1,33
 207 233 207 233 207 278 c 0,34,35
 207 322 207 322 233 346.5 c 128,-1,36
 259 371 259 371 306 371 c 256,37,38
 353 371 353 371 379 345.5 c 128,-1,39
 405 320 405 320 405 270 c 0,40,41
 405 219 405 219 382 182.5 c 128,-1,42
 359 146 359 146 304 105 c 0,43,44
 267 77 267 77 231.5 50.5 c 128,-1,45
 196 24 196 24 168 0 c 1,46,-1
 96 0 l 1,0,-1
357 277 m 256,47,48
 357 300 357 300 344 314 c 128,-1,49
 331 328 331 328 307 328 c 256,50,51
 284 328 284 328 270 314 c 128,-1,52
 256 300 256 300 256 277 c 256,53,54
 256 254 256 254 270 240.5 c 128,-1,55
 284 227 284 227 307 227 c 256,56,57
 330 227 330 227 343.5 240.5 c 128,-1,58
 357 254 357 254 357 277 c 256,47,48
EndSplineSet
Fore
SplineSet
96 0 m 1,0,-1
 96 68 l 2,1,2
 96 161 96 161 76 234 c 0,3,4
 64 277 64 277 59.5 303 c 128,-1,5
 55 329 55 329 55 356 c 0,6,7
 55 451 55 451 120.5 505.5 c 128,-1,8
 186 560 186 560 302 560 c 0,9,10
 423 560 423 560 483.5 505.5 c 128,-1,11
 544 451 544 451 544 340 c 2,12,-1
 544 58 l 1,13,-1
 495 0 l 1,14,-1
 462 0 l 1,15,-1
 462 348 l 2,16,17
 462 515 462 515 302 515 c 0,18,19
 220 515 220 515 173 476 c 128,-1,20
 126 437 126 437 126 370 c 0,21,22
 126 339 126 339 134 305.5 c 128,-1,23
 142 272 142 272 152 235 c 128,-1,24
 162 198 162 198 170 156.5 c 128,-1,25
 178 115 178 115 178 69 c 1,26,27
 202 90 202 90 241 118 c 0,28,29
 265 136 265 136 284 152.5 c 128,-1,30
 303 169 303 169 311 185 c 1,31,32
 261 185 261 185 234 209 c 128,-1,33
 207 233 207 233 207 278 c 0,34,35
 207 322 207 322 233 346.5 c 128,-1,36
 259 371 259 371 306 371 c 256,37,38
 353 371 353 371 379 345.5 c 128,-1,39
 405 320 405 320 405 270 c 0,40,41
 405 219 405 219 382 182.5 c 128,-1,42
 359 146 359 146 304 105 c 0,43,44
 267 77 267 77 231.5 50.5 c 128,-1,45
 196 24 196 24 168 0 c 1,46,-1
 96 0 l 1,0,-1
357 277 m 256,47,48
 357 300 357 300 344 314 c 128,-1,49
 331 328 331 328 307 328 c 256,50,51
 284 328 284 328 270 314 c 128,-1,52
 256 300 256 300 256 277 c 256,53,54
 256 254 256 254 270 240.5 c 128,-1,55
 284 227 284 227 307 227 c 256,56,57
 330 227 330 227 343.5 240.5 c 128,-1,58
 357 254 357 254 357 277 c 256,47,48
EndSplineSet
EndChar

StartChar: uni0E15
Encoding: 3605 3605 26
Width: 624
GlyphClass: 2
Flags: W
AnchorPoint: "Anchor-1" 547 0 basechar 0
AnchorPoint: "Anchor-0" 547 0 basechar 0
LayerCount: 2
Back
SplineSet
55 356 m 0,0,1
 55 434 55 434 97.5 487.5 c 128,-1,2
 140 541 140 541 216 558 c 1,3,-1
 302 482 l 1,4,-1
 388 558 l 1,5,6
 464 540 464 540 504 485 c 128,-1,7
 544 430 544 430 544 340 c 2,8,-1
 544 58 l 1,9,-1
 495 0 l 1,10,-1
 462 0 l 1,11,-1
 462 348 l 2,12,13
 462 469 462 469 388 504 c 1,14,-1
 302 427 l 1,15,-1
 215 504 l 1,16,17
 172 487 172 487 149 452 c 128,-1,18
 126 417 126 417 126 370 c 0,19,20
 126 339 126 339 134 305.5 c 128,-1,21
 142 272 142 272 152 235 c 128,-1,22
 162 198 162 198 170 156.5 c 128,-1,23
 178 115 178 115 178 69 c 1,24,25
 202 90 202 90 241 118 c 0,26,27
 265 136 265 136 284 152.5 c 128,-1,28
 303 169 303 169 311 185 c 1,29,30
 261 185 261 185 234 209 c 128,-1,31
 207 233 207 233 207 278 c 0,32,33
 207 322 207 322 233 346.5 c 128,-1,34
 259 371 259 371 306 371 c 256,35,36
 353 371 353 371 379 345.5 c 128,-1,37
 405 320 405 320 405 270 c 0,38,39
 405 219 405 219 382 182.5 c 128,-1,40
 359 146 359 146 304 105 c 0,41,42
 267 77 267 77 231.5 50.5 c 128,-1,43
 196 24 196 24 168 0 c 1,44,-1
 96 0 l 1,45,-1
 96 68 l 2,46,47
 96 161 96 161 76 234 c 0,48,49
 64 277 64 277 59.5 303 c 128,-1,50
 55 329 55 329 55 356 c 0,0,1
357 277 m 256,51,52
 357 300 357 300 344 314 c 128,-1,53
 331 328 331 328 307 328 c 256,54,55
 284 328 284 328 270 314 c 128,-1,56
 256 300 256 300 256 277 c 256,57,58
 256 254 256 254 270 240.5 c 128,-1,59
 284 227 284 227 307 227 c 256,60,61
 330 227 330 227 343.5 240.5 c 128,-1,62
 357 254 357 254 357 277 c 256,51,52
EndSplineSet
Fore
SplineSet
55 356 m 0,0,1
 55 434 55 434 97.5 487.5 c 128,-1,2
 140 541 140 541 216 558 c 1,3,-1
 302 482 l 1,4,-1
 388 558 l 1,5,6
 464 540 464 540 504 485 c 128,-1,7
 544 430 544 430 544 340 c 2,8,-1
 544 58 l 1,9,-1
 495 0 l 1,10,-1
 462 0 l 1,11,-1
 462 348 l 2,12,13
 462 469 462 469 388 504 c 1,14,-1
 302 427 l 1,15,-1
 215 504 l 1,16,17
 172 487 172 487 149 452 c 128,-1,18
 126 417 126 417 126 370 c 0,19,20
 126 339 126 339 134 305.5 c 128,-1,21
 142 272 142 272 152 235 c 128,-1,22
 162 198 162 198 170 156.5 c 128,-1,23
 178 115 178 115 178 69 c 1,24,25
 202 90 202 90 241 118 c 0,26,27
 265 136 265 136 284 152.5 c 128,-1,28
 303 169 303 169 311 185 c 1,29,30
 261 185 261 185 234 209 c 128,-1,31
 207 233 207 233 207 278 c 0,32,33
 207 322 207 322 233 346.5 c 128,-1,34
 259 371 259 371 306 371 c 256,35,36
 353 371 353 371 379 345.5 c 128,-1,37
 405 320 405 320 405 270 c 0,38,39
 405 219 405 219 382 182.5 c 128,-1,40
 359 146 359 146 304 105 c 0,41,42
 267 77 267 77 231.5 50.5 c 128,-1,43
 196 24 196 24 168 0 c 1,44,-1
 96 0 l 1,45,-1
 96 68 l 2,46,47
 96 161 96 161 76 234 c 0,48,49
 64 277 64 277 59.5 303 c 128,-1,50
 55 329 55 329 55 356 c 0,0,1
357 277 m 256,51,52
 357 300 357 300 344 314 c 128,-1,53
 331 328 331 328 307 328 c 256,54,55
 284 328 284 328 270 314 c 128,-1,56
 256 300 256 300 256 277 c 256,57,58
 256 254 256 254 270 240.5 c 128,-1,59
 284 227 284 227 307 227 c 256,60,61
 330 227 330 227 343.5 240.5 c 128,-1,62
 357 254 357 254 357 277 c 256,51,52
EndSplineSet
EndChar

StartChar: uni0E16
Encoding: 3606 3606 27
Width: 597
GlyphClass: 2
Flags: W
AnchorPoint: "Anchor-1" 513 0 basechar 0
AnchorPoint: "Anchor-0" 513 0 basechar 0
LayerCount: 2
Back
SplineSet
163 175 m 1,0,1
 168 177 168 177 187 177 c 0,2,3
 231 177 231 177 255.5 152.5 c 128,-1,4
 280 128 280 128 280 84 c 0,5,6
 280 40 280 40 254.5 15.5 c 128,-1,7
 229 -9 229 -9 181 -9 c 0,8,9
 133 -9 133 -9 107 15.5 c 128,-1,10
 81 40 81 40 81 84 c 2,11,-1
 81 192 l 2,12,13
 81 304 81 304 189 327 c 1,14,15
 170 343 170 343 129.5 354.5 c 128,-1,16
 89 366 89 366 65 366 c 1,17,18
 72 466 72 466 129.5 513 c 128,-1,19
 187 560 187 560 298 560 c 0,20,21
 410 560 410 560 463.5 508 c 128,-1,22
 517 456 517 456 517 340 c 2,23,-1
 517 58 l 1,24,-1
 468 0 l 1,25,-1
 435 0 l 1,26,-1
 435 349 l 2,27,28
 435 440 435 440 399.5 478 c 128,-1,29
 364 516 364 516 290 516 c 0,30,31
 227 516 227 516 190 483.5 c 128,-1,32
 153 451 153 451 149 389 c 1,33,34
 182 384 182 384 216 365 c 128,-1,35
 250 346 250 346 269 323 c 1,36,-1
 269 315 l 1,37,38
 212 304 212 304 187.5 273.5 c 128,-1,39
 163 243 163 243 163 191 c 2,40,-1
 163 175 l 1,0,1
230 84 m 256,41,42
 230 107 230 107 217 120.5 c 128,-1,43
 204 134 204 134 180 134 c 256,44,45
 157 134 157 134 143 120.5 c 128,-1,46
 129 107 129 107 129 84 c 256,47,48
 129 61 129 61 143 47 c 128,-1,49
 157 33 157 33 180 33 c 256,50,51
 203 33 203 33 216.5 47 c 128,-1,52
 230 61 230 61 230 84 c 256,41,42
EndSplineSet
Fore
SplineSet
163 175 m 1,0,1
 168 177 168 177 187 177 c 0,2,3
 231 177 231 177 255.5 152.5 c 128,-1,4
 280 128 280 128 280 84 c 0,5,6
 280 40 280 40 254.5 15.5 c 128,-1,7
 229 -9 229 -9 181 -9 c 0,8,9
 133 -9 133 -9 107 15.5 c 128,-1,10
 81 40 81 40 81 84 c 2,11,-1
 81 192 l 2,12,13
 81 304 81 304 189 327 c 1,14,15
 170 343 170 343 129.5 354.5 c 128,-1,16
 89 366 89 366 65 366 c 1,17,18
 72 466 72 466 129.5 513 c 128,-1,19
 187 560 187 560 298 560 c 0,20,21
 410 560 410 560 463.5 508 c 128,-1,22
 517 456 517 456 517 340 c 2,23,-1
 517 58 l 1,24,-1
 468 0 l 1,25,-1
 435 0 l 1,26,-1
 435 349 l 2,27,28
 435 440 435 440 399.5 478 c 128,-1,29
 364 516 364 516 290 516 c 0,30,31
 227 516 227 516 190 483.5 c 128,-1,32
 153 451 153 451 149 389 c 1,33,34
 182 384 182 384 216 365 c 128,-1,35
 250 346 250 346 269 323 c 1,36,-1
 269 315 l 1,37,38
 212 304 212 304 187.5 273.5 c 128,-1,39
 163 243 163 243 163 191 c 2,40,-1
 163 175 l 1,0,1
230 84 m 256,41,42
 230 107 230 107 217 120.5 c 128,-1,43
 204 134 204 134 180 134 c 256,44,45
 157 134 157 134 143 120.5 c 128,-1,46
 129 107 129 107 129 84 c 256,47,48
 129 61 129 61 143 47 c 128,-1,49
 157 33 157 33 180 33 c 256,50,51
 203 33 203 33 216.5 47 c 128,-1,52
 230 61 230 61 230 84 c 256,41,42
EndSplineSet
EndChar

StartChar: uni0E17
Encoding: 3607 3607 28
Width: 641
GlyphClass: 2
Flags: W
AnchorPoint: "Anchor-1" 566 0 basechar 0
AnchorPoint: "Anchor-0" 566 0 basechar 0
LayerCount: 2
Back
SplineSet
139 370 m 1,0,1
 134 368 134 368 115 368 c 0,2,3
 71 368 71 368 46.5 392.5 c 128,-1,4
 22 417 22 417 22 461 c 0,5,6
 22 505 22 505 48 530 c 128,-1,7
 74 555 74 555 121 555 c 0,8,9
 169 555 169 555 195 530 c 128,-1,10
 221 505 221 505 221 461 c 2,11,-1
 221 215 l 1,12,-1
 223 215 l 1,13,-1
 329 443 l 2,14,15
 361 512 361 512 389 536 c 128,-1,16
 417 560 417 560 465 560 c 0,17,18
 561 560 561 560 561 452 c 2,19,-1
 561 58 l 1,20,-1
 512 0 l 1,21,-1
 479 0 l 1,22,-1
 479 452 l 2,23,24
 479 494 479 494 444 494 c 0,25,26
 423 494 423 494 408 477.5 c 128,-1,27
 393 461 393 461 372 417 c 2,28,-1
 221 98 l 1,29,-1
 221 0 l 1,30,-1
 139 0 l 1,31,-1
 139 370 l 1,0,1
72 461 m 256,32,33
 72 438 72 438 85.5 424.5 c 128,-1,34
 99 411 99 411 122 411 c 256,35,36
 145 411 145 411 159 424.5 c 128,-1,37
 173 438 173 438 173 461 c 256,38,39
 173 484 173 484 159.5 498 c 128,-1,40
 146 512 146 512 122 512 c 256,41,42
 99 512 99 512 85.5 498 c 128,-1,43
 72 484 72 484 72 461 c 256,32,33
EndSplineSet
Fore
SplineSet
139 370 m 1,0,1
 134 368 134 368 115 368 c 0,2,3
 71 368 71 368 46.5 392.5 c 128,-1,4
 22 417 22 417 22 461 c 0,5,6
 22 505 22 505 48 530 c 128,-1,7
 74 555 74 555 121 555 c 0,8,9
 169 555 169 555 195 530 c 128,-1,10
 221 505 221 505 221 461 c 2,11,-1
 221 215 l 1,12,-1
 223 215 l 1,13,-1
 329 443 l 2,14,15
 361 512 361 512 389 536 c 128,-1,16
 417 560 417 560 465 560 c 0,17,18
 561 560 561 560 561 452 c 2,19,-1
 561 58 l 1,20,-1
 512 0 l 1,21,-1
 479 0 l 1,22,-1
 479 452 l 2,23,24
 479 494 479 494 444 494 c 0,25,26
 423 494 423 494 408 477.5 c 128,-1,27
 393 461 393 461 372 417 c 2,28,-1
 221 98 l 1,29,-1
 221 0 l 1,30,-1
 139 0 l 1,31,-1
 139 370 l 1,0,1
72 461 m 256,32,33
 72 438 72 438 85.5 424.5 c 128,-1,34
 99 411 99 411 122 411 c 256,35,36
 145 411 145 411 159 424.5 c 128,-1,37
 173 438 173 438 173 461 c 256,38,39
 173 484 173 484 159.5 498 c 128,-1,40
 146 512 146 512 122 512 c 256,41,42
 99 512 99 512 85.5 498 c 128,-1,43
 72 484 72 484 72 461 c 256,32,33
EndSplineSet
EndChar

StartChar: uni0E18
Encoding: 3608 3608 29
Width: 567
GlyphClass: 2
Flags: W
AnchorPoint: "Anchor-1" 503 0 basechar 0
AnchorPoint: "Anchor-0" 503 0 basechar 0
LayerCount: 2
Back
SplineSet
416 213 m 2,0,1
 416 290 416 290 381 322.5 c 128,-1,2
 346 355 346 355 267 355 c 2,3,-1
 68 355 l 1,4,-1
 68 389 l 2,5,6
 68 480 68 480 100.5 515 c 128,-1,7
 133 550 133 550 212 550 c 0,8,9
 259 550 259 550 371 539 c 1,10,-1
 404 536 l 1,11,12
 452 536 452 536 481 557 c 2,13,-1
 499 570 l 1,14,-1
 519 548 l 1,15,16
 506 534 506 534 493.5 520 c 128,-1,17
 481 506 481 506 464 495.5 c 128,-1,18
 447 485 447 485 424 478.5 c 128,-1,19
 401 472 401 472 367 472 c 2,20,-1
 333 474 l 1,21,22
 225 483 225 483 210 483 c 0,23,24
 164 483 164 483 143 475 c 128,-1,25
 122 467 122 467 113 449 c 128,-1,26
 104 431 104 431 104 398 c 1,27,-1
 291 398 l 2,28,29
 397 398 397 398 447.5 355.5 c 128,-1,30
 498 313 498 313 498 222 c 2,31,-1
 498 173 l 2,32,33
 498 91 498 91 453.5 45.5 c 128,-1,34
 409 0 409 0 329 0 c 2,35,-1
 85 0 l 1,36,-1
 85 198 l 1,37,-1
 134 256 l 1,38,-1
 167 256 l 1,39,-1
 167 42 l 1,40,-1
 290 42 l 2,41,42
 416 42 416 42 416 189 c 2,43,-1
 416 213 l 2,0,1
EndSplineSet
Fore
SplineSet
416 213 m 2,0,1
 416 290 416 290 381 322.5 c 128,-1,2
 346 355 346 355 267 355 c 2,3,-1
 68 355 l 1,4,-1
 68 389 l 2,5,6
 68 480 68 480 100.5 515 c 128,-1,7
 133 550 133 550 212 550 c 0,8,9
 259 550 259 550 371 539 c 1,10,-1
 404 536 l 1,11,12
 452 536 452 536 481 557 c 2,13,-1
 499 570 l 1,14,-1
 519 548 l 1,15,16
 506 534 506 534 493.5 520 c 128,-1,17
 481 506 481 506 464 495.5 c 128,-1,18
 447 485 447 485 424 478.5 c 128,-1,19
 401 472 401 472 367 472 c 2,20,-1
 333 474 l 1,21,22
 225 483 225 483 210 483 c 0,23,24
 164 483 164 483 143 475 c 128,-1,25
 122 467 122 467 113 449 c 128,-1,26
 104 431 104 431 104 398 c 1,27,-1
 291 398 l 2,28,29
 397 398 397 398 447.5 355.5 c 128,-1,30
 498 313 498 313 498 222 c 2,31,-1
 498 173 l 2,32,33
 498 91 498 91 453.5 45.5 c 128,-1,34
 409 0 409 0 329 0 c 2,35,-1
 85 0 l 1,36,-1
 85 198 l 1,37,-1
 134 256 l 1,38,-1
 167 256 l 1,39,-1
 167 42 l 1,40,-1
 290 42 l 2,41,42
 416 42 416 42 416 189 c 2,43,-1
 416 213 l 2,0,1
EndSplineSet
EndChar

StartChar: uni0E19
Encoding: 3609 3609 30
Width: 634
GlyphClass: 2
Flags: W
AnchorPoint: "Anchor-1" 483 0 basechar 0
AnchorPoint: "Anchor-0" 483 0 basechar 0
LayerCount: 2
Back
SplineSet
72 461 m 256,0,1
 72 438 72 438 85.5 424.5 c 128,-1,2
 99 411 99 411 122 411 c 256,3,4
 145 411 145 411 159 424.5 c 128,-1,5
 173 438 173 438 173 461 c 256,6,7
 173 484 173 484 159.5 498 c 128,-1,8
 146 512 146 512 122 512 c 256,9,10
 99 512 99 512 85.5 498 c 128,-1,11
 72 484 72 484 72 461 c 256,0,1
560 79 m 0,12,13
 560 111 560 111 538.5 131 c 128,-1,14
 517 151 517 151 480 157 c 1,15,-1
 480 77 l 2,16,17
 480 55 480 55 490 43.5 c 128,-1,18
 500 32 500 32 518 32 c 0,19,20
 535 32 535 32 547.5 44 c 128,-1,21
 560 56 560 56 560 79 c 0,12,13
221 82 m 1,22,23
 292 163 292 163 398 189 c 1,24,-1
 398 492 l 1,25,-1
 447 550 l 1,26,-1
 480 550 l 1,27,-1
 480 196 l 1,28,29
 540 189 540 189 573 158 c 128,-1,30
 606 127 606 127 606 79 c 0,31,32
 606 39 606 39 581 15 c 128,-1,33
 556 -9 556 -9 507 -9 c 0,34,35
 450 -9 450 -9 424 19 c 128,-1,36
 398 47 398 47 398 103 c 2,37,-1
 398 151 l 1,38,39
 289 111 289 111 221 0 c 1,40,-1
 139 0 l 1,41,-1
 139 370 l 1,42,43
 134 368 134 368 115 368 c 0,44,45
 71 368 71 368 46.5 392.5 c 128,-1,46
 22 417 22 417 22 461 c 0,47,48
 22 505 22 505 48 530 c 128,-1,49
 74 555 74 555 121 555 c 0,50,51
 169 555 169 555 195 530 c 128,-1,52
 221 505 221 505 221 461 c 2,53,-1
 221 82 l 1,22,23
EndSplineSet
Fore
SplineSet
72 461 m 256,0,1
 72 438 72 438 85.5 424.5 c 128,-1,2
 99 411 99 411 122 411 c 256,3,4
 145 411 145 411 159 424.5 c 128,-1,5
 173 438 173 438 173 461 c 256,6,7
 173 484 173 484 159.5 498 c 128,-1,8
 146 512 146 512 122 512 c 256,9,10
 99 512 99 512 85.5 498 c 128,-1,11
 72 484 72 484 72 461 c 256,0,1
560 79 m 0,12,13
 560 111 560 111 538.5 131 c 128,-1,14
 517 151 517 151 480 157 c 1,15,-1
 480 77 l 2,16,17
 480 55 480 55 490 43.5 c 128,-1,18
 500 32 500 32 518 32 c 0,19,20
 535 32 535 32 547.5 44 c 128,-1,21
 560 56 560 56 560 79 c 0,12,13
221 82 m 1,22,23
 292 163 292 163 398 189 c 1,24,-1
 398 492 l 1,25,-1
 447 550 l 1,26,-1
 480 550 l 1,27,-1
 480 196 l 1,28,29
 540 189 540 189 573 158 c 128,-1,30
 606 127 606 127 606 79 c 0,31,32
 606 39 606 39 581 15 c 128,-1,33
 556 -9 556 -9 507 -9 c 0,34,35
 450 -9 450 -9 424 19 c 128,-1,36
 398 47 398 47 398 103 c 2,37,-1
 398 151 l 1,38,39
 289 111 289 111 221 0 c 1,40,-1
 139 0 l 1,41,-1
 139 370 l 1,42,43
 134 368 134 368 115 368 c 0,44,45
 71 368 71 368 46.5 392.5 c 128,-1,46
 22 417 22 417 22 461 c 0,47,48
 22 505 22 505 48 530 c 128,-1,49
 74 555 74 555 121 555 c 0,50,51
 169 555 169 555 195 530 c 128,-1,52
 221 505 221 505 221 461 c 2,53,-1
 221 82 l 1,22,23
EndSplineSet
EndChar

StartChar: uni0E1A
Encoding: 3610 3610 31
Width: 615
GlyphClass: 2
Flags: W
AnchorPoint: "Anchor-1" 537 0 basechar 0
AnchorPoint: "Anchor-0" 537 0 basechar 0
LayerCount: 2
Back
SplineSet
72 462 m 256,0,1
 72 439 72 439 85.5 425.5 c 128,-1,2
 99 412 99 412 122 412 c 256,3,4
 145 412 145 412 159 425 c 128,-1,5
 173 438 173 438 173 462 c 256,6,7
 173 485 173 485 159.5 499 c 128,-1,8
 146 513 146 513 122 513 c 256,9,10
 99 513 99 513 85.5 499 c 128,-1,11
 72 485 72 485 72 462 c 256,0,1
221 42 m 1,12,-1
 334 42 l 2,13,14
 392 42 392 42 422.5 81.5 c 128,-1,15
 453 121 453 121 453 190 c 2,16,-1
 453 492 l 1,17,-1
 502 550 l 1,18,-1
 535 550 l 1,19,-1
 535 173 l 2,20,21
 535 91 535 91 490.5 45.5 c 128,-1,22
 446 0 446 0 366 0 c 2,23,-1
 60 0 l 1,24,-1
 60 42 l 1,25,-1
 139 42 l 1,26,-1
 139 371 l 1,27,28
 134 369 134 369 115 369 c 0,29,30
 71 369 71 369 46.5 393 c 128,-1,31
 22 417 22 417 22 462 c 0,32,33
 22 506 22 506 48 530.5 c 128,-1,34
 74 555 74 555 121 555 c 0,35,36
 169 555 169 555 195 530.5 c 128,-1,37
 221 506 221 506 221 462 c 2,38,-1
 221 42 l 1,12,-1
EndSplineSet
Fore
SplineSet
72 462 m 256,0,1
 72 439 72 439 85.5 425.5 c 128,-1,2
 99 412 99 412 122 412 c 256,3,4
 145 412 145 412 159 425 c 128,-1,5
 173 438 173 438 173 462 c 256,6,7
 173 485 173 485 159.5 499 c 128,-1,8
 146 513 146 513 122 513 c 256,9,10
 99 513 99 513 85.5 499 c 128,-1,11
 72 485 72 485 72 462 c 256,0,1
221 42 m 1,12,-1
 334 42 l 2,13,14
 392 42 392 42 422.5 81.5 c 128,-1,15
 453 121 453 121 453 190 c 2,16,-1
 453 492 l 1,17,-1
 502 550 l 1,18,-1
 535 550 l 1,19,-1
 535 173 l 2,20,21
 535 91 535 91 490.5 45.5 c 128,-1,22
 446 0 446 0 366 0 c 2,23,-1
 60 0 l 1,24,-1
 60 42 l 1,25,-1
 139 42 l 1,26,-1
 139 371 l 1,27,28
 134 369 134 369 115 369 c 0,29,30
 71 369 71 369 46.5 393 c 128,-1,31
 22 417 22 417 22 462 c 0,32,33
 22 506 22 506 48 530.5 c 128,-1,34
 74 555 74 555 121 555 c 0,35,36
 169 555 169 555 195 530.5 c 128,-1,37
 221 506 221 506 221 462 c 2,38,-1
 221 42 l 1,12,-1
EndSplineSet
EndChar

StartChar: uni0E1B
Encoding: 3611 3611 32
Width: 615
GlyphClass: 2
Flags: W
AnchorPoint: "Anchor-1" 537 0 basechar 0
AnchorPoint: "Anchor-0" 381 0 basechar 0
LayerCount: 2
Back
SplineSet
72 462 m 256,0,1
 72 439 72 439 85.5 425.5 c 128,-1,2
 99 412 99 412 122 412 c 256,3,4
 145 412 145 412 159 425 c 128,-1,5
 173 438 173 438 173 462 c 256,6,7
 173 485 173 485 159.5 499 c 128,-1,8
 146 513 146 513 122 513 c 256,9,10
 99 513 99 513 85.5 499 c 128,-1,11
 72 485 72 485 72 462 c 256,0,1
221 42 m 1,12,-1
 334 42 l 2,13,14
 392 42 392 42 422.5 81.5 c 128,-1,15
 453 121 453 121 453 190 c 2,16,-1
 453 767 l 1,17,-1
 502 825 l 1,18,-1
 535 825 l 1,19,-1
 535 173 l 2,20,21
 535 91 535 91 490.5 45.5 c 128,-1,22
 446 0 446 0 366 0 c 2,23,-1
 60 0 l 1,24,-1
 60 42 l 1,25,-1
 139 42 l 1,26,-1
 139 371 l 1,27,28
 134 369 134 369 115 369 c 0,29,30
 71 369 71 369 46.5 393 c 128,-1,31
 22 417 22 417 22 462 c 0,32,33
 22 506 22 506 48 530.5 c 128,-1,34
 74 555 74 555 121 555 c 0,35,36
 169 555 169 555 195 530.5 c 128,-1,37
 221 506 221 506 221 462 c 2,38,-1
 221 42 l 1,12,-1
EndSplineSet
Fore
SplineSet
72 462 m 256,0,1
 72 439 72 439 85.5 425.5 c 128,-1,2
 99 412 99 412 122 412 c 256,3,4
 145 412 145 412 159 425 c 128,-1,5
 173 438 173 438 173 462 c 256,6,7
 173 485 173 485 159.5 499 c 128,-1,8
 146 513 146 513 122 513 c 256,9,10
 99 513 99 513 85.5 499 c 128,-1,11
 72 485 72 485 72 462 c 256,0,1
221 42 m 1,12,-1
 334 42 l 2,13,14
 392 42 392 42 422.5 81.5 c 128,-1,15
 453 121 453 121 453 190 c 2,16,-1
 453 767 l 1,17,-1
 502 825 l 1,18,-1
 535 825 l 1,19,-1
 535 173 l 2,20,21
 535 91 535 91 490.5 45.5 c 128,-1,22
 446 0 446 0 366 0 c 2,23,-1
 60 0 l 1,24,-1
 60 42 l 1,25,-1
 139 42 l 1,26,-1
 139 371 l 1,27,28
 134 369 134 369 115 369 c 0,29,30
 71 369 71 369 46.5 393 c 128,-1,31
 22 417 22 417 22 462 c 0,32,33
 22 506 22 506 48 530.5 c 128,-1,34
 74 555 74 555 121 555 c 0,35,36
 169 555 169 555 195 530.5 c 128,-1,37
 221 506 221 506 221 462 c 2,38,-1
 221 42 l 1,12,-1
EndSplineSet
EndChar

StartChar: uni0E1C
Encoding: 3612 3612 33
Width: 645
GlyphClass: 2
Flags: W
AnchorPoint: "Anchor-1" 571 0 basechar 0
AnchorPoint: "Anchor-0" 571 0 basechar 0
LayerCount: 2
Back
SplineSet
239 462 m 256,0,1
 239 485 239 485 225.5 499 c 128,-1,2
 212 513 212 513 189 513 c 256,3,4
 166 513 166 513 152 499 c 128,-1,5
 138 485 138 485 138 462 c 256,6,7
 138 439 138 439 152 425.5 c 128,-1,8
 166 412 166 412 189 412 c 256,9,10
 212 412 212 412 225.5 425.5 c 128,-1,11
 239 439 239 439 239 462 c 256,0,1
477 0 m 1,12,13
 463 41 463 41 444 72.5 c 128,-1,14
 425 104 425 104 405 133.5 c 128,-1,15
 385 163 385 163 365 193.5 c 128,-1,16
 345 224 345 224 328 263 c 1,17,18
 311 224 311 224 291 193.5 c 128,-1,19
 271 163 271 163 251 133.5 c 128,-1,20
 231 104 231 104 212 72.5 c 128,-1,21
 193 41 193 41 179 0 c 1,22,-1
 90 0 l 1,23,-1
 90 462 l 2,24,25
 90 506 90 506 116 530.5 c 128,-1,26
 142 555 142 555 190 555 c 0,27,28
 237 555 237 555 263 530.5 c 128,-1,29
 289 506 289 506 289 462 c 0,30,31
 289 418 289 418 264.5 393.5 c 128,-1,32
 240 369 240 369 196 369 c 0,33,34
 177 369 177 369 172 371 c 1,35,-1
 172 89 l 1,36,37
 185 122 185 122 203 149 c 128,-1,38
 221 176 221 176 239.5 203 c 128,-1,39
 258 230 258 230 275 260 c 128,-1,40
 292 290 292 290 304 328 c 1,41,-1
 352 328 l 1,42,43
 364 290 364 290 381 260 c 128,-1,44
 398 230 398 230 416.5 203 c 128,-1,45
 435 176 435 176 453 149 c 128,-1,46
 471 122 471 122 484 89 c 1,47,-1
 484 492 l 1,48,-1
 533 550 l 1,49,-1
 566 550 l 1,50,-1
 566 58 l 1,51,-1
 518 0 l 1,52,-1
 477 0 l 1,12,13
EndSplineSet
Fore
SplineSet
239 462 m 256,0,1
 239 485 239 485 225.5 499 c 128,-1,2
 212 513 212 513 189 513 c 256,3,4
 166 513 166 513 152 499 c 128,-1,5
 138 485 138 485 138 462 c 256,6,7
 138 439 138 439 152 425.5 c 128,-1,8
 166 412 166 412 189 412 c 256,9,10
 212 412 212 412 225.5 425.5 c 128,-1,11
 239 439 239 439 239 462 c 256,0,1
477 0 m 1,12,13
 463 41 463 41 444 72.5 c 128,-1,14
 425 104 425 104 405 133.5 c 128,-1,15
 385 163 385 163 365 193.5 c 128,-1,16
 345 224 345 224 328 263 c 1,17,18
 311 224 311 224 291 193.5 c 128,-1,19
 271 163 271 163 251 133.5 c 128,-1,20
 231 104 231 104 212 72.5 c 128,-1,21
 193 41 193 41 179 0 c 1,22,-1
 90 0 l 1,23,-1
 90 462 l 2,24,25
 90 506 90 506 116 530.5 c 128,-1,26
 142 555 142 555 190 555 c 0,27,28
 237 555 237 555 263 530.5 c 128,-1,29
 289 506 289 506 289 462 c 0,30,31
 289 418 289 418 264.5 393.5 c 128,-1,32
 240 369 240 369 196 369 c 0,33,34
 177 369 177 369 172 371 c 1,35,-1
 172 89 l 1,36,37
 185 122 185 122 203 149 c 128,-1,38
 221 176 221 176 239.5 203 c 128,-1,39
 258 230 258 230 275 260 c 128,-1,40
 292 290 292 290 304 328 c 1,41,-1
 352 328 l 1,42,43
 364 290 364 290 381 260 c 128,-1,44
 398 230 398 230 416.5 203 c 128,-1,45
 435 176 435 176 453 149 c 128,-1,46
 471 122 471 122 484 89 c 1,47,-1
 484 492 l 1,48,-1
 533 550 l 1,49,-1
 566 550 l 1,50,-1
 566 58 l 1,51,-1
 518 0 l 1,52,-1
 477 0 l 1,12,13
EndSplineSet
EndChar

StartChar: uni0E1D
Encoding: 3613 3613 34
Width: 645
GlyphClass: 2
Flags: W
AnchorPoint: "Anchor-1" 566 0 basechar 0
AnchorPoint: "Anchor-0" 410 0 basechar 0
LayerCount: 2
Back
SplineSet
239 462 m 256,0,1
 239 485 239 485 225.5 499 c 128,-1,2
 212 513 212 513 189 513 c 256,3,4
 166 513 166 513 152 499 c 128,-1,5
 138 485 138 485 138 462 c 256,6,7
 138 439 138 439 152 425.5 c 128,-1,8
 166 412 166 412 189 412 c 256,9,10
 212 412 212 412 225.5 425.5 c 128,-1,11
 239 439 239 439 239 462 c 256,0,1
477 0 m 1,12,13
 463 41 463 41 444 72.5 c 128,-1,14
 425 104 425 104 405 133.5 c 128,-1,15
 385 163 385 163 365 193.5 c 128,-1,16
 345 224 345 224 328 263 c 1,17,18
 311 224 311 224 291 193.5 c 128,-1,19
 271 163 271 163 251 133.5 c 128,-1,20
 231 104 231 104 212 72.5 c 128,-1,21
 193 41 193 41 179 0 c 1,22,-1
 90 0 l 1,23,-1
 90 462 l 2,24,25
 90 506 90 506 116 530.5 c 128,-1,26
 142 555 142 555 190 555 c 0,27,28
 237 555 237 555 263 530.5 c 128,-1,29
 289 506 289 506 289 462 c 0,30,31
 289 418 289 418 264.5 393.5 c 128,-1,32
 240 369 240 369 196 369 c 0,33,34
 177 369 177 369 172 371 c 1,35,-1
 172 89 l 1,36,37
 185 122 185 122 203 149 c 128,-1,38
 221 176 221 176 239.5 203 c 128,-1,39
 258 230 258 230 275 260 c 128,-1,40
 292 290 292 290 304 328 c 1,41,-1
 352 328 l 1,42,43
 364 290 364 290 381 260 c 128,-1,44
 398 230 398 230 416.5 203 c 128,-1,45
 435 176 435 176 453 149 c 128,-1,46
 471 122 471 122 484 89 c 1,47,-1
 484 767 l 1,48,-1
 533 825 l 1,49,-1
 566 825 l 1,50,-1
 566 58 l 1,51,-1
 518 0 l 1,52,-1
 477 0 l 1,12,13
EndSplineSet
Fore
SplineSet
239 462 m 256,0,1
 239 485 239 485 225.5 499 c 128,-1,2
 212 513 212 513 189 513 c 256,3,4
 166 513 166 513 152 499 c 128,-1,5
 138 485 138 485 138 462 c 256,6,7
 138 439 138 439 152 425.5 c 128,-1,8
 166 412 166 412 189 412 c 256,9,10
 212 412 212 412 225.5 425.5 c 128,-1,11
 239 439 239 439 239 462 c 256,0,1
477 0 m 1,12,13
 463 41 463 41 444 72.5 c 128,-1,14
 425 104 425 104 405 133.5 c 128,-1,15
 385 163 385 163 365 193.5 c 128,-1,16
 345 224 345 224 328 263 c 1,17,18
 311 224 311 224 291 193.5 c 128,-1,19
 271 163 271 163 251 133.5 c 128,-1,20
 231 104 231 104 212 72.5 c 128,-1,21
 193 41 193 41 179 0 c 1,22,-1
 90 0 l 1,23,-1
 90 462 l 2,24,25
 90 506 90 506 116 530.5 c 128,-1,26
 142 555 142 555 190 555 c 0,27,28
 237 555 237 555 263 530.5 c 128,-1,29
 289 506 289 506 289 462 c 0,30,31
 289 418 289 418 264.5 393.5 c 128,-1,32
 240 369 240 369 196 369 c 0,33,34
 177 369 177 369 172 371 c 1,35,-1
 172 89 l 1,36,37
 185 122 185 122 203 149 c 128,-1,38
 221 176 221 176 239.5 203 c 128,-1,39
 258 230 258 230 275 260 c 128,-1,40
 292 290 292 290 304 328 c 1,41,-1
 352 328 l 1,42,43
 364 290 364 290 381 260 c 128,-1,44
 398 230 398 230 416.5 203 c 128,-1,45
 435 176 435 176 453 149 c 128,-1,46
 471 122 471 122 484 89 c 1,47,-1
 484 767 l 1,48,-1
 533 825 l 1,49,-1
 566 825 l 1,50,-1
 566 58 l 1,51,-1
 518 0 l 1,52,-1
 477 0 l 1,12,13
EndSplineSet
EndChar

StartChar: uni0E1E
Encoding: 3614 3614 35
Width: 695
GlyphClass: 2
Flags: W
AnchorPoint: "Anchor-1" 620 0 basechar 0
AnchorPoint: "Anchor-0" 620 0 basechar 0
LayerCount: 2
Back
SplineSet
72 461 m 256,0,1
 72 438 72 438 85.5 424.5 c 128,-1,2
 99 411 99 411 122 411 c 256,3,4
 145 411 145 411 159 424.5 c 128,-1,5
 173 438 173 438 173 461 c 256,6,7
 173 484 173 484 159.5 498 c 128,-1,8
 146 512 146 512 122 512 c 256,9,10
 99 512 99 512 85.5 498 c 128,-1,11
 72 484 72 484 72 461 c 256,0,1
568 0 m 1,12,-1
 516 0 l 1,13,-1
 377 471 l 1,14,-1
 239 0 l 1,15,-1
 139 0 l 1,16,-1
 139 370 l 1,17,18
 134 368 134 368 115 368 c 0,19,20
 71 368 71 368 46.5 392.5 c 128,-1,21
 22 417 22 417 22 461 c 0,22,23
 22 505 22 505 48 530 c 128,-1,24
 74 555 74 555 121 555 c 0,25,26
 169 555 169 555 195 530 c 128,-1,27
 221 505 221 505 221 461 c 2,28,-1
 221 109 l 1,29,-1
 352 545 l 1,30,-1
 403 545 l 1,31,-1
 534 109 l 1,32,-1
 534 492 l 1,33,-1
 583 550 l 1,34,-1
 616 550 l 1,35,-1
 616 58 l 1,36,-1
 568 0 l 1,12,-1
EndSplineSet
Fore
SplineSet
72 461 m 256,0,1
 72 438 72 438 85.5 424.5 c 128,-1,2
 99 411 99 411 122 411 c 256,3,4
 145 411 145 411 159 424.5 c 128,-1,5
 173 438 173 438 173 461 c 256,6,7
 173 484 173 484 159.5 498 c 128,-1,8
 146 512 146 512 122 512 c 256,9,10
 99 512 99 512 85.5 498 c 128,-1,11
 72 484 72 484 72 461 c 256,0,1
568 0 m 1,12,-1
 516 0 l 1,13,-1
 377 471 l 1,14,-1
 239 0 l 1,15,-1
 139 0 l 1,16,-1
 139 370 l 1,17,18
 134 368 134 368 115 368 c 0,19,20
 71 368 71 368 46.5 392.5 c 128,-1,21
 22 417 22 417 22 461 c 0,22,23
 22 505 22 505 48 530 c 128,-1,24
 74 555 74 555 121 555 c 0,25,26
 169 555 169 555 195 530 c 128,-1,27
 221 505 221 505 221 461 c 2,28,-1
 221 109 l 1,29,-1
 352 545 l 1,30,-1
 403 545 l 1,31,-1
 534 109 l 1,32,-1
 534 492 l 1,33,-1
 583 550 l 1,34,-1
 616 550 l 1,35,-1
 616 58 l 1,36,-1
 568 0 l 1,12,-1
EndSplineSet
EndChar

StartChar: uni0E1F
Encoding: 3615 3615 36
Width: 695
GlyphClass: 2
Flags: W
AnchorPoint: "Anchor-1" 620 0 basechar 0
AnchorPoint: "Anchor-0" 469 0 basechar 0
LayerCount: 2
Back
SplineSet
72 461 m 256,0,1
 72 438 72 438 85.5 424.5 c 128,-1,2
 99 411 99 411 122 411 c 256,3,4
 145 411 145 411 159 424.5 c 128,-1,5
 173 438 173 438 173 461 c 256,6,7
 173 484 173 484 159.5 498 c 128,-1,8
 146 512 146 512 122 512 c 256,9,10
 99 512 99 512 85.5 498 c 128,-1,11
 72 484 72 484 72 461 c 256,0,1
568 0 m 1,12,-1
 516 0 l 1,13,-1
 377 471 l 1,14,-1
 239 0 l 1,15,-1
 139 0 l 1,16,-1
 139 370 l 1,17,18
 134 368 134 368 115 368 c 0,19,20
 71 368 71 368 46.5 392.5 c 128,-1,21
 22 417 22 417 22 461 c 0,22,23
 22 505 22 505 48 530 c 128,-1,24
 74 555 74 555 121 555 c 0,25,26
 169 555 169 555 195 530 c 128,-1,27
 221 505 221 505 221 461 c 2,28,-1
 221 109 l 1,29,-1
 352 545 l 1,30,-1
 403 545 l 1,31,-1
 534 109 l 1,32,-1
 534 767 l 1,33,-1
 583 825 l 1,34,-1
 616 825 l 1,35,-1
 616 58 l 1,36,-1
 568 0 l 1,12,-1
EndSplineSet
Fore
SplineSet
72 461 m 256,0,1
 72 438 72 438 85.5 424.5 c 128,-1,2
 99 411 99 411 122 411 c 256,3,4
 145 411 145 411 159 424.5 c 128,-1,5
 173 438 173 438 173 461 c 256,6,7
 173 484 173 484 159.5 498 c 128,-1,8
 146 512 146 512 122 512 c 256,9,10
 99 512 99 512 85.5 498 c 128,-1,11
 72 484 72 484 72 461 c 256,0,1
568 0 m 1,12,-1
 516 0 l 1,13,-1
 377 471 l 1,14,-1
 239 0 l 1,15,-1
 139 0 l 1,16,-1
 139 370 l 1,17,18
 134 368 134 368 115 368 c 0,19,20
 71 368 71 368 46.5 392.5 c 128,-1,21
 22 417 22 417 22 461 c 0,22,23
 22 505 22 505 48 530 c 128,-1,24
 74 555 74 555 121 555 c 0,25,26
 169 555 169 555 195 530 c 128,-1,27
 221 505 221 505 221 461 c 2,28,-1
 221 109 l 1,29,-1
 352 545 l 1,30,-1
 403 545 l 1,31,-1
 534 109 l 1,32,-1
 534 767 l 1,33,-1
 583 825 l 1,34,-1
 616 825 l 1,35,-1
 616 58 l 1,36,-1
 568 0 l 1,12,-1
EndSplineSet
EndChar

StartChar: uni0E20
Encoding: 3616 3616 37
Width: 642
GlyphClass: 2
Flags: W
AnchorPoint: "Anchor-1" 576 0 basechar 0
AnchorPoint: "Anchor-0" 576 0 basechar 0
LayerCount: 2
Back
SplineSet
139 192 m 2,0,1
 139 304 139 304 247 327 c 1,2,3
 227 344 227 344 187.5 355 c 128,-1,4
 148 366 148 366 123 366 c 1,5,6
 130 466 130 466 187.5 513 c 128,-1,7
 245 560 245 560 356 560 c 0,8,9
 467 560 467 560 521 508 c 128,-1,10
 575 456 575 456 575 340 c 2,11,-1
 575 58 l 1,12,-1
 526 0 l 1,13,-1
 493 0 l 1,14,-1
 493 349 l 2,15,16
 493 440 493 440 457.5 478 c 128,-1,17
 422 516 422 516 348 516 c 0,18,19
 285 516 285 516 248 483.5 c 128,-1,20
 211 451 211 451 207 389 c 1,21,22
 240 384 240 384 274 365 c 128,-1,23
 308 346 308 346 327 323 c 1,24,-1
 327 315 l 1,25,26
 270 304 270 304 245.5 273.5 c 128,-1,27
 221 243 221 243 221 191 c 2,28,-1
 221 84 l 2,29,30
 221 40 221 40 195 15.5 c 128,-1,31
 169 -9 169 -9 121 -9 c 0,32,33
 74 -9 74 -9 48 15.5 c 128,-1,34
 22 40 22 40 22 84 c 0,35,36
 22 128 22 128 46.5 153 c 128,-1,37
 71 178 71 178 115 178 c 0,38,39
 133 178 133 178 139 176 c 1,40,-1
 139 192 l 2,0,1
72 85 m 256,41,42
 72 62 72 62 85.5 48 c 128,-1,43
 99 34 99 34 122 34 c 256,44,45
 145 34 145 34 159 48 c 128,-1,46
 173 62 173 62 173 85 c 256,47,48
 173 108 173 108 159.5 121.5 c 128,-1,49
 146 135 146 135 122 135 c 256,50,51
 99 135 99 135 85.5 121.5 c 128,-1,52
 72 108 72 108 72 85 c 256,41,42
EndSplineSet
Fore
SplineSet
139 192 m 2,0,1
 139 304 139 304 247 327 c 1,2,3
 227 344 227 344 187.5 355 c 128,-1,4
 148 366 148 366 123 366 c 1,5,6
 130 466 130 466 187.5 513 c 128,-1,7
 245 560 245 560 356 560 c 0,8,9
 467 560 467 560 521 508 c 128,-1,10
 575 456 575 456 575 340 c 2,11,-1
 575 58 l 1,12,-1
 526 0 l 1,13,-1
 493 0 l 1,14,-1
 493 349 l 2,15,16
 493 440 493 440 457.5 478 c 128,-1,17
 422 516 422 516 348 516 c 0,18,19
 285 516 285 516 248 483.5 c 128,-1,20
 211 451 211 451 207 389 c 1,21,22
 240 384 240 384 274 365 c 128,-1,23
 308 346 308 346 327 323 c 1,24,-1
 327 315 l 1,25,26
 270 304 270 304 245.5 273.5 c 128,-1,27
 221 243 221 243 221 191 c 2,28,-1
 221 84 l 2,29,30
 221 40 221 40 195 15.5 c 128,-1,31
 169 -9 169 -9 121 -9 c 0,32,33
 74 -9 74 -9 48 15.5 c 128,-1,34
 22 40 22 40 22 84 c 0,35,36
 22 128 22 128 46.5 153 c 128,-1,37
 71 178 71 178 115 178 c 0,38,39
 133 178 133 178 139 176 c 1,40,-1
 139 192 l 2,0,1
72 85 m 256,41,42
 72 62 72 62 85.5 48 c 128,-1,43
 99 34 99 34 122 34 c 256,44,45
 145 34 145 34 159 48 c 128,-1,46
 173 62 173 62 173 85 c 256,47,48
 173 108 173 108 159.5 121.5 c 128,-1,49
 146 135 146 135 122 135 c 256,50,51
 99 135 99 135 85.5 121.5 c 128,-1,52
 72 108 72 108 72 85 c 256,41,42
EndSplineSet
EndChar

StartChar: uni0E21
Encoding: 3617 3617 38
Width: 588
GlyphClass: 2
Flags: W
AnchorPoint: "Anchor-1" 513 0 basechar 0
AnchorPoint: "Anchor-0" 513 0 basechar 0
LayerCount: 2
Back
SplineSet
101 461 m 256,0,1
 101 438 101 438 114 424.5 c 128,-1,2
 127 411 127 411 151 411 c 256,3,4
 174 411 174 411 188 424.5 c 128,-1,5
 202 438 202 438 202 461 c 256,6,7
 202 484 202 484 188 498 c 128,-1,8
 174 512 174 512 151 512 c 256,9,10
 128 512 128 512 114.5 498 c 128,-1,11
 101 484 101 484 101 461 c 256,0,1
88 79 m 0,12,13
 88 56 88 56 100.5 44 c 128,-1,14
 113 32 113 32 130 32 c 0,15,16
 148 32 148 32 158 43.5 c 128,-1,17
 168 55 168 55 168 77 c 2,18,-1
 168 157 l 1,19,20
 131 151 131 151 109.5 130.5 c 128,-1,21
 88 110 88 110 88 79 c 0,12,13
509 0 m 1,22,-1
 427 0 l 1,23,24
 359 111 359 111 250 151 c 1,25,-1
 250 103 l 2,26,27
 250 47 250 47 224 19 c 128,-1,28
 198 -9 198 -9 141 -9 c 0,29,30
 92 -9 92 -9 67 15 c 128,-1,31
 42 39 42 39 42 79 c 0,32,33
 42 127 42 127 75 158 c 128,-1,34
 108 189 108 189 168 196 c 1,35,-1
 168 370 l 1,36,37
 163 368 163 368 144 368 c 0,38,39
 100 368 100 368 75.5 392.5 c 128,-1,40
 51 417 51 417 51 461 c 0,41,42
 51 505 51 505 77 530 c 128,-1,43
 103 555 103 555 150 555 c 0,44,45
 198 555 198 555 224 530 c 128,-1,46
 250 505 250 505 250 461 c 2,47,-1
 250 189 l 1,48,49
 355 164 355 164 427 82 c 1,50,-1
 427 492 l 1,51,-1
 476 550 l 1,52,-1
 509 550 l 1,53,-1
 509 0 l 1,22,-1
EndSplineSet
Fore
SplineSet
101 461 m 256,0,1
 101 438 101 438 114 424.5 c 128,-1,2
 127 411 127 411 151 411 c 256,3,4
 174 411 174 411 188 424.5 c 128,-1,5
 202 438 202 438 202 461 c 256,6,7
 202 484 202 484 188 498 c 128,-1,8
 174 512 174 512 151 512 c 256,9,10
 128 512 128 512 114.5 498 c 128,-1,11
 101 484 101 484 101 461 c 256,0,1
88 79 m 0,12,13
 88 56 88 56 100.5 44 c 128,-1,14
 113 32 113 32 130 32 c 0,15,16
 148 32 148 32 158 43.5 c 128,-1,17
 168 55 168 55 168 77 c 2,18,-1
 168 157 l 1,19,20
 131 151 131 151 109.5 130.5 c 128,-1,21
 88 110 88 110 88 79 c 0,12,13
509 0 m 1,22,-1
 427 0 l 1,23,24
 359 111 359 111 250 151 c 1,25,-1
 250 103 l 2,26,27
 250 47 250 47 224 19 c 128,-1,28
 198 -9 198 -9 141 -9 c 0,29,30
 92 -9 92 -9 67 15 c 128,-1,31
 42 39 42 39 42 79 c 0,32,33
 42 127 42 127 75 158 c 128,-1,34
 108 189 108 189 168 196 c 1,35,-1
 168 370 l 1,36,37
 163 368 163 368 144 368 c 0,38,39
 100 368 100 368 75.5 392.5 c 128,-1,40
 51 417 51 417 51 461 c 0,41,42
 51 505 51 505 77 530 c 128,-1,43
 103 555 103 555 150 555 c 0,44,45
 198 555 198 555 224 530 c 128,-1,46
 250 505 250 505 250 461 c 2,47,-1
 250 189 l 1,48,49
 355 164 355 164 427 82 c 1,50,-1
 427 492 l 1,51,-1
 476 550 l 1,52,-1
 509 550 l 1,53,-1
 509 0 l 1,22,-1
EndSplineSet
EndChar

StartChar: uni0E22
Encoding: 3618 3618 39
Width: 554
GlyphClass: 2
Flags: W
AnchorPoint: "Anchor-1" 469 0 basechar 0
AnchorPoint: "Anchor-0" 469 0 basechar 0
LayerCount: 2
Back
SplineSet
130 461 m 256,0,1
 130 438 130 438 143.5 424.5 c 128,-1,2
 157 411 157 411 180 411 c 256,3,4
 203 411 203 411 217 424.5 c 128,-1,5
 231 438 231 438 231 461 c 256,6,7
 231 484 231 484 217.5 498 c 128,-1,8
 204 512 204 512 180 512 c 256,9,10
 157 512 157 512 143.5 498 c 128,-1,11
 130 484 130 484 130 461 c 256,0,1
235 0 m 2,12,13
 151 0 151 0 108.5 42 c 128,-1,14
 66 84 66 84 66 162 c 0,15,16
 66 214 66 214 91 247 c 128,-1,17
 116 280 116 280 161 289 c 1,18,19
 139 293 139 293 115.5 315 c 128,-1,20
 92 337 92 337 78.5 369 c 128,-1,21
 65 401 65 401 65 440 c 0,22,23
 66 493 66 493 96.5 524 c 128,-1,24
 127 555 127 555 181 555 c 0,25,26
 228 555 228 555 254 530.5 c 128,-1,27
 280 506 280 506 280 462 c 0,28,29
 280 418 280 418 254.5 393.5 c 128,-1,30
 229 369 229 369 181 369 c 0,31,32
 169 369 169 369 161 371 c 1,33,34
 169 339 169 339 193 323 c 128,-1,35
 217 307 217 307 248 304 c 1,36,-1
 248 275 l 1,37,38
 148 263 148 263 148 166 c 0,39,40
 148 106 148 106 176 74 c 128,-1,41
 204 42 204 42 267 42 c 2,42,-1
 273 42 l 2,43,44
 392 42 392 42 392 167 c 2,45,-1
 392 492 l 1,46,-1
 441 550 l 1,47,-1
 474 550 l 1,48,-1
 474 162 l 2,49,50
 474 84 474 84 432 42 c 128,-1,51
 390 0 390 0 305 0 c 2,52,-1
 235 0 l 2,12,13
EndSplineSet
Fore
SplineSet
130 461 m 256,0,1
 130 438 130 438 143.5 424.5 c 128,-1,2
 157 411 157 411 180 411 c 256,3,4
 203 411 203 411 217 424.5 c 128,-1,5
 231 438 231 438 231 461 c 256,6,7
 231 484 231 484 217.5 498 c 128,-1,8
 204 512 204 512 180 512 c 256,9,10
 157 512 157 512 143.5 498 c 128,-1,11
 130 484 130 484 130 461 c 256,0,1
235 0 m 2,12,13
 151 0 151 0 108.5 42 c 128,-1,14
 66 84 66 84 66 162 c 0,15,16
 66 214 66 214 91 247 c 128,-1,17
 116 280 116 280 161 289 c 1,18,19
 139 293 139 293 115.5 315 c 128,-1,20
 92 337 92 337 78.5 369 c 128,-1,21
 65 401 65 401 65 440 c 0,22,23
 66 493 66 493 96.5 524 c 128,-1,24
 127 555 127 555 181 555 c 0,25,26
 228 555 228 555 254 530.5 c 128,-1,27
 280 506 280 506 280 462 c 0,28,29
 280 418 280 418 254.5 393.5 c 128,-1,30
 229 369 229 369 181 369 c 0,31,32
 169 369 169 369 161 371 c 1,33,34
 169 339 169 339 193 323 c 128,-1,35
 217 307 217 307 248 304 c 1,36,-1
 248 275 l 1,37,38
 148 263 148 263 148 166 c 0,39,40
 148 106 148 106 176 74 c 128,-1,41
 204 42 204 42 267 42 c 2,42,-1
 273 42 l 2,43,44
 392 42 392 42 392 167 c 2,45,-1
 392 492 l 1,46,-1
 441 550 l 1,47,-1
 474 550 l 1,48,-1
 474 162 l 2,49,50
 474 84 474 84 432 42 c 128,-1,51
 390 0 390 0 305 0 c 2,52,-1
 235 0 l 2,12,13
EndSplineSet
EndChar

StartChar: uni0E23
Encoding: 3619 3619 40
Width: 504
GlyphClass: 2
Flags: W
AnchorPoint: "Anchor-1" 381 0 basechar 0
AnchorPoint: "Anchor-0" 381 0 basechar 0
LayerCount: 2
Back
SplineSet
229 85 m 256,0,1
 229 62 229 62 242 48 c 128,-1,2
 255 34 255 34 279 34 c 256,3,4
 302 34 302 34 316 48 c 128,-1,5
 330 62 330 62 330 85 c 256,6,7
 330 108 330 108 316 121.5 c 128,-1,8
 302 135 302 135 279 135 c 256,9,10
 256 135 256 135 242.5 121.5 c 128,-1,11
 229 108 229 108 229 85 c 256,0,1
296 213 m 2,12,13
 296 290 296 290 261 322.5 c 128,-1,14
 226 355 226 355 147 355 c 2,15,-1
 34 355 l 1,16,-1
 34 389 l 2,17,18
 34 475 34 475 70 512.5 c 128,-1,19
 106 550 106 550 188 550 c 0,20,21
 233 550 233 550 338 539 c 1,22,-1
 369 536 l 1,23,24
 417 536 417 536 446 557 c 2,25,-1
 464 570 l 1,26,-1
 484 548 l 1,27,28
 452 511 452 511 434 498.5 c 128,-1,29
 416 486 416 486 391.5 479 c 128,-1,30
 367 472 367 472 332 472 c 0,31,32
 316 472 316 472 261 478 c 256,33,34
 206 483 206 483 186 483 c 0,35,36
 118 483 118 483 94 463.5 c 128,-1,37
 70 444 70 444 70 398 c 1,38,-1
 171 398 l 2,39,40
 277 398 277 398 327.5 355.5 c 128,-1,41
 378 313 378 313 378 222 c 2,42,-1
 378 84 l 2,43,44
 378 40 378 40 352 15.5 c 128,-1,45
 326 -9 326 -9 278 -9 c 0,46,47
 231 -9 231 -9 205 15.5 c 128,-1,48
 179 40 179 40 179 84 c 0,49,50
 179 128 179 128 203.5 153 c 128,-1,51
 228 178 228 178 272 178 c 0,52,53
 290 178 290 178 296 176 c 1,54,-1
 296 213 l 2,12,13
EndSplineSet
Fore
SplineSet
229 85 m 256,0,1
 229 62 229 62 242 48 c 128,-1,2
 255 34 255 34 279 34 c 256,3,4
 302 34 302 34 316 48 c 128,-1,5
 330 62 330 62 330 85 c 256,6,7
 330 108 330 108 316 121.5 c 128,-1,8
 302 135 302 135 279 135 c 256,9,10
 256 135 256 135 242.5 121.5 c 128,-1,11
 229 108 229 108 229 85 c 256,0,1
296 213 m 2,12,13
 296 290 296 290 261 322.5 c 128,-1,14
 226 355 226 355 147 355 c 2,15,-1
 34 355 l 1,16,-1
 34 389 l 2,17,18
 34 475 34 475 70 512.5 c 128,-1,19
 106 550 106 550 188 550 c 0,20,21
 233 550 233 550 338 539 c 1,22,-1
 369 536 l 1,23,24
 417 536 417 536 446 557 c 2,25,-1
 464 570 l 1,26,-1
 484 548 l 1,27,28
 452 511 452 511 434 498.5 c 128,-1,29
 416 486 416 486 391.5 479 c 128,-1,30
 367 472 367 472 332 472 c 0,31,32
 316 472 316 472 261 478 c 256,33,34
 206 483 206 483 186 483 c 0,35,36
 118 483 118 483 94 463.5 c 128,-1,37
 70 444 70 444 70 398 c 1,38,-1
 171 398 l 2,39,40
 277 398 277 398 327.5 355.5 c 128,-1,41
 378 313 378 313 378 222 c 2,42,-1
 378 84 l 2,43,44
 378 40 378 40 352 15.5 c 128,-1,45
 326 -9 326 -9 278 -9 c 0,46,47
 231 -9 231 -9 205 15.5 c 128,-1,48
 179 40 179 40 179 84 c 0,49,50
 179 128 179 128 203.5 153 c 128,-1,51
 228 178 228 178 272 178 c 0,52,53
 290 178 290 178 296 176 c 1,54,-1
 296 213 l 2,12,13
EndSplineSet
EndChar

StartChar: uni0E24
Encoding: 3620 3620 41
Width: 597
GlyphClass: 2
Flags: W
AnchorPoint: "Anchor-1" 518 -244 basechar 0
AnchorPoint: "Anchor-0" 518 0 basechar 0
LayerCount: 2
Back
SplineSet
163 175 m 1,0,1
 168 177 168 177 187 177 c 0,2,3
 231 177 231 177 255.5 152.5 c 128,-1,4
 280 128 280 128 280 84 c 0,5,6
 280 40 280 40 254.5 15.5 c 128,-1,7
 229 -9 229 -9 181 -9 c 0,8,9
 133 -9 133 -9 107 15.5 c 128,-1,10
 81 40 81 40 81 84 c 2,11,-1
 81 192 l 2,12,13
 81 304 81 304 189 327 c 1,14,15
 170 343 170 343 129.5 354.5 c 128,-1,16
 89 366 89 366 65 366 c 1,17,18
 72 466 72 466 129.5 513 c 128,-1,19
 187 560 187 560 298 560 c 0,20,21
 410 560 410 560 463.5 508 c 128,-1,22
 517 456 517 456 517 340 c 2,23,-1
 517 -196 l 1,24,-1
 468 -254 l 1,25,-1
 435 -254 l 1,26,-1
 435 349 l 2,27,28
 435 440 435 440 399.5 478 c 128,-1,29
 364 516 364 516 290 516 c 0,30,31
 227 516 227 516 190 483.5 c 128,-1,32
 153 451 153 451 149 389 c 1,33,34
 182 384 182 384 216 365 c 128,-1,35
 250 346 250 346 269 323 c 1,36,-1
 269 315 l 1,37,38
 212 304 212 304 187.5 273.5 c 128,-1,39
 163 243 163 243 163 191 c 2,40,-1
 163 175 l 1,0,1
230 84 m 256,41,42
 230 107 230 107 217 120.5 c 128,-1,43
 204 134 204 134 180 134 c 256,44,45
 157 134 157 134 143 120.5 c 128,-1,46
 129 107 129 107 129 84 c 256,47,48
 129 61 129 61 143 47 c 128,-1,49
 157 33 157 33 180 33 c 256,50,51
 203 33 203 33 216.5 47 c 128,-1,52
 230 61 230 61 230 84 c 256,41,42
EndSplineSet
Fore
SplineSet
163 175 m 1,0,1
 168 177 168 177 187 177 c 0,2,3
 231 177 231 177 255.5 152.5 c 128,-1,4
 280 128 280 128 280 84 c 0,5,6
 280 40 280 40 254.5 15.5 c 128,-1,7
 229 -9 229 -9 181 -9 c 0,8,9
 133 -9 133 -9 107 15.5 c 128,-1,10
 81 40 81 40 81 84 c 2,11,-1
 81 192 l 2,12,13
 81 304 81 304 189 327 c 1,14,15
 170 343 170 343 129.5 354.5 c 128,-1,16
 89 366 89 366 65 366 c 1,17,18
 72 466 72 466 129.5 513 c 128,-1,19
 187 560 187 560 298 560 c 0,20,21
 410 560 410 560 463.5 508 c 128,-1,22
 517 456 517 456 517 340 c 2,23,-1
 517 -196 l 1,24,-1
 468 -254 l 1,25,-1
 435 -254 l 1,26,-1
 435 349 l 2,27,28
 435 440 435 440 399.5 478 c 128,-1,29
 364 516 364 516 290 516 c 0,30,31
 227 516 227 516 190 483.5 c 128,-1,32
 153 451 153 451 149 389 c 1,33,34
 182 384 182 384 216 365 c 128,-1,35
 250 346 250 346 269 323 c 1,36,-1
 269 315 l 1,37,38
 212 304 212 304 187.5 273.5 c 128,-1,39
 163 243 163 243 163 191 c 2,40,-1
 163 175 l 1,0,1
230 84 m 256,41,42
 230 107 230 107 217 120.5 c 128,-1,43
 204 134 204 134 180 134 c 256,44,45
 157 134 157 134 143 120.5 c 128,-1,46
 129 107 129 107 129 84 c 256,47,48
 129 61 129 61 143 47 c 128,-1,49
 157 33 157 33 180 33 c 256,50,51
 203 33 203 33 216.5 47 c 128,-1,52
 230 61 230 61 230 84 c 256,41,42
EndSplineSet
EndChar

StartChar: uni0E25
Encoding: 3621 3621 42
Width: 591
GlyphClass: 2
Flags: W
AnchorPoint: "Anchor-1" 513 0 basechar 0
AnchorPoint: "Anchor-0" 513 0 basechar 0
LayerCount: 2
Back
SplineSet
152 175 m 1,0,1
 157 177 157 177 176 177 c 0,2,3
 220 177 220 177 244.5 152.5 c 128,-1,4
 269 128 269 128 269 84 c 0,5,6
 269 40 269 40 243 15.5 c 128,-1,7
 217 -9 217 -9 170 -9 c 0,8,9
 122 -9 122 -9 96 15.5 c 128,-1,10
 70 40 70 40 70 84 c 2,11,-1
 70 175 l 2,12,13
 70 255 70 255 110.5 292 c 128,-1,14
 151 329 151 329 231 329 c 0,15,16
 349 329 349 329 430 170 c 1,17,-1
 430 335 l 2,18,19
 430 422 430 422 389.5 467 c 128,-1,20
 349 512 349 512 276 512 c 0,21,22
 172 512 172 512 81 454 c 1,23,-1
 58 492 l 1,24,25
 157 560 157 560 285 560 c 0,26,27
 396 560 396 560 454 503 c 128,-1,28
 512 446 512 446 512 342 c 2,29,-1
 512 58 l 1,30,-1
 463 0 l 1,31,-1
 430 0 l 1,32,-1
 430 85 l 1,33,34
 388 181 388 181 338 231 c 128,-1,35
 288 281 288 281 236 281 c 0,36,37
 152 281 152 281 152 193 c 2,38,-1
 152 175 l 1,0,1
219 84 m 256,39,40
 219 107 219 107 205.5 120.5 c 128,-1,41
 192 134 192 134 169 134 c 256,42,43
 146 134 146 134 132 120.5 c 128,-1,44
 118 107 118 107 118 84 c 256,45,46
 118 61 118 61 132 47 c 128,-1,47
 146 33 146 33 169 33 c 256,48,49
 192 33 192 33 205.5 47 c 128,-1,50
 219 61 219 61 219 84 c 256,39,40
EndSplineSet
Fore
SplineSet
152 175 m 1,0,1
 157 177 157 177 176 177 c 0,2,3
 220 177 220 177 244.5 152.5 c 128,-1,4
 269 128 269 128 269 84 c 0,5,6
 269 40 269 40 243 15.5 c 128,-1,7
 217 -9 217 -9 170 -9 c 0,8,9
 122 -9 122 -9 96 15.5 c 128,-1,10
 70 40 70 40 70 84 c 2,11,-1
 70 175 l 2,12,13
 70 255 70 255 110.5 292 c 128,-1,14
 151 329 151 329 231 329 c 0,15,16
 349 329 349 329 430 170 c 1,17,-1
 430 335 l 2,18,19
 430 422 430 422 389.5 467 c 128,-1,20
 349 512 349 512 276 512 c 0,21,22
 172 512 172 512 81 454 c 1,23,-1
 58 492 l 1,24,25
 157 560 157 560 285 560 c 0,26,27
 396 560 396 560 454 503 c 128,-1,28
 512 446 512 446 512 342 c 2,29,-1
 512 58 l 1,30,-1
 463 0 l 1,31,-1
 430 0 l 1,32,-1
 430 85 l 1,33,34
 388 181 388 181 338 231 c 128,-1,35
 288 281 288 281 236 281 c 0,36,37
 152 281 152 281 152 193 c 2,38,-1
 152 175 l 1,0,1
219 84 m 256,39,40
 219 107 219 107 205.5 120.5 c 128,-1,41
 192 134 192 134 169 134 c 256,42,43
 146 134 146 134 132 120.5 c 128,-1,44
 118 107 118 107 118 84 c 256,45,46
 118 61 118 61 132 47 c 128,-1,47
 146 33 146 33 169 33 c 256,48,49
 192 33 192 33 205.5 47 c 128,-1,50
 219 61 219 61 219 84 c 256,39,40
EndSplineSet
EndChar

StartChar: uni0E26
Encoding: 3622 3622 43
Width: 654
GlyphClass: 2
Flags: W
AnchorPoint: "Anchor-1" 576 -244 basechar 0
AnchorPoint: "Anchor-0" 576 0 basechar 0
LayerCount: 2
Back
SplineSet
139 192 m 2,0,1
 139 304 139 304 247 327 c 1,2,3
 227 344 227 344 187.5 355 c 128,-1,4
 148 366 148 366 123 366 c 1,5,6
 130 466 130 466 187.5 513 c 128,-1,7
 245 560 245 560 356 560 c 0,8,9
 467 560 467 560 521 508 c 128,-1,10
 575 456 575 456 575 340 c 2,11,-1
 575 -196 l 1,12,-1
 526 -254 l 1,13,-1
 493 -254 l 1,14,-1
 493 349 l 2,15,16
 493 440 493 440 457.5 478 c 128,-1,17
 422 516 422 516 348 516 c 0,18,19
 285 516 285 516 248 483.5 c 128,-1,20
 211 451 211 451 207 389 c 1,21,22
 240 384 240 384 274 365 c 128,-1,23
 308 346 308 346 327 323 c 1,24,-1
 327 315 l 1,25,26
 270 304 270 304 245.5 273.5 c 128,-1,27
 221 243 221 243 221 191 c 2,28,-1
 221 84 l 2,29,30
 221 40 221 40 195 15.5 c 128,-1,31
 169 -9 169 -9 121 -9 c 0,32,33
 74 -9 74 -9 48 15.5 c 128,-1,34
 22 40 22 40 22 84 c 0,35,36
 22 128 22 128 46.5 153 c 128,-1,37
 71 178 71 178 115 178 c 0,38,39
 133 178 133 178 139 176 c 1,40,-1
 139 192 l 2,0,1
72 85 m 256,41,42
 72 62 72 62 85.5 48 c 128,-1,43
 99 34 99 34 122 34 c 256,44,45
 145 34 145 34 159 48 c 128,-1,46
 173 62 173 62 173 85 c 256,47,48
 173 108 173 108 159.5 121.5 c 128,-1,49
 146 135 146 135 122 135 c 256,50,51
 99 135 99 135 85.5 121.5 c 128,-1,52
 72 108 72 108 72 85 c 256,41,42
EndSplineSet
Fore
SplineSet
139 192 m 2,0,1
 139 304 139 304 247 327 c 1,2,3
 227 344 227 344 187.5 355 c 128,-1,4
 148 366 148 366 123 366 c 1,5,6
 130 466 130 466 187.5 513 c 128,-1,7
 245 560 245 560 356 560 c 0,8,9
 467 560 467 560 521 508 c 128,-1,10
 575 456 575 456 575 340 c 2,11,-1
 575 -196 l 1,12,-1
 526 -254 l 1,13,-1
 493 -254 l 1,14,-1
 493 349 l 2,15,16
 493 440 493 440 457.5 478 c 128,-1,17
 422 516 422 516 348 516 c 0,18,19
 285 516 285 516 248 483.5 c 128,-1,20
 211 451 211 451 207 389 c 1,21,22
 240 384 240 384 274 365 c 128,-1,23
 308 346 308 346 327 323 c 1,24,-1
 327 315 l 1,25,26
 270 304 270 304 245.5 273.5 c 128,-1,27
 221 243 221 243 221 191 c 2,28,-1
 221 84 l 2,29,30
 221 40 221 40 195 15.5 c 128,-1,31
 169 -9 169 -9 121 -9 c 0,32,33
 74 -9 74 -9 48 15.5 c 128,-1,34
 22 40 22 40 22 84 c 0,35,36
 22 128 22 128 46.5 153 c 128,-1,37
 71 178 71 178 115 178 c 0,38,39
 133 178 133 178 139 176 c 1,40,-1
 139 192 l 2,0,1
72 85 m 256,41,42
 72 62 72 62 85.5 48 c 128,-1,43
 99 34 99 34 122 34 c 256,44,45
 145 34 145 34 159 48 c 128,-1,46
 173 62 173 62 173 85 c 256,47,48
 173 108 173 108 159.5 121.5 c 128,-1,49
 146 135 146 135 122 135 c 256,50,51
 99 135 99 135 85.5 121.5 c 128,-1,52
 72 108 72 108 72 85 c 256,41,42
EndSplineSet
EndChar

StartChar: uni0E27
Encoding: 3623 3623 44
Width: 481
GlyphClass: 2
Flags: W
AnchorPoint: "Anchor-1" 405 0 basechar 0
AnchorPoint: "Anchor-0" 405 0 basechar 0
LayerCount: 2
Back
SplineSet
402 84 m 2,0,1
 402 40 402 40 376.5 15.5 c 128,-1,2
 351 -9 351 -9 302 -9 c 0,3,4
 255 -9 255 -9 229 15.5 c 128,-1,5
 203 40 203 40 203 84 c 0,6,7
 203 128 203 128 227.5 153 c 128,-1,8
 252 178 252 178 296 178 c 0,9,10
 314 178 314 178 320 176 c 1,11,-1
 320 335 l 2,12,13
 320 421 320 421 286 466.5 c 128,-1,14
 252 512 252 512 190 512 c 0,15,16
 152 512 152 512 115 500.5 c 128,-1,17
 78 489 78 489 21 454 c 1,18,-1
 -2 492 l 1,19,20
 98 560 98 560 205 560 c 0,21,22
 402 560 402 560 402 341 c 2,23,-1
 402 84 l 2,0,1
253 85 m 256,24,25
 253 62 253 62 266.5 48 c 128,-1,26
 280 34 280 34 303 34 c 256,27,28
 326 34 326 34 340 48 c 128,-1,29
 354 62 354 62 354 85 c 256,30,31
 354 108 354 108 340.5 121.5 c 128,-1,32
 327 135 327 135 303 135 c 256,33,34
 280 135 280 135 266.5 121.5 c 128,-1,35
 253 108 253 108 253 85 c 256,24,25
EndSplineSet
Fore
SplineSet
402 84 m 2,0,1
 402 40 402 40 376.5 15.5 c 128,-1,2
 351 -9 351 -9 302 -9 c 0,3,4
 255 -9 255 -9 229 15.5 c 128,-1,5
 203 40 203 40 203 84 c 0,6,7
 203 128 203 128 227.5 153 c 128,-1,8
 252 178 252 178 296 178 c 0,9,10
 314 178 314 178 320 176 c 1,11,-1
 320 335 l 2,12,13
 320 421 320 421 286 466.5 c 128,-1,14
 252 512 252 512 190 512 c 0,15,16
 152 512 152 512 115 500.5 c 128,-1,17
 78 489 78 489 21 454 c 1,18,-1
 -2 492 l 1,19,20
 98 560 98 560 205 560 c 0,21,22
 402 560 402 560 402 341 c 2,23,-1
 402 84 l 2,0,1
253 85 m 256,24,25
 253 62 253 62 266.5 48 c 128,-1,26
 280 34 280 34 303 34 c 256,27,28
 326 34 326 34 340 48 c 128,-1,29
 354 62 354 62 354 85 c 256,30,31
 354 108 354 108 340.5 121.5 c 128,-1,32
 327 135 327 135 303 135 c 256,33,34
 280 135 280 135 266.5 121.5 c 128,-1,35
 253 108 253 108 253 85 c 256,24,25
EndSplineSet
EndChar

StartChar: uni0E28
Encoding: 3624 3624 45
Width: 624
GlyphClass: 2
Flags: W
AnchorPoint: "Anchor-1" 547 0 basechar 0
AnchorPoint: "Anchor-0" 547 29 basechar 0
LayerCount: 2
Back
SplineSet
220 228 m 1,0,1
 201 208 201 208 190 164 c 128,-1,2
 179 120 179 120 178 62 c 2,3,-1
 178 0 l 1,4,-1
 96 0 l 1,5,-1
 96 68 l 2,6,7
 96 161 96 161 76 234 c 0,8,9
 64 277 64 277 59.5 303 c 128,-1,10
 55 329 55 329 55 356 c 0,11,12
 55 451 55 451 120.5 505.5 c 128,-1,13
 186 560 186 560 302 560 c 0,14,15
 420 560 420 560 481 507 c 1,16,17
 512 546 512 546 538 589 c 1,18,-1
 629 589 l 1,19,20
 587 515 587 515 522 454 c 1,21,22
 544 405 544 405 544 340 c 2,23,-1
 544 58 l 1,24,-1
 495 0 l 1,25,-1
 462 0 l 1,26,-1
 462 348 l 2,27,28
 462 376 462 376 457 402 c 1,29,30
 413 372 413 372 368 348 c 1,31,32
 396 323 396 323 396 278 c 0,33,34
 396 234 396 234 370 209.5 c 128,-1,35
 344 185 344 185 297 185 c 0,36,37
 243 185 243 185 220 228 c 1,0,1
435 457 m 1,38,39
 396 515 396 515 302 515 c 0,40,41
 220 515 220 515 173 476 c 128,-1,42
 126 437 126 437 126 370 c 0,43,44
 126 344 126 344 131.5 318 c 128,-1,45
 137 292 137 292 152 244 c 1,46,-1
 164 200 l 1,47,48
 182 271 182 271 199 304 c 128,-1,49
 216 337 216 337 240 354 c 128,-1,50
 264 371 264 371 297 371 c 0,51,52
 312 371 312 371 326 368 c 1,53,54
 392 412 392 412 435 457 c 1,38,39
246 277 m 256,55,56
 246 254 246 254 259 240.5 c 128,-1,57
 272 227 272 227 296 227 c 256,58,59
 319 227 319 227 333 240 c 128,-1,60
 347 253 347 253 347 277 c 256,61,62
 347 300 347 300 333 314 c 128,-1,63
 319 328 319 328 296 328 c 256,64,65
 273 328 273 328 259.5 314 c 128,-1,66
 246 300 246 300 246 277 c 256,55,56
EndSplineSet
Fore
SplineSet
220 228 m 1,0,1
 201 208 201 208 190 164 c 128,-1,2
 179 120 179 120 178 62 c 2,3,-1
 178 0 l 1,4,-1
 96 0 l 1,5,-1
 96 68 l 2,6,7
 96 161 96 161 76 234 c 0,8,9
 64 277 64 277 59.5 303 c 128,-1,10
 55 329 55 329 55 356 c 0,11,12
 55 451 55 451 120.5 505.5 c 128,-1,13
 186 560 186 560 302 560 c 0,14,15
 420 560 420 560 481 507 c 1,16,17
 512 546 512 546 538 589 c 1,18,-1
 629 589 l 1,19,20
 587 515 587 515 522 454 c 1,21,22
 544 405 544 405 544 340 c 2,23,-1
 544 58 l 1,24,-1
 495 0 l 1,25,-1
 462 0 l 1,26,-1
 462 348 l 2,27,28
 462 376 462 376 457 402 c 1,29,30
 413 372 413 372 368 348 c 1,31,32
 396 323 396 323 396 278 c 0,33,34
 396 234 396 234 370 209.5 c 128,-1,35
 344 185 344 185 297 185 c 0,36,37
 243 185 243 185 220 228 c 1,0,1
435 457 m 1,38,39
 396 515 396 515 302 515 c 0,40,41
 220 515 220 515 173 476 c 128,-1,42
 126 437 126 437 126 370 c 0,43,44
 126 344 126 344 131.5 318 c 128,-1,45
 137 292 137 292 152 244 c 1,46,-1
 164 200 l 1,47,48
 182 271 182 271 199 304 c 128,-1,49
 216 337 216 337 240 354 c 128,-1,50
 264 371 264 371 297 371 c 0,51,52
 312 371 312 371 326 368 c 1,53,54
 392 412 392 412 435 457 c 1,38,39
246 277 m 256,55,56
 246 254 246 254 259 240.5 c 128,-1,57
 272 227 272 227 296 227 c 256,58,59
 319 227 319 227 333 240 c 128,-1,60
 347 253 347 253 347 277 c 256,61,62
 347 300 347 300 333 314 c 128,-1,63
 319 328 319 328 296 328 c 256,64,65
 273 328 273 328 259.5 314 c 128,-1,66
 246 300 246 300 246 277 c 256,55,56
EndSplineSet
EndChar

StartChar: uni0E29
Encoding: 3625 3625 46
Width: 615
GlyphClass: 2
Flags: W
AnchorPoint: "Anchor-1" 537 0 basechar 0
AnchorPoint: "Anchor-0" 537 0 basechar 0
LayerCount: 2
Back
SplineSet
221 42 m 1,0,-1
 334 42 l 2,1,2
 392 42 392 42 422.5 81.5 c 128,-1,3
 453 121 453 121 453 190 c 2,4,-1
 453 215 l 1,5,6
 412 203 412 203 366 203 c 0,7,8
 247 203 247 203 247 296 c 0,9,10
 247 336 247 336 272 358 c 128,-1,11
 297 380 297 380 339 380 c 0,12,13
 382 380 382 380 405.5 358 c 128,-1,14
 429 336 429 336 429 301 c 0,15,16
 429 280 429 280 422 265.5 c 128,-1,17
 415 251 415 251 408 245 c 1,18,19
 432 251 432 251 453 260 c 1,20,-1
 453 492 l 1,21,-1
 502 550 l 1,22,-1
 535 550 l 1,23,-1
 535 314 l 1,24,25
 575 354 575 354 604 416 c 1,26,-1
 663 380 l 1,27,28
 608 289 608 289 535 242 c 1,29,-1
 535 173 l 2,30,31
 535 91 535 91 490.5 45.5 c 128,-1,32
 446 0 446 0 366 0 c 2,33,-1
 60 0 l 1,34,-1
 60 42 l 1,35,-1
 139 42 l 1,36,-1
 139 371 l 1,37,38
 134 369 134 369 115 369 c 0,39,40
 71 369 71 369 46.5 393 c 128,-1,41
 22 417 22 417 22 462 c 0,42,43
 22 506 22 506 48 530.5 c 128,-1,44
 74 555 74 555 121 555 c 0,45,46
 169 555 169 555 195 530.5 c 128,-1,47
 221 506 221 506 221 462 c 2,48,-1
 221 42 l 1,0,-1
72 462 m 256,49,50
 72 439 72 439 85.5 425.5 c 128,-1,51
 99 412 99 412 122 412 c 256,52,53
 145 412 145 412 159 425 c 128,-1,54
 173 438 173 438 173 462 c 256,55,56
 173 485 173 485 159.5 499 c 128,-1,57
 146 513 146 513 122 513 c 256,58,59
 99 513 99 513 85.5 499 c 128,-1,60
 72 485 72 485 72 462 c 256,49,50
295 295 m 0,61,62
 295 276 295 276 306.5 264.5 c 128,-1,63
 318 253 318 253 339 253 c 0,64,65
 357 253 357 253 369.5 264.5 c 128,-1,66
 382 276 382 276 382 295 c 0,67,68
 382 316 382 316 369.5 327 c 128,-1,69
 357 338 357 338 339 338 c 0,70,71
 318 338 318 338 306.5 327 c 128,-1,72
 295 316 295 316 295 295 c 0,61,62
EndSplineSet
Fore
SplineSet
221 42 m 1,0,-1
 334 42 l 2,1,2
 392 42 392 42 422.5 81.5 c 128,-1,3
 453 121 453 121 453 190 c 2,4,-1
 453 215 l 1,5,6
 412 203 412 203 366 203 c 0,7,8
 247 203 247 203 247 296 c 0,9,10
 247 336 247 336 272 358 c 128,-1,11
 297 380 297 380 339 380 c 0,12,13
 382 380 382 380 405.5 358 c 128,-1,14
 429 336 429 336 429 301 c 0,15,16
 429 280 429 280 422 265.5 c 128,-1,17
 415 251 415 251 408 245 c 1,18,19
 432 251 432 251 453 260 c 1,20,-1
 453 492 l 1,21,-1
 502 550 l 1,22,-1
 535 550 l 1,23,-1
 535 314 l 1,24,25
 575 354 575 354 604 416 c 1,26,-1
 663 380 l 1,27,28
 608 289 608 289 535 242 c 1,29,-1
 535 173 l 2,30,31
 535 91 535 91 490.5 45.5 c 128,-1,32
 446 0 446 0 366 0 c 2,33,-1
 60 0 l 1,34,-1
 60 42 l 1,35,-1
 139 42 l 1,36,-1
 139 371 l 1,37,38
 134 369 134 369 115 369 c 0,39,40
 71 369 71 369 46.5 393 c 128,-1,41
 22 417 22 417 22 462 c 0,42,43
 22 506 22 506 48 530.5 c 128,-1,44
 74 555 74 555 121 555 c 0,45,46
 169 555 169 555 195 530.5 c 128,-1,47
 221 506 221 506 221 462 c 2,48,-1
 221 42 l 1,0,-1
72 462 m 256,49,50
 72 439 72 439 85.5 425.5 c 128,-1,51
 99 412 99 412 122 412 c 256,52,53
 145 412 145 412 159 425 c 128,-1,54
 173 438 173 438 173 462 c 256,55,56
 173 485 173 485 159.5 499 c 128,-1,57
 146 513 146 513 122 513 c 256,58,59
 99 513 99 513 85.5 499 c 128,-1,60
 72 485 72 485 72 462 c 256,49,50
295 295 m 0,61,62
 295 276 295 276 306.5 264.5 c 128,-1,63
 318 253 318 253 339 253 c 0,64,65
 357 253 357 253 369.5 264.5 c 128,-1,66
 382 276 382 276 382 295 c 0,67,68
 382 316 382 316 369.5 327 c 128,-1,69
 357 338 357 338 339 338 c 0,70,71
 318 338 318 338 306.5 327 c 128,-1,72
 295 316 295 316 295 295 c 0,61,62
EndSplineSet
EndChar

StartChar: uni0E2A
Encoding: 3626 3626 47
Width: 591
GlyphClass: 2
Flags: W
AnchorPoint: "Anchor-1" 513 0 basechar 0
AnchorPoint: "Anchor-0" 513 29 basechar 0
LayerCount: 2
Back
SplineSet
152 175 m 1,0,1
 157 177 157 177 176 177 c 0,2,3
 220 177 220 177 244.5 152.5 c 128,-1,4
 269 128 269 128 269 84 c 0,5,6
 269 40 269 40 243 15.5 c 128,-1,7
 217 -9 217 -9 170 -9 c 0,8,9
 122 -9 122 -9 96 15.5 c 128,-1,10
 70 40 70 40 70 84 c 2,11,-1
 70 175 l 2,12,13
 70 254 70 254 110 291 c 128,-1,14
 150 328 150 328 229 329 c 1,15,16
 328 383 328 383 399 453 c 1,17,18
 359 512 359 512 276 512 c 0,19,20
 172 512 172 512 81 454 c 1,21,-1
 58 492 l 1,22,23
 157 560 157 560 285 560 c 0,24,25
 390 560 390 560 449 507 c 1,26,27
 479 545 479 545 506 589 c 1,28,-1
 597 589 l 1,29,30
 552 511 552 511 489 453 c 1,31,32
 512 404 512 404 512 342 c 2,33,-1
 512 58 l 1,34,-1
 463 0 l 1,35,-1
 430 0 l 1,36,-1
 430 85 l 1,37,38
 388 181 388 181 338 231 c 128,-1,39
 288 281 288 281 236 281 c 0,40,41
 152 281 152 281 152 193 c 2,42,-1
 152 175 l 1,0,1
430 170 m 1,43,-1
 430 335 l 2,44,45
 430 370 430 370 422 400 c 1,46,47
 360 357 360 357 280 321 c 1,48,49
 322 308 322 308 358.5 272 c 128,-1,50
 395 236 395 236 430 170 c 1,43,-1
219 84 m 256,51,52
 219 107 219 107 205.5 120.5 c 128,-1,53
 192 134 192 134 169 134 c 256,54,55
 146 134 146 134 132 120.5 c 128,-1,56
 118 107 118 107 118 84 c 256,57,58
 118 61 118 61 132 47 c 128,-1,59
 146 33 146 33 169 33 c 256,60,61
 192 33 192 33 205.5 47 c 128,-1,62
 219 61 219 61 219 84 c 256,51,52
EndSplineSet
Fore
SplineSet
152 175 m 1,0,1
 157 177 157 177 176 177 c 0,2,3
 220 177 220 177 244.5 152.5 c 128,-1,4
 269 128 269 128 269 84 c 0,5,6
 269 40 269 40 243 15.5 c 128,-1,7
 217 -9 217 -9 170 -9 c 0,8,9
 122 -9 122 -9 96 15.5 c 128,-1,10
 70 40 70 40 70 84 c 2,11,-1
 70 175 l 2,12,13
 70 254 70 254 110 291 c 128,-1,14
 150 328 150 328 229 329 c 1,15,16
 328 383 328 383 399 453 c 1,17,18
 359 512 359 512 276 512 c 0,19,20
 172 512 172 512 81 454 c 1,21,-1
 58 492 l 1,22,23
 157 560 157 560 285 560 c 0,24,25
 390 560 390 560 449 507 c 1,26,27
 479 545 479 545 506 589 c 1,28,-1
 597 589 l 1,29,30
 552 511 552 511 489 453 c 1,31,32
 512 404 512 404 512 342 c 2,33,-1
 512 58 l 1,34,-1
 463 0 l 1,35,-1
 430 0 l 1,36,-1
 430 85 l 1,37,38
 388 181 388 181 338 231 c 128,-1,39
 288 281 288 281 236 281 c 0,40,41
 152 281 152 281 152 193 c 2,42,-1
 152 175 l 1,0,1
430 170 m 1,43,-1
 430 335 l 2,44,45
 430 370 430 370 422 400 c 1,46,47
 360 357 360 357 280 321 c 1,48,49
 322 308 322 308 358.5 272 c 128,-1,50
 395 236 395 236 430 170 c 1,43,-1
219 84 m 256,51,52
 219 107 219 107 205.5 120.5 c 128,-1,53
 192 134 192 134 169 134 c 256,54,55
 146 134 146 134 132 120.5 c 128,-1,56
 118 107 118 107 118 84 c 256,57,58
 118 61 118 61 132 47 c 128,-1,59
 146 33 146 33 169 33 c 256,60,61
 192 33 192 33 205.5 47 c 128,-1,62
 219 61 219 61 219 84 c 256,51,52
EndSplineSet
EndChar

StartChar: uni0E2B
Encoding: 3627 3627 48
Width: 640
GlyphClass: 2
Flags: W
AnchorPoint: "Anchor-1" 566 0 basechar 0
AnchorPoint: "Anchor-0" 566 0 basechar 0
LayerCount: 2
Back
SplineSet
221 0 m 1,0,-1
 139 0 l 1,1,-1
 139 370 l 1,2,3
 134 368 134 368 115 368 c 0,4,5
 71 368 71 368 46.5 392.5 c 128,-1,6
 22 417 22 417 22 461 c 0,7,8
 22 505 22 505 48 530 c 128,-1,9
 74 555 74 555 121 555 c 0,10,11
 169 555 169 555 195 530 c 128,-1,12
 221 505 221 505 221 461 c 2,13,-1
 221 144 l 1,14,15
 248 198 248 198 305 261 c 128,-1,16
 362 324 362 324 422 368 c 1,17,18
 393 389 393 389 376.5 413.5 c 128,-1,19
 360 438 360 438 360 465 c 0,20,21
 360 509 360 509 387 532 c 128,-1,22
 414 555 414 555 459 555 c 0,23,24
 505 555 505 555 532.5 531 c 128,-1,25
 560 507 560 507 560 466 c 0,26,27
 560 418 560 418 507 376 c 1,28,29
 535 354 535 354 547.5 325.5 c 128,-1,30
 560 297 560 297 560 244 c 2,31,-1
 560 58 l 1,32,-1
 511 0 l 1,33,-1
 478 0 l 1,34,-1
 478 249 l 2,35,36
 478 284 478 284 470 308 c 128,-1,37
 462 332 462 332 452 341 c 1,38,39
 278 191 278 191 221 0 c 1,0,-1
72 461 m 256,40,41
 72 438 72 438 85.5 424.5 c 128,-1,42
 99 411 99 411 122 411 c 256,43,44
 145 411 145 411 159 424.5 c 128,-1,45
 173 438 173 438 173 461 c 256,46,47
 173 484 173 484 159.5 498 c 128,-1,48
 146 512 146 512 122 512 c 256,49,50
 99 512 99 512 85.5 498 c 128,-1,51
 72 484 72 484 72 461 c 256,40,41
459 512 m 0,52,53
 438 512 438 512 425 500 c 128,-1,54
 412 488 412 488 412 466 c 0,55,56
 412 429 412 429 463 400 c 1,57,58
 506 432 506 432 506 465 c 0,59,60
 506 488 506 488 492.5 500 c 128,-1,61
 479 512 479 512 459 512 c 0,52,53
EndSplineSet
Fore
SplineSet
221 0 m 1,0,-1
 139 0 l 1,1,-1
 139 370 l 1,2,3
 134 368 134 368 115 368 c 0,4,5
 71 368 71 368 46.5 392.5 c 128,-1,6
 22 417 22 417 22 461 c 0,7,8
 22 505 22 505 48 530 c 128,-1,9
 74 555 74 555 121 555 c 0,10,11
 169 555 169 555 195 530 c 128,-1,12
 221 505 221 505 221 461 c 2,13,-1
 221 144 l 1,14,15
 248 198 248 198 305 261 c 128,-1,16
 362 324 362 324 422 368 c 1,17,18
 393 389 393 389 376.5 413.5 c 128,-1,19
 360 438 360 438 360 465 c 0,20,21
 360 509 360 509 387 532 c 128,-1,22
 414 555 414 555 459 555 c 0,23,24
 505 555 505 555 532.5 531 c 128,-1,25
 560 507 560 507 560 466 c 0,26,27
 560 418 560 418 507 376 c 1,28,29
 535 354 535 354 547.5 325.5 c 128,-1,30
 560 297 560 297 560 244 c 2,31,-1
 560 58 l 1,32,-1
 511 0 l 1,33,-1
 478 0 l 1,34,-1
 478 249 l 2,35,36
 478 284 478 284 470 308 c 128,-1,37
 462 332 462 332 452 341 c 1,38,39
 278 191 278 191 221 0 c 1,0,-1
72 461 m 256,40,41
 72 438 72 438 85.5 424.5 c 128,-1,42
 99 411 99 411 122 411 c 256,43,44
 145 411 145 411 159 424.5 c 128,-1,45
 173 438 173 438 173 461 c 256,46,47
 173 484 173 484 159.5 498 c 128,-1,48
 146 512 146 512 122 512 c 256,49,50
 99 512 99 512 85.5 498 c 128,-1,51
 72 484 72 484 72 461 c 256,40,41
459 512 m 0,52,53
 438 512 438 512 425 500 c 128,-1,54
 412 488 412 488 412 466 c 0,55,56
 412 429 412 429 463 400 c 1,57,58
 506 432 506 432 506 465 c 0,59,60
 506 488 506 488 492.5 500 c 128,-1,61
 479 512 479 512 459 512 c 0,52,53
EndSplineSet
EndChar

StartChar: uni0E2C
Encoding: 3628 3628 49
Width: 695
GlyphClass: 2
Flags: W
AnchorPoint: "Anchor-1" 620 0 basechar 0
AnchorPoint: "Anchor-0" 620 146 basechar 0
LayerCount: 2
Back
SplineSet
516 0 m 1,0,-1
 377 471 l 1,1,-1
 239 0 l 1,2,-1
 139 0 l 1,3,-1
 139 370 l 1,4,5
 134 368 134 368 115 368 c 0,6,7
 71 368 71 368 46.5 392.5 c 128,-1,8
 22 417 22 417 22 461 c 0,9,10
 22 505 22 505 48 530 c 128,-1,11
 74 555 74 555 121 555 c 0,12,13
 169 555 169 555 195 530 c 128,-1,14
 221 505 221 505 221 461 c 2,15,-1
 221 109 l 1,16,-1
 352 545 l 1,17,-1
 403 545 l 1,18,-1
 534 109 l 1,19,-1
 534 521 l 1,20,21
 490 525 490 525 461.5 551 c 128,-1,22
 433 577 433 577 433 619 c 0,23,24
 433 657 433 657 458 680 c 128,-1,25
 483 703 483 703 525 703 c 256,26,27
 567 703 567 703 591 681.5 c 128,-1,28
 615 660 615 660 615 624 c 0,29,30
 615 603 615 603 607.5 586.5 c 128,-1,31
 600 570 600 570 590 562 c 1,32,33
 630 579 630 579 656.5 615.5 c 128,-1,34
 683 652 683 652 703 715 c 1,35,-1
 770 691 l 1,36,37
 722 556 722 556 616 528 c 1,38,-1
 616 0 l 1,39,-1
 516 0 l 1,0,-1
72 461 m 256,40,41
 72 438 72 438 85.5 424.5 c 128,-1,42
 99 411 99 411 122 411 c 256,43,44
 145 411 145 411 159 424.5 c 128,-1,45
 173 438 173 438 173 461 c 256,46,47
 173 484 173 484 159.5 498 c 128,-1,48
 146 512 146 512 122 512 c 256,49,50
 99 512 99 512 85.5 498 c 128,-1,51
 72 484 72 484 72 461 c 256,40,41
481 618 m 0,52,53
 481 599 481 599 492.5 587.5 c 128,-1,54
 504 576 504 576 525 576 c 0,55,56
 543 576 543 576 555.5 587.5 c 128,-1,57
 568 599 568 599 568 618 c 0,58,59
 568 639 568 639 555.5 650 c 128,-1,60
 543 661 543 661 525 661 c 0,61,62
 504 661 504 661 492.5 650 c 128,-1,63
 481 639 481 639 481 618 c 0,52,53
EndSplineSet
Fore
SplineSet
516 0 m 1,0,-1
 377 471 l 1,1,-1
 239 0 l 1,2,-1
 139 0 l 1,3,-1
 139 370 l 1,4,5
 134 368 134 368 115 368 c 0,6,7
 71 368 71 368 46.5 392.5 c 128,-1,8
 22 417 22 417 22 461 c 0,9,10
 22 505 22 505 48 530 c 128,-1,11
 74 555 74 555 121 555 c 0,12,13
 169 555 169 555 195 530 c 128,-1,14
 221 505 221 505 221 461 c 2,15,-1
 221 109 l 1,16,-1
 352 545 l 1,17,-1
 403 545 l 1,18,-1
 534 109 l 1,19,-1
 534 521 l 1,20,21
 490 525 490 525 461.5 551 c 128,-1,22
 433 577 433 577 433 619 c 0,23,24
 433 657 433 657 458 680 c 128,-1,25
 483 703 483 703 525 703 c 256,26,27
 567 703 567 703 591 681.5 c 128,-1,28
 615 660 615 660 615 624 c 0,29,30
 615 603 615 603 607.5 586.5 c 128,-1,31
 600 570 600 570 590 562 c 1,32,33
 630 579 630 579 656.5 615.5 c 128,-1,34
 683 652 683 652 703 715 c 1,35,-1
 770 691 l 1,36,37
 722 556 722 556 616 528 c 1,38,-1
 616 0 l 1,39,-1
 516 0 l 1,0,-1
72 461 m 256,40,41
 72 438 72 438 85.5 424.5 c 128,-1,42
 99 411 99 411 122 411 c 256,43,44
 145 411 145 411 159 424.5 c 128,-1,45
 173 438 173 438 173 461 c 256,46,47
 173 484 173 484 159.5 498 c 128,-1,48
 146 512 146 512 122 512 c 256,49,50
 99 512 99 512 85.5 498 c 128,-1,51
 72 484 72 484 72 461 c 256,40,41
481 618 m 0,52,53
 481 599 481 599 492.5 587.5 c 128,-1,54
 504 576 504 576 525 576 c 0,55,56
 543 576 543 576 555.5 587.5 c 128,-1,57
 568 599 568 599 568 618 c 0,58,59
 568 639 568 639 555.5 650 c 128,-1,60
 543 661 543 661 525 661 c 0,61,62
 504 661 504 661 492.5 650 c 128,-1,63
 481 639 481 639 481 618 c 0,52,53
EndSplineSet
EndChar

StartChar: uni0E2D
Encoding: 3629 3629 50
Width: 598
GlyphClass: 2
Flags: W
AnchorPoint: "Anchor-1" 513 0 basechar 0
AnchorPoint: "Anchor-0" 513 0 basechar 0
LayerCount: 2
Back
SplineSet
229 301 m 256,0,1
 229 324 229 324 216 338 c 128,-1,2
 203 352 203 352 179 352 c 256,3,4
 156 352 156 352 142 338 c 128,-1,5
 128 324 128 324 128 301 c 256,6,7
 128 278 128 278 142 264.5 c 128,-1,8
 156 251 156 251 179 251 c 256,9,10
 202 251 202 251 215.5 264.5 c 128,-1,11
 229 278 229 278 229 301 c 256,0,1
436 334 m 2,12,13
 436 421 436 421 395.5 466 c 128,-1,14
 355 511 355 511 282 511 c 0,15,16
 179 511 179 511 87 453 c 1,17,-1
 64 491 l 1,18,19
 166 559 166 559 291 559 c 0,20,21
 402 559 402 559 460 502 c 128,-1,22
 518 445 518 445 518 341 c 2,23,-1
 518 162 l 2,24,25
 518 84 518 84 476 42 c 128,-1,26
 434 0 434 0 349 0 c 2,27,-1
 249 0 l 2,28,29
 165 0 165 0 122.5 42 c 128,-1,30
 80 84 80 84 80 162 c 2,31,-1
 80 301 l 2,32,33
 80 345 80 345 106 369.5 c 128,-1,34
 132 394 132 394 180 394 c 0,35,36
 227 394 227 394 253 369.5 c 128,-1,37
 279 345 279 345 279 301 c 0,38,39
 279 257 279 257 254.5 232.5 c 128,-1,40
 230 208 230 208 186 208 c 0,41,42
 167 208 167 208 162 210 c 1,43,-1
 162 166 l 2,44,45
 162 106 162 106 190 74 c 128,-1,46
 218 42 218 42 281 42 c 2,47,-1
 317 42 l 2,48,49
 436 42 436 42 436 167 c 2,50,-1
 436 334 l 2,12,13
EndSplineSet
Fore
SplineSet
229 301 m 256,0,1
 229 324 229 324 216 338 c 128,-1,2
 203 352 203 352 179 352 c 256,3,4
 156 352 156 352 142 338 c 128,-1,5
 128 324 128 324 128 301 c 256,6,7
 128 278 128 278 142 264.5 c 128,-1,8
 156 251 156 251 179 251 c 256,9,10
 202 251 202 251 215.5 264.5 c 128,-1,11
 229 278 229 278 229 301 c 256,0,1
436 334 m 2,12,13
 436 421 436 421 395.5 466 c 128,-1,14
 355 511 355 511 282 511 c 0,15,16
 179 511 179 511 87 453 c 1,17,-1
 64 491 l 1,18,19
 166 559 166 559 291 559 c 0,20,21
 402 559 402 559 460 502 c 128,-1,22
 518 445 518 445 518 341 c 2,23,-1
 518 162 l 2,24,25
 518 84 518 84 476 42 c 128,-1,26
 434 0 434 0 349 0 c 2,27,-1
 249 0 l 2,28,29
 165 0 165 0 122.5 42 c 128,-1,30
 80 84 80 84 80 162 c 2,31,-1
 80 301 l 2,32,33
 80 345 80 345 106 369.5 c 128,-1,34
 132 394 132 394 180 394 c 0,35,36
 227 394 227 394 253 369.5 c 128,-1,37
 279 345 279 345 279 301 c 0,38,39
 279 257 279 257 254.5 232.5 c 128,-1,40
 230 208 230 208 186 208 c 0,41,42
 167 208 167 208 162 210 c 1,43,-1
 162 166 l 2,44,45
 162 106 162 106 190 74 c 128,-1,46
 218 42 218 42 281 42 c 2,47,-1
 317 42 l 2,48,49
 436 42 436 42 436 167 c 2,50,-1
 436 334 l 2,12,13
EndSplineSet
EndChar

StartChar: uni0E2E
Encoding: 3630 3630 51
Width: 598
GlyphClass: 2
Flags: W
AnchorPoint: "Anchor-1" 513 0 basechar 0
AnchorPoint: "Anchor-0" 513 29 basechar 0
LayerCount: 2
Back
SplineSet
229 260 m 256,0,1
 229 283 229 283 216 297 c 128,-1,2
 203 311 203 311 179 311 c 256,3,4
 156 311 156 311 142 297 c 128,-1,5
 128 283 128 283 128 260 c 256,6,7
 128 237 128 237 142 223.5 c 128,-1,8
 156 210 156 210 179 210 c 256,9,10
 202 210 202 210 215.5 223.5 c 128,-1,11
 229 237 229 237 229 260 c 256,0,1
518 162 m 2,12,13
 518 84 518 84 476 42 c 128,-1,14
 434 0 434 0 349 0 c 2,15,-1
 249 0 l 2,16,17
 165 0 165 0 122.5 42 c 128,-1,18
 80 84 80 84 80 162 c 2,19,-1
 80 260 l 2,20,21
 80 304 80 304 106 328.5 c 128,-1,22
 132 353 132 353 180 353 c 0,23,24
 227 353 227 353 253 328.5 c 128,-1,25
 279 304 279 304 279 260 c 0,26,27
 279 216 279 216 254.5 191.5 c 128,-1,28
 230 167 230 167 186 167 c 0,29,30
 167 167 167 167 162 169 c 1,31,-1
 162 166 l 2,32,33
 162 106 162 106 190 74 c 128,-1,34
 218 42 218 42 281 42 c 2,35,-1
 317 42 l 2,36,37
 436 42 436 42 436 167 c 2,38,-1
 436 379 l 2,39,40
 436 388 436 388 434.5 399.5 c 128,-1,41
 433 411 433 411 431 414 c 1,42,43
 398 397 398 397 351.5 387.5 c 128,-1,44
 305 378 305 378 259 378 c 0,45,46
 174 378 174 378 126 402.5 c 128,-1,47
 78 427 78 427 78 469 c 256,48,49
 78 511 78 511 129.5 535.5 c 128,-1,50
 181 560 181 560 268 560 c 0,51,52
 390 560 390 560 458 514 c 1,53,54
 478 543 478 543 487 589 c 1,55,-1
 577 589 l 1,56,57
 568 553 568 553 547.5 515 c 128,-1,58
 527 477 527 477 506 456 c 1,59,60
 518 427 518 427 518 385 c 2,61,-1
 518 162 l 2,12,13
280 525 m 0,62,63
 227 525 227 525 195 509 c 128,-1,64
 163 493 163 493 163 468 c 0,65,66
 163 443 163 443 189.5 429 c 128,-1,67
 216 415 216 415 262 415 c 0,68,69
 360 415 360 415 421 463 c 1,70,71
 405 491 405 491 365 508 c 128,-1,72
 325 525 325 525 280 525 c 0,62,63
EndSplineSet
Fore
SplineSet
229 260 m 256,0,1
 229 283 229 283 216 297 c 128,-1,2
 203 311 203 311 179 311 c 256,3,4
 156 311 156 311 142 297 c 128,-1,5
 128 283 128 283 128 260 c 256,6,7
 128 237 128 237 142 223.5 c 128,-1,8
 156 210 156 210 179 210 c 256,9,10
 202 210 202 210 215.5 223.5 c 128,-1,11
 229 237 229 237 229 260 c 256,0,1
518 162 m 2,12,13
 518 84 518 84 476 42 c 128,-1,14
 434 0 434 0 349 0 c 2,15,-1
 249 0 l 2,16,17
 165 0 165 0 122.5 42 c 128,-1,18
 80 84 80 84 80 162 c 2,19,-1
 80 260 l 2,20,21
 80 304 80 304 106 328.5 c 128,-1,22
 132 353 132 353 180 353 c 0,23,24
 227 353 227 353 253 328.5 c 128,-1,25
 279 304 279 304 279 260 c 0,26,27
 279 216 279 216 254.5 191.5 c 128,-1,28
 230 167 230 167 186 167 c 0,29,30
 167 167 167 167 162 169 c 1,31,-1
 162 166 l 2,32,33
 162 106 162 106 190 74 c 128,-1,34
 218 42 218 42 281 42 c 2,35,-1
 317 42 l 2,36,37
 436 42 436 42 436 167 c 2,38,-1
 436 379 l 2,39,40
 436 388 436 388 434.5 399.5 c 128,-1,41
 433 411 433 411 431 414 c 1,42,43
 398 397 398 397 351.5 387.5 c 128,-1,44
 305 378 305 378 259 378 c 0,45,46
 174 378 174 378 126 402.5 c 128,-1,47
 78 427 78 427 78 469 c 256,48,49
 78 511 78 511 129.5 535.5 c 128,-1,50
 181 560 181 560 268 560 c 0,51,52
 390 560 390 560 458 514 c 1,53,54
 478 543 478 543 487 589 c 1,55,-1
 577 589 l 1,56,57
 568 553 568 553 547.5 515 c 128,-1,58
 527 477 527 477 506 456 c 1,59,60
 518 427 518 427 518 385 c 2,61,-1
 518 162 l 2,12,13
280 525 m 0,62,63
 227 525 227 525 195 509 c 128,-1,64
 163 493 163 493 163 468 c 0,65,66
 163 443 163 443 189.5 429 c 128,-1,67
 216 415 216 415 262 415 c 0,68,69
 360 415 360 415 421 463 c 1,70,71
 405 491 405 491 365 508 c 128,-1,72
 325 525 325 525 280 525 c 0,62,63
EndSplineSet
EndChar

StartChar: uni0E2F
Encoding: 3631 3631 52
Width: 535
GlyphClass: 2
Flags: W
LayerCount: 2
Back
SplineSet
70 439 m 0,0,1
 70 420 70 420 81.5 408.5 c 128,-1,2
 93 397 93 397 114 397 c 0,3,4
 133 397 133 397 145 408.5 c 128,-1,5
 157 420 157 420 157 439 c 0,6,7
 157 460 157 460 144.5 471 c 128,-1,8
 132 482 132 482 114 482 c 0,9,10
 93 482 93 482 81.5 471 c 128,-1,11
 70 460 70 460 70 439 c 0,0,1
455 550 m 1,12,-1
 455 58 l 1,13,-1
 406 0 l 1,14,-1
 373 0 l 1,15,-1
 373 445 l 1,16,17
 314 388 314 388 257.5 362.5 c 128,-1,18
 201 337 201 337 143 337 c 256,19,20
 85 337 85 337 53.5 364.5 c 128,-1,21
 22 392 22 392 22 440 c 0,22,23
 22 480 22 480 47 502 c 128,-1,24
 72 524 72 524 114 524 c 0,25,26
 157 524 157 524 180.5 501.5 c 128,-1,27
 204 479 204 479 204 440 c 0,28,29
 204 419 204 419 196 402.5 c 128,-1,30
 188 386 188 386 177 378 c 1,31,32
 245 394 245 394 296 438.5 c 128,-1,33
 347 483 347 483 377 550 c 1,34,-1
 455 550 l 1,12,-1
EndSplineSet
Fore
SplineSet
70 439 m 0,0,1
 70 420 70 420 81.5 408.5 c 128,-1,2
 93 397 93 397 114 397 c 0,3,4
 133 397 133 397 145 408.5 c 128,-1,5
 157 420 157 420 157 439 c 0,6,7
 157 460 157 460 144.5 471 c 128,-1,8
 132 482 132 482 114 482 c 0,9,10
 93 482 93 482 81.5 471 c 128,-1,11
 70 460 70 460 70 439 c 0,0,1
455 550 m 1,12,-1
 455 58 l 1,13,-1
 406 0 l 1,14,-1
 373 0 l 1,15,-1
 373 445 l 1,16,17
 314 388 314 388 257.5 362.5 c 128,-1,18
 201 337 201 337 143 337 c 256,19,20
 85 337 85 337 53.5 364.5 c 128,-1,21
 22 392 22 392 22 440 c 0,22,23
 22 480 22 480 47 502 c 128,-1,24
 72 524 72 524 114 524 c 0,25,26
 157 524 157 524 180.5 501.5 c 128,-1,27
 204 479 204 479 204 440 c 0,28,29
 204 419 204 419 196 402.5 c 128,-1,30
 188 386 188 386 177 378 c 1,31,32
 245 394 245 394 296 438.5 c 128,-1,33
 347 483 347 483 377 550 c 1,34,-1
 455 550 l 1,12,-1
EndSplineSet
EndChar

StartChar: uni0E30
Encoding: 3632 3632 53
Width: 488
GlyphClass: 2
Flags: W
AnchorPoint: "Anchor-1" 449 0 basechar 0
AnchorPoint: "Anchor-0" 449 0 basechar 0
LayerCount: 2
Back
SplineSet
200 340 m 1,0,1
 264 355 264 355 314 398 c 128,-1,2
 364 441 364 441 396 511 c 1,3,-1
 455 475 l 1,4,5
 404 389 404 389 328 343.5 c 128,-1,6
 252 298 252 298 160 298 c 0,7,8
 101 298 101 298 70 321.5 c 128,-1,9
 39 345 39 345 39 391 c 0,10,11
 39 430 39 430 64 452.5 c 128,-1,12
 89 475 89 475 131 475 c 0,13,14
 174 475 174 475 197.5 453 c 128,-1,15
 221 431 221 431 221 396 c 0,16,17
 221 375 221 375 214 360.5 c 128,-1,18
 207 346 207 346 200 340 c 1,0,1
87 390 m 0,19,20
 87 371 87 371 98.5 359.5 c 128,-1,21
 110 348 110 348 131 348 c 0,22,23
 149 348 149 348 161.5 360 c 128,-1,24
 174 372 174 372 174 390 c 0,25,26
 174 411 174 411 161.5 422 c 128,-1,27
 149 433 149 433 131 433 c 0,28,29
 110 433 110 433 98.5 422 c 128,-1,30
 87 411 87 411 87 390 c 0,19,20
200 101 m 1,31,32
 264 116 264 116 314.5 159.5 c 128,-1,33
 365 203 365 203 396 272 c 1,34,-1
 455 236 l 1,35,36
 405 151 405 151 328.5 105 c 128,-1,37
 252 59 252 59 160 59 c 0,38,39
 101 59 101 59 70 82.5 c 128,-1,40
 39 106 39 106 39 152 c 0,41,42
 39 192 39 192 64 214 c 128,-1,43
 89 236 89 236 131 236 c 0,44,45
 174 236 174 236 197.5 214 c 128,-1,46
 221 192 221 192 221 157 c 0,47,48
 221 136 221 136 214 121.5 c 128,-1,49
 207 107 207 107 200 101 c 1,31,32
87 151 m 0,50,51
 87 132 87 132 98.5 120.5 c 128,-1,52
 110 109 110 109 131 109 c 0,53,54
 149 109 149 109 161.5 120.5 c 128,-1,55
 174 132 174 132 174 151 c 0,56,57
 174 172 174 172 161.5 183 c 128,-1,58
 149 194 149 194 131 194 c 0,59,60
 110 194 110 194 98.5 183 c 128,-1,61
 87 172 87 172 87 151 c 0,50,51
EndSplineSet
Fore
SplineSet
200 340 m 1,0,1
 264 355 264 355 314 398 c 128,-1,2
 364 441 364 441 396 511 c 1,3,-1
 455 475 l 1,4,5
 404 389 404 389 328 343.5 c 128,-1,6
 252 298 252 298 160 298 c 0,7,8
 101 298 101 298 70 321.5 c 128,-1,9
 39 345 39 345 39 391 c 0,10,11
 39 430 39 430 64 452.5 c 128,-1,12
 89 475 89 475 131 475 c 0,13,14
 174 475 174 475 197.5 453 c 128,-1,15
 221 431 221 431 221 396 c 0,16,17
 221 375 221 375 214 360.5 c 128,-1,18
 207 346 207 346 200 340 c 1,0,1
87 390 m 0,19,20
 87 371 87 371 98.5 359.5 c 128,-1,21
 110 348 110 348 131 348 c 0,22,23
 149 348 149 348 161.5 360 c 128,-1,24
 174 372 174 372 174 390 c 0,25,26
 174 411 174 411 161.5 422 c 128,-1,27
 149 433 149 433 131 433 c 0,28,29
 110 433 110 433 98.5 422 c 128,-1,30
 87 411 87 411 87 390 c 0,19,20
200 101 m 1,31,32
 264 116 264 116 314.5 159.5 c 128,-1,33
 365 203 365 203 396 272 c 1,34,-1
 455 236 l 1,35,36
 405 151 405 151 328.5 105 c 128,-1,37
 252 59 252 59 160 59 c 0,38,39
 101 59 101 59 70 82.5 c 128,-1,40
 39 106 39 106 39 152 c 0,41,42
 39 192 39 192 64 214 c 128,-1,43
 89 236 89 236 131 236 c 0,44,45
 174 236 174 236 197.5 214 c 128,-1,46
 221 192 221 192 221 157 c 0,47,48
 221 136 221 136 214 121.5 c 128,-1,49
 207 107 207 107 200 101 c 1,31,32
87 151 m 0,50,51
 87 132 87 132 98.5 120.5 c 128,-1,52
 110 109 110 109 131 109 c 0,53,54
 149 109 149 109 161.5 120.5 c 128,-1,55
 174 132 174 132 174 151 c 0,56,57
 174 172 174 172 161.5 183 c 128,-1,58
 149 194 149 194 131 194 c 0,59,60
 110 194 110 194 98.5 183 c 128,-1,61
 87 172 87 172 87 151 c 0,50,51
EndSplineSet
EndChar

StartChar: uni0E31
Encoding: 3633 3633 54
Width: 0
GlyphClass: 4
Flags: W
AnchorPoint: "Anchor-2" 15 0 basemark 0
AnchorPoint: "Anchor-2" 15 -254 mark 0
AnchorPoint: "Anchor-0" -107 0 mark 0
LayerCount: 2
Back
SplineSet
-200 597 m 0,0,1
 -252 597 -252 597 -285 624 c 128,-1,2
 -318 651 -318 651 -318 695 c 0,3,4
 -318 734 -318 734 -293.5 756.5 c 128,-1,5
 -269 779 -269 779 -226 779 c 0,6,7
 -184 779 -184 779 -160 757 c 128,-1,8
 -136 735 -136 735 -136 700 c 0,9,10
 -136 679 -136 679 -143.5 662.5 c 128,-1,11
 -151 646 -151 646 -161 638 c 1,12,13
 -69 657 -69 657 -22 791 c 1,14,-1
 53 767 l 1,15,16
 23 682 23 682 -38.5 639.5 c 128,-1,17
 -100 597 -100 597 -200 597 c 0,0,1
-270 694 m 0,18,19
 -270 675 -270 675 -258.5 663.5 c 128,-1,20
 -247 652 -247 652 -226 652 c 0,21,22
 -208 652 -208 652 -195.5 663.5 c 128,-1,23
 -183 675 -183 675 -183 694 c 0,24,25
 -183 715 -183 715 -195.5 726 c 128,-1,26
 -208 737 -208 737 -226 737 c 0,27,28
 -247 737 -247 737 -258.5 726 c 128,-1,29
 -270 715 -270 715 -270 694 c 0,18,19
EndSplineSet
Fore
SplineSet
-200 597 m 0,0,1
 -252 597 -252 597 -285 624 c 128,-1,2
 -318 651 -318 651 -318 695 c 0,3,4
 -318 734 -318 734 -293.5 756.5 c 128,-1,5
 -269 779 -269 779 -226 779 c 0,6,7
 -184 779 -184 779 -160 757 c 128,-1,8
 -136 735 -136 735 -136 700 c 0,9,10
 -136 679 -136 679 -143.5 662.5 c 128,-1,11
 -151 646 -151 646 -161 638 c 1,12,13
 -69 657 -69 657 -22 791 c 1,14,-1
 53 767 l 1,15,16
 23 682 23 682 -38.5 639.5 c 128,-1,17
 -100 597 -100 597 -200 597 c 0,0,1
-270 694 m 0,18,19
 -270 675 -270 675 -258.5 663.5 c 128,-1,20
 -247 652 -247 652 -226 652 c 0,21,22
 -208 652 -208 652 -195.5 663.5 c 128,-1,23
 -183 675 -183 675 -183 694 c 0,24,25
 -183 715 -183 715 -195.5 726 c 128,-1,26
 -208 737 -208 737 -226 737 c 0,27,28
 -247 737 -247 737 -258.5 726 c 128,-1,29
 -270 715 -270 715 -270 694 c 0,18,19
EndSplineSet
EndChar

StartChar: uni0E32
Encoding: 3634 3634 55
Width: 481
GlyphClass: 2
Flags: W
AnchorPoint: "Anchor-1" 405 0 basechar 0
AnchorPoint: "Anchor-0" 405 0 basechar 0
LayerCount: 2
Back
SplineSet
402 58 m 1,0,-1
 353 0 l 1,1,-1
 320 0 l 1,2,-1
 320 335 l 2,3,4
 320 421 320 421 286 466.5 c 128,-1,5
 252 512 252 512 190 512 c 0,6,7
 152 512 152 512 115 500.5 c 128,-1,8
 78 489 78 489 21 454 c 1,9,-1
 -2 492 l 1,10,11
 98 560 98 560 205 560 c 0,12,13
 402 560 402 560 402 340 c 2,14,-1
 402 58 l 1,0,-1
EndSplineSet
Fore
SplineSet
402 58 m 1,0,-1
 353 0 l 1,1,-1
 320 0 l 1,2,-1
 320 335 l 2,3,4
 320 421 320 421 286 466.5 c 128,-1,5
 252 512 252 512 190 512 c 0,6,7
 152 512 152 512 115 500.5 c 128,-1,8
 78 489 78 489 21 454 c 1,9,-1
 -2 492 l 1,10,11
 98 560 98 560 205 560 c 0,12,13
 402 560 402 560 402 340 c 2,14,-1
 402 58 l 1,0,-1
EndSplineSet
EndChar

StartChar: uni0E33
Encoding: 3635 3635 56
Width: 481
GlyphClass: 2
Flags: W
LayerCount: 2
Back
SplineSet
-225 685 m 0,0,1
 -225 724 -225 724 -202 746.5 c 128,-1,2
 -179 769 -179 769 -136 769 c 0,3,4
 -92 769 -92 769 -68.5 746.5 c 128,-1,5
 -45 724 -45 724 -45 685 c 0,6,7
 -45 645 -45 645 -68.5 623 c 128,-1,8
 -92 601 -92 601 -136 601 c 0,9,10
 -179 601 -179 601 -202 623 c 128,-1,11
 -225 645 -225 645 -225 685 c 0,0,1
-181 685 m 256,12,13
 -181 664 -181 664 -168 652 c 128,-1,14
 -155 640 -155 640 -135 640 c 0,15,16
 -115 640 -115 640 -102 652.5 c 128,-1,17
 -89 665 -89 665 -89 685 c 256,18,19
 -89 706 -89 706 -102 718 c 128,-1,20
 -115 730 -115 730 -135 730 c 0,21,22
 -156 730 -156 730 -168.5 718 c 128,-1,23
 -181 706 -181 706 -181 685 c 256,12,13
402 58 m 1,24,-1
 353 0 l 1,25,-1
 320 0 l 1,26,-1
 320 335 l 2,27,28
 320 421 320 421 286 466.5 c 128,-1,29
 252 512 252 512 190 512 c 0,30,31
 152 512 152 512 115 500.5 c 128,-1,32
 78 489 78 489 21 454 c 1,33,-1
 -2 492 l 1,34,35
 98 560 98 560 205 560 c 0,36,37
 402 560 402 560 402 340 c 2,38,-1
 402 58 l 1,24,-1
EndSplineSet
Fore
SplineSet
-225 685 m 0,0,1
 -225 724 -225 724 -202 746.5 c 128,-1,2
 -179 769 -179 769 -136 769 c 0,3,4
 -92 769 -92 769 -68.5 746.5 c 128,-1,5
 -45 724 -45 724 -45 685 c 0,6,7
 -45 645 -45 645 -68.5 623 c 128,-1,8
 -92 601 -92 601 -136 601 c 0,9,10
 -179 601 -179 601 -202 623 c 128,-1,11
 -225 645 -225 645 -225 685 c 0,0,1
-181 685 m 256,12,13
 -181 664 -181 664 -168 652 c 128,-1,14
 -155 640 -155 640 -135 640 c 0,15,16
 -115 640 -115 640 -102 652.5 c 128,-1,17
 -89 665 -89 665 -89 685 c 256,18,19
 -89 706 -89 706 -102 718 c 128,-1,20
 -115 730 -115 730 -135 730 c 0,21,22
 -156 730 -156 730 -168.5 718 c 128,-1,23
 -181 706 -181 706 -181 685 c 256,12,13
402 58 m 1,24,-1
 353 0 l 1,25,-1
 320 0 l 1,26,-1
 320 335 l 2,27,28
 320 421 320 421 286 466.5 c 128,-1,29
 252 512 252 512 190 512 c 0,30,31
 152 512 152 512 115 500.5 c 128,-1,32
 78 489 78 489 21 454 c 1,33,-1
 -2 492 l 1,34,35
 98 560 98 560 205 560 c 0,36,37
 402 560 402 560 402 340 c 2,38,-1
 402 58 l 1,24,-1
EndSplineSet
MultipleSubs2: "'ccmp' Glyph Composition/Decomposition in Thai lookup 1 subtable" uni0E4D uni0E32
EndChar

StartChar: uni0E34
Encoding: 3636 3636 57
Width: 0
GlyphClass: 4
Flags: W
AnchorPoint: "Anchor-2" 0 0 basemark 0
AnchorPoint: "Anchor-2" 0 -254 mark 0
AnchorPoint: "Anchor-0" -83 0 mark 0
LayerCount: 2
Back
SplineSet
-90 589 m 1,0,1
 -215 615 -215 615 -311 625.5 c 128,-1,2
 -407 636 -407 636 -513 636 c 1,3,4
 -496 710 -496 710 -445 751 c 128,-1,5
 -394 792 -394 792 -322 792 c 0,6,7
 -232 792 -232 792 -171.5 740 c 128,-1,8
 -111 688 -111 688 -90 589 c 1,0,1
-313 733 m 0,9,10
 -405 733 -405 733 -432 671 c 1,11,12
 -353 671 -353 671 -283.5 660 c 128,-1,13
 -214 649 -214 649 -152 635 c 1,14,15
 -173 679 -173 679 -213.5 706 c 128,-1,16
 -254 733 -254 733 -313 733 c 0,9,10
EndSplineSet
Fore
SplineSet
-90 589 m 1,0,1
 -215 615 -215 615 -311 625.5 c 128,-1,2
 -407 636 -407 636 -513 636 c 1,3,4
 -496 710 -496 710 -445 751 c 128,-1,5
 -394 792 -394 792 -322 792 c 0,6,7
 -232 792 -232 792 -171.5 740 c 128,-1,8
 -111 688 -111 688 -90 589 c 1,0,1
-313 733 m 0,9,10
 -405 733 -405 733 -432 671 c 1,11,12
 -353 671 -353 671 -283.5 660 c 128,-1,13
 -214 649 -214 649 -152 635 c 1,14,15
 -173 679 -173 679 -213.5 706 c 128,-1,16
 -254 733 -254 733 -313 733 c 0,9,10
EndSplineSet
EndChar

StartChar: uni0E35
Encoding: 3637 3637 58
Width: 0
GlyphClass: 4
Flags: W
AnchorPoint: "Anchor-2" 0 0 basemark 0
AnchorPoint: "Anchor-2" 0 -254 mark 0
AnchorPoint: "Anchor-0" -83 0 mark 0
LayerCount: 2
Back
SplineSet
-90 589 m 1,0,1
 -215 615 -215 615 -311 625.5 c 128,-1,2
 -407 636 -407 636 -513 636 c 1,3,4
 -496 710 -496 710 -445 751 c 128,-1,5
 -394 792 -394 792 -322 792 c 0,6,7
 -223 792 -223 792 -161 730 c 1,8,-1
 -161 826 l 1,9,-1
 -107 826 l 1,10,-1
 -107 646 l 1,11,12
 -96 619 -96 619 -90 589 c 1,0,1
-313 733 m 0,13,14
 -405 733 -405 733 -432 671 c 1,15,16
 -353 671 -353 671 -283.5 660 c 128,-1,17
 -214 649 -214 649 -152 635 c 1,18,19
 -173 679 -173 679 -213.5 706 c 128,-1,20
 -254 733 -254 733 -313 733 c 0,13,14
EndSplineSet
Fore
SplineSet
-90 589 m 1,0,1
 -215 615 -215 615 -311 625.5 c 128,-1,2
 -407 636 -407 636 -513 636 c 1,3,4
 -496 710 -496 710 -445 751 c 128,-1,5
 -394 792 -394 792 -322 792 c 0,6,7
 -223 792 -223 792 -161 730 c 1,8,-1
 -161 826 l 1,9,-1
 -107 826 l 1,10,-1
 -107 646 l 1,11,12
 -96 619 -96 619 -90 589 c 1,0,1
-313 733 m 0,13,14
 -405 733 -405 733 -432 671 c 1,15,16
 -353 671 -353 671 -283.5 660 c 128,-1,17
 -214 649 -214 649 -152 635 c 1,18,19
 -173 679 -173 679 -213.5 706 c 128,-1,20
 -254 733 -254 733 -313 733 c 0,13,14
EndSplineSet
EndChar

StartChar: uni0E36
Encoding: 3638 3638 59
Width: 0
GlyphClass: 4
Flags: W
AnchorPoint: "Anchor-2" 0 0 basemark 0
AnchorPoint: "Anchor-2" 0 -254 mark 0
AnchorPoint: "Anchor-0" -83 0 mark 0
LayerCount: 2
Back
SplineSet
-90 589 m 1,0,1
 -215 615 -215 615 -311 625.5 c 128,-1,2
 -407 636 -407 636 -513 636 c 1,3,4
 -496 710 -496 710 -445 751 c 128,-1,5
 -394 792 -394 792 -322 792 c 0,6,7
 -254 792 -254 792 -202 762 c 1,8,9
 -194 787 -194 787 -172.5 803 c 128,-1,10
 -151 819 -151 819 -124 819 c 0,11,12
 -89 819 -89 819 -65.5 795.5 c 128,-1,13
 -42 772 -42 772 -42 737 c 0,14,15
 -42 707 -42 707 -60.5 684 c 128,-1,16
 -79 661 -79 661 -111 656 c 1,17,18
 -99 630 -99 630 -90 589 c 1,0,1
-313 733 m 0,19,20
 -405 733 -405 733 -432 671 c 1,21,22
 -353 671 -353 671 -283.5 660 c 128,-1,23
 -214 649 -214 649 -152 635 c 1,24,25
 -173 679 -173 679 -213.5 706 c 128,-1,26
 -254 733 -254 733 -313 733 c 0,19,20
-163 737 m 256,27,28
 -163 720 -163 720 -151.5 708.5 c 128,-1,29
 -140 697 -140 697 -123 697 c 256,30,31
 -106 697 -106 697 -94.5 709 c 128,-1,32
 -83 721 -83 721 -83 737 c 256,33,34
 -83 753 -83 753 -95 765.5 c 128,-1,35
 -107 778 -107 778 -123 778 c 0,36,37
 -140 778 -140 778 -151.5 766 c 128,-1,38
 -163 754 -163 754 -163 737 c 256,27,28
EndSplineSet
Fore
SplineSet
-90 589 m 1,0,1
 -215 615 -215 615 -311 625.5 c 128,-1,2
 -407 636 -407 636 -513 636 c 1,3,4
 -496 710 -496 710 -445 751 c 128,-1,5
 -394 792 -394 792 -322 792 c 0,6,7
 -254 792 -254 792 -202 762 c 1,8,9
 -194 787 -194 787 -172.5 803 c 128,-1,10
 -151 819 -151 819 -124 819 c 0,11,12
 -89 819 -89 819 -65.5 795.5 c 128,-1,13
 -42 772 -42 772 -42 737 c 0,14,15
 -42 707 -42 707 -60.5 684 c 128,-1,16
 -79 661 -79 661 -111 656 c 1,17,18
 -99 630 -99 630 -90 589 c 1,0,1
-313 733 m 0,19,20
 -405 733 -405 733 -432 671 c 1,21,22
 -353 671 -353 671 -283.5 660 c 128,-1,23
 -214 649 -214 649 -152 635 c 1,24,25
 -173 679 -173 679 -213.5 706 c 128,-1,26
 -254 733 -254 733 -313 733 c 0,19,20
-163 737 m 256,27,28
 -163 720 -163 720 -151.5 708.5 c 128,-1,29
 -140 697 -140 697 -123 697 c 256,30,31
 -106 697 -106 697 -94.5 709 c 128,-1,32
 -83 721 -83 721 -83 737 c 256,33,34
 -83 753 -83 753 -95 765.5 c 128,-1,35
 -107 778 -107 778 -123 778 c 0,36,37
 -140 778 -140 778 -151.5 766 c 128,-1,38
 -163 754 -163 754 -163 737 c 256,27,28
EndSplineSet
EndChar

StartChar: uni0E37
Encoding: 3639 3639 60
Width: 0
GlyphClass: 4
Flags: W
AnchorPoint: "Anchor-2" 0 0 basemark 0
AnchorPoint: "Anchor-2" 0 -254 mark 0
AnchorPoint: "Anchor-0" -83 0 mark 0
LayerCount: 2
Back
SplineSet
-90 589 m 1,0,1
 -215 615 -215 615 -311 625.5 c 128,-1,2
 -407 636 -407 636 -513 636 c 1,3,4
 -496 710 -496 710 -445 751 c 128,-1,5
 -394 792 -394 792 -322 792 c 0,6,7
 -287 792 -287 792 -262 785 c 1,8,-1
 -262 826 l 1,9,-1
 -208 826 l 1,10,-1
 -208 765 l 1,11,12
 -177 747 -177 747 -159 728 c 1,13,-1
 -159 826 l 1,14,-1
 -105 826 l 1,15,-1
 -105 641 l 1,16,17
 -98 622 -98 622 -90 589 c 1,0,1
-313 733 m 0,18,19
 -405 733 -405 733 -432 671 c 1,20,21
 -353 671 -353 671 -283.5 660 c 128,-1,22
 -214 649 -214 649 -152 635 c 1,23,24
 -173 679 -173 679 -213.5 706 c 128,-1,25
 -254 733 -254 733 -313 733 c 0,18,19
EndSplineSet
Fore
SplineSet
-90 589 m 1,0,1
 -215 615 -215 615 -311 625.5 c 128,-1,2
 -407 636 -407 636 -513 636 c 1,3,4
 -496 710 -496 710 -445 751 c 128,-1,5
 -394 792 -394 792 -322 792 c 0,6,7
 -287 792 -287 792 -262 785 c 1,8,-1
 -262 826 l 1,9,-1
 -208 826 l 1,10,-1
 -208 765 l 1,11,12
 -177 747 -177 747 -159 728 c 1,13,-1
 -159 826 l 1,14,-1
 -105 826 l 1,15,-1
 -105 641 l 1,16,17
 -98 622 -98 622 -90 589 c 1,0,1
-313 733 m 0,18,19
 -405 733 -405 733 -432 671 c 1,20,21
 -353 671 -353 671 -283.5 660 c 128,-1,22
 -214 649 -214 649 -152 635 c 1,23,24
 -173 679 -173 679 -213.5 706 c 128,-1,25
 -254 733 -254 733 -313 733 c 0,18,19
EndSplineSet
EndChar

StartChar: uni0E38
Encoding: 3640 3640 61
Width: 0
GlyphClass: 4
Flags: W
AnchorPoint: "Anchor-3" 0 -254 basemark 0
AnchorPoint: "Anchor-3" 0 0 mark 0
AnchorPoint: "Anchor-1" -90 0 mark 0
LayerCount: 2
Back
SplineSet
-150 -254 m 1,0,-1
 -150 -159 l 1,1,2
 -153 -161 -153 -161 -161 -161 c 0,3,4
 -216 -161 -216 -161 -216 -106 c 0,5,6
 -216 -50 -216 -50 -154 -50 c 0,7,8
 -123 -50 -123 -50 -105.5 -65 c 128,-1,9
 -88 -80 -88 -80 -88 -107 c 2,10,-1
 -88 -254 l 1,11,-1
 -150 -254 l 1,0,-1
-182 -106 m 0,12,13
 -182 -130 -182 -130 -157 -130 c 0,14,15
 -133 -130 -133 -130 -133 -106 c 0,16,17
 -133 -81 -133 -81 -157 -81 c 0,18,19
 -182 -81 -182 -81 -182 -106 c 0,12,13
EndSplineSet
Fore
SplineSet
-150 -254 m 1,0,-1
 -150 -159 l 1,1,2
 -153 -161 -153 -161 -161 -161 c 0,3,4
 -216 -161 -216 -161 -216 -106 c 0,5,6
 -216 -50 -216 -50 -154 -50 c 0,7,8
 -123 -50 -123 -50 -105.5 -65 c 128,-1,9
 -88 -80 -88 -80 -88 -107 c 2,10,-1
 -88 -254 l 1,11,-1
 -150 -254 l 1,0,-1
-182 -106 m 0,12,13
 -182 -130 -182 -130 -157 -130 c 0,14,15
 -133 -130 -133 -130 -133 -106 c 0,16,17
 -133 -81 -133 -81 -157 -81 c 0,18,19
 -182 -81 -182 -81 -182 -106 c 0,12,13
EndSplineSet
EndChar

StartChar: uni0E39
Encoding: 3641 3641 62
Width: 0
GlyphClass: 4
Flags: W
AnchorPoint: "Anchor-3" 0 -254 basemark 0
AnchorPoint: "Anchor-3" 0 0 mark 0
AnchorPoint: "Anchor-1" -90 0 mark 0
LayerCount: 2
Back
SplineSet
-298 -256 m 1,0,-1
 -298 -159 l 1,1,2
 -301 -161 -301 -161 -309 -161 c 0,3,4
 -365 -161 -365 -161 -365 -106 c 0,5,6
 -365 -50 -365 -50 -302 -50 c 0,7,8
 -271 -50 -271 -50 -253.5 -65 c 128,-1,9
 -236 -80 -236 -80 -236 -107 c 2,10,-1
 -236 -212 l 1,11,-1
 -150 -212 l 1,12,-1
 -150 -57 l 1,13,-1
 -88 -57 l 1,14,-1
 -88 -256 l 1,15,-1
 -298 -256 l 1,0,-1
-330 -106 m 0,16,17
 -330 -130 -330 -130 -305 -130 c 0,18,19
 -281 -130 -281 -130 -281 -106 c 0,20,21
 -281 -81 -281 -81 -305 -81 c 0,22,23
 -330 -81 -330 -81 -330 -106 c 0,16,17
EndSplineSet
Fore
SplineSet
-298 -256 m 1,0,-1
 -298 -159 l 1,1,2
 -301 -161 -301 -161 -309 -161 c 0,3,4
 -365 -161 -365 -161 -365 -106 c 0,5,6
 -365 -50 -365 -50 -302 -50 c 0,7,8
 -271 -50 -271 -50 -253.5 -65 c 128,-1,9
 -236 -80 -236 -80 -236 -107 c 2,10,-1
 -236 -212 l 1,11,-1
 -150 -212 l 1,12,-1
 -150 -57 l 1,13,-1
 -88 -57 l 1,14,-1
 -88 -256 l 1,15,-1
 -298 -256 l 1,0,-1
-330 -106 m 0,16,17
 -330 -130 -330 -130 -305 -130 c 0,18,19
 -281 -130 -281 -130 -281 -106 c 0,20,21
 -281 -81 -281 -81 -305 -81 c 0,22,23
 -330 -81 -330 -81 -330 -106 c 0,16,17
EndSplineSet
EndChar

StartChar: uni0E3A
Encoding: 3642 3642 63
Width: 0
GlyphClass: 4
Flags: W
AnchorPoint: "Anchor-3" 0 -156 basemark 0
AnchorPoint: "Anchor-3" 0 0 mark 0
AnchorPoint: "Anchor-1" -90 0 mark 0
LayerCount: 2
Back
SplineSet
-183 -108 m 0,0,1
 -183 -87 -183 -87 -168 -72 c 128,-1,2
 -153 -57 -153 -57 -132 -57 c 0,3,4
 -111 -57 -111 -57 -96 -72 c 128,-1,5
 -81 -87 -81 -87 -81 -108 c 0,6,7
 -81 -131 -81 -131 -96.5 -145.5 c 128,-1,8
 -112 -160 -112 -160 -132 -160 c 0,9,10
 -152 -160 -152 -160 -167.5 -145.5 c 128,-1,11
 -183 -131 -183 -131 -183 -108 c 0,0,1
EndSplineSet
Fore
SplineSet
-183 -108 m 0,0,1
 -183 -87 -183 -87 -168 -72 c 128,-1,2
 -153 -57 -153 -57 -132 -57 c 0,3,4
 -111 -57 -111 -57 -96 -72 c 128,-1,5
 -81 -87 -81 -87 -81 -108 c 0,6,7
 -81 -131 -81 -131 -96.5 -145.5 c 128,-1,8
 -112 -160 -112 -160 -132 -160 c 0,9,10
 -152 -160 -152 -160 -167.5 -145.5 c 128,-1,11
 -183 -131 -183 -131 -183 -108 c 0,0,1
EndSplineSet
EndChar

StartChar: uni0E3F
Encoding: 3647 3647 64
Width: 559
GlyphClass: 2
Flags: W
LayerCount: 2
Back
SplineSet
495 535 m 0,0,1
 495 478 495 478 465.5 438.5 c 128,-1,2
 436 399 436 399 371 378 c 1,3,-1
 371 374 l 1,4,5
 445 361 445 361 485 314 c 128,-1,6
 525 267 525 267 525 193 c 0,7,8
 525 105 525 105 467 57 c 128,-1,9
 409 9 409 9 300 1 c 1,10,-1
 300 -79 l 1,11,-1
 250 -79 l 1,12,-1
 250 0 l 1,13,-1
 8 0 l 1,14,-1
 8 42 l 1,15,-1
 13 42 l 2,16,17
 55 42 55 42 70 58.5 c 128,-1,18
 85 75 85 75 85 114 c 2,19,-1
 85 604 l 2,20,21
 85 629 85 629 78 644 c 128,-1,22
 71 659 71 659 57 665.5 c 128,-1,23
 43 672 43 672 13 672 c 2,24,-1
 8 672 l 1,25,-1
 8 714 l 1,26,-1
 250 714 l 1,27,-1
 250 760 l 1,28,-1
 300 760 l 1,29,-1
 300 712 l 1,30,31
 393 704 393 704 444 658 c 128,-1,32
 495 612 495 612 495 535 c 0,0,1
418 196 m 0,33,34
 418 326 418 326 300 345 c 1,35,-1
 300 52 l 1,36,37
 362 62 362 62 390 97 c 128,-1,38
 418 132 418 132 418 196 c 0,33,34
186 50 m 1,39,-1
 250 50 l 1,40,-1
 250 349 l 1,41,-1
 186 349 l 1,42,-1
 186 50 l 1,39,-1
388 535 m 0,43,44
 388 585 388 585 364.5 617 c 128,-1,45
 341 649 341 649 300 659 c 1,46,-1
 300 407 l 1,47,48
 347 418 347 418 367.5 449 c 128,-1,49
 388 480 388 480 388 535 c 0,43,44
186 399 m 1,50,-1
 250 399 l 1,51,-1
 250 664 l 1,52,-1
 186 664 l 1,53,-1
 186 399 l 1,50,-1
EndSplineSet
Fore
SplineSet
495 535 m 0,0,1
 495 478 495 478 465.5 438.5 c 128,-1,2
 436 399 436 399 371 378 c 1,3,-1
 371 374 l 1,4,5
 445 361 445 361 485 314 c 128,-1,6
 525 267 525 267 525 193 c 0,7,8
 525 105 525 105 467 57 c 128,-1,9
 409 9 409 9 300 1 c 1,10,-1
 300 -79 l 1,11,-1
 250 -79 l 1,12,-1
 250 0 l 1,13,-1
 8 0 l 1,14,-1
 8 42 l 1,15,-1
 13 42 l 2,16,17
 55 42 55 42 70 58.5 c 128,-1,18
 85 75 85 75 85 114 c 2,19,-1
 85 604 l 2,20,21
 85 629 85 629 78 644 c 128,-1,22
 71 659 71 659 57 665.5 c 128,-1,23
 43 672 43 672 13 672 c 2,24,-1
 8 672 l 1,25,-1
 8 714 l 1,26,-1
 250 714 l 1,27,-1
 250 760 l 1,28,-1
 300 760 l 1,29,-1
 300 712 l 1,30,31
 393 704 393 704 444 658 c 128,-1,32
 495 612 495 612 495 535 c 0,0,1
418 196 m 0,33,34
 418 326 418 326 300 345 c 1,35,-1
 300 52 l 1,36,37
 362 62 362 62 390 97 c 128,-1,38
 418 132 418 132 418 196 c 0,33,34
186 50 m 1,39,-1
 250 50 l 1,40,-1
 250 349 l 1,41,-1
 186 349 l 1,42,-1
 186 50 l 1,39,-1
388 535 m 0,43,44
 388 585 388 585 364.5 617 c 128,-1,45
 341 649 341 649 300 659 c 1,46,-1
 300 407 l 1,47,48
 347 418 347 418 367.5 449 c 128,-1,49
 388 480 388 480 388 535 c 0,43,44
186 399 m 1,50,-1
 250 399 l 1,51,-1
 250 664 l 1,52,-1
 186 664 l 1,53,-1
 186 399 l 1,50,-1
EndSplineSet
EndChar

StartChar: uni0E40
Encoding: 3648 3648 65
Width: 307
GlyphClass: 2
Flags: W
AnchorPoint: "Anchor-1" 244 0 basechar 0
AnchorPoint: "Anchor-0" 176 0 basechar 0
LayerCount: 2
Back
SplineSet
239 84 m 256,0,1
 239 107 239 107 225.5 120.5 c 128,-1,2
 212 134 212 134 189 134 c 256,3,4
 166 134 166 134 152 120.5 c 128,-1,5
 138 107 138 107 138 84 c 256,6,7
 138 61 138 61 152 47 c 128,-1,8
 166 33 166 33 189 33 c 256,9,10
 212 33 212 33 225.5 47 c 128,-1,11
 239 61 239 61 239 84 c 256,0,1
90 492 m 1,12,-1
 139 550 l 1,13,-1
 172 550 l 1,14,-1
 172 175 l 1,15,16
 177 177 177 177 196 177 c 0,17,18
 239 177 239 177 264 153 c 128,-1,19
 289 129 289 129 289 84 c 0,20,21
 289 40 289 40 262.5 15.5 c 128,-1,22
 236 -9 236 -9 189 -9 c 0,23,24
 141 -9 141 -9 115.5 15.5 c 128,-1,25
 90 40 90 40 90 84 c 2,26,-1
 90 492 l 1,12,-1
EndSplineSet
Fore
SplineSet
239 84 m 256,0,1
 239 107 239 107 225.5 120.5 c 128,-1,2
 212 134 212 134 189 134 c 256,3,4
 166 134 166 134 152 120.5 c 128,-1,5
 138 107 138 107 138 84 c 256,6,7
 138 61 138 61 152 47 c 128,-1,8
 166 33 166 33 189 33 c 256,9,10
 212 33 212 33 225.5 47 c 128,-1,11
 239 61 239 61 239 84 c 256,0,1
90 492 m 1,12,-1
 139 550 l 1,13,-1
 172 550 l 1,14,-1
 172 175 l 1,15,16
 177 177 177 177 196 177 c 0,17,18
 239 177 239 177 264 153 c 128,-1,19
 289 129 289 129 289 84 c 0,20,21
 289 40 289 40 262.5 15.5 c 128,-1,22
 236 -9 236 -9 189 -9 c 0,23,24
 141 -9 141 -9 115.5 15.5 c 128,-1,25
 90 40 90 40 90 84 c 2,26,-1
 90 492 l 1,12,-1
EndSplineSet
EndChar

StartChar: uni0E41
Encoding: 3649 3649 66
Width: 568
GlyphClass: 2
Flags: W
AnchorPoint: "Anchor-1" 508 0 basechar 0
AnchorPoint: "Anchor-0" 435 0 basechar 0
LayerCount: 2
Back
SplineSet
239 84 m 256,0,1
 239 107 239 107 225.5 120.5 c 128,-1,2
 212 134 212 134 189 134 c 256,3,4
 166 134 166 134 152 120.5 c 128,-1,5
 138 107 138 107 138 84 c 256,6,7
 138 61 138 61 152 47 c 128,-1,8
 166 33 166 33 189 33 c 256,9,10
 212 33 212 33 225.5 47 c 128,-1,11
 239 61 239 61 239 84 c 256,0,1
90 492 m 1,12,-1
 139 550 l 1,13,-1
 172 550 l 1,14,-1
 172 175 l 1,15,16
 177 177 177 177 196 177 c 0,17,18
 239 177 239 177 264 153 c 128,-1,19
 289 129 289 129 289 84 c 0,20,21
 289 40 289 40 262.5 15.5 c 128,-1,22
 236 -9 236 -9 189 -9 c 0,23,24
 141 -9 141 -9 115.5 15.5 c 128,-1,25
 90 40 90 40 90 84 c 2,26,-1
 90 492 l 1,12,-1
502 84 m 256,27,28
 502 107 502 107 489 120.5 c 128,-1,29
 476 134 476 134 452 134 c 256,30,31
 429 134 429 134 415 120.5 c 128,-1,32
 401 107 401 107 401 84 c 256,33,34
 401 61 401 61 415 47 c 128,-1,35
 429 33 429 33 452 33 c 256,36,37
 475 33 475 33 488.5 47 c 128,-1,38
 502 61 502 61 502 84 c 256,27,28
353 492 m 1,39,-1
 402 550 l 1,40,-1
 435 550 l 1,41,-1
 435 175 l 1,42,43
 440 177 440 177 459 177 c 0,44,45
 502 177 502 177 527 153 c 128,-1,46
 552 129 552 129 552 84 c 0,47,48
 552 40 552 40 526 15.5 c 128,-1,49
 500 -9 500 -9 452 -9 c 0,50,51
 404 -9 404 -9 378.5 15.5 c 128,-1,52
 353 40 353 40 353 84 c 2,53,-1
 353 492 l 1,39,-1
EndSplineSet
Fore
SplineSet
239 84 m 256,0,1
 239 107 239 107 225.5 120.5 c 128,-1,2
 212 134 212 134 189 134 c 256,3,4
 166 134 166 134 152 120.5 c 128,-1,5
 138 107 138 107 138 84 c 256,6,7
 138 61 138 61 152 47 c 128,-1,8
 166 33 166 33 189 33 c 256,9,10
 212 33 212 33 225.5 47 c 128,-1,11
 239 61 239 61 239 84 c 256,0,1
90 492 m 1,12,-1
 139 550 l 1,13,-1
 172 550 l 1,14,-1
 172 175 l 1,15,16
 177 177 177 177 196 177 c 0,17,18
 239 177 239 177 264 153 c 128,-1,19
 289 129 289 129 289 84 c 0,20,21
 289 40 289 40 262.5 15.5 c 128,-1,22
 236 -9 236 -9 189 -9 c 0,23,24
 141 -9 141 -9 115.5 15.5 c 128,-1,25
 90 40 90 40 90 84 c 2,26,-1
 90 492 l 1,12,-1
502 84 m 256,27,28
 502 107 502 107 489 120.5 c 128,-1,29
 476 134 476 134 452 134 c 256,30,31
 429 134 429 134 415 120.5 c 128,-1,32
 401 107 401 107 401 84 c 256,33,34
 401 61 401 61 415 47 c 128,-1,35
 429 33 429 33 452 33 c 256,36,37
 475 33 475 33 488.5 47 c 128,-1,38
 502 61 502 61 502 84 c 256,27,28
353 492 m 1,39,-1
 402 550 l 1,40,-1
 435 550 l 1,41,-1
 435 175 l 1,42,43
 440 177 440 177 459 177 c 0,44,45
 502 177 502 177 527 153 c 128,-1,46
 552 129 552 129 552 84 c 0,47,48
 552 40 552 40 526 15.5 c 128,-1,49
 500 -9 500 -9 452 -9 c 0,50,51
 404 -9 404 -9 378.5 15.5 c 128,-1,52
 353 40 353 40 353 84 c 2,53,-1
 353 492 l 1,39,-1
EndSplineSet
EndChar

StartChar: uni0E42
Encoding: 3650 3650 67
Width: 424
GlyphClass: 2
Flags: W
AnchorPoint: "Anchor-1" 352 0 basechar 0
AnchorPoint: "Anchor-0" 381 439 basechar 0
LayerCount: 2
Back
SplineSet
273 175 m 1,0,1
 278 177 278 177 297 177 c 0,2,3
 341 177 341 177 365.5 153 c 128,-1,4
 390 129 390 129 390 84 c 0,5,6
 390 40 390 40 364 15.5 c 128,-1,7
 338 -9 338 -9 291 -9 c 0,8,9
 243 -9 243 -9 217 15.5 c 128,-1,10
 191 40 191 40 191 84 c 2,11,-1
 191 641 l 2,12,13
 191 718 191 718 164.5 750.5 c 128,-1,14
 138 783 138 783 77 783 c 2,15,-1
 0 783 l 1,16,-1
 0 817 l 2,17,18
 0 904 0 904 35.5 941 c 128,-1,19
 71 978 71 978 154 978 c 0,20,21
 196 978 196 978 296 966 c 1,22,-1
 325 964 l 2,23,24
 346 964 346 964 360 967 c 128,-1,25
 374 970 374 970 385 975 c 128,-1,26
 396 980 396 980 420 998 c 1,27,-1
 440 976 l 1,28,29
 408 939 408 939 390 926.5 c 128,-1,30
 372 914 372 914 347.5 907 c 128,-1,31
 323 900 323 900 288 900 c 0,32,33
 269 900 269 900 222 906 c 0,34,35
 175 911 175 911 152 911 c 0,36,37
 86 911 86 911 61 892 c 128,-1,38
 36 873 36 873 36 826 c 1,39,-1
 107 826 l 2,40,41
 195 826 195 826 234 782 c 128,-1,42
 273 738 273 738 273 650 c 2,43,-1
 273 175 l 1,0,1
341 84 m 256,44,45
 341 107 341 107 327.5 120.5 c 128,-1,46
 314 134 314 134 291 134 c 256,47,48
 268 134 268 134 254 120.5 c 128,-1,49
 240 107 240 107 240 84 c 256,50,51
 240 61 240 61 254 47 c 128,-1,52
 268 33 268 33 291 33 c 256,53,54
 314 33 314 33 327.5 47 c 128,-1,55
 341 61 341 61 341 84 c 256,44,45
EndSplineSet
Fore
SplineSet
273 175 m 1,0,1
 278 177 278 177 297 177 c 0,2,3
 341 177 341 177 365.5 153 c 128,-1,4
 390 129 390 129 390 84 c 0,5,6
 390 40 390 40 364 15.5 c 128,-1,7
 338 -9 338 -9 291 -9 c 0,8,9
 243 -9 243 -9 217 15.5 c 128,-1,10
 191 40 191 40 191 84 c 2,11,-1
 191 641 l 2,12,13
 191 718 191 718 164.5 750.5 c 128,-1,14
 138 783 138 783 77 783 c 2,15,-1
 0 783 l 1,16,-1
 0 817 l 2,17,18
 0 904 0 904 35.5 941 c 128,-1,19
 71 978 71 978 154 978 c 0,20,21
 196 978 196 978 296 966 c 1,22,-1
 325 964 l 2,23,24
 346 964 346 964 360 967 c 128,-1,25
 374 970 374 970 385 975 c 128,-1,26
 396 980 396 980 420 998 c 1,27,-1
 440 976 l 1,28,29
 408 939 408 939 390 926.5 c 128,-1,30
 372 914 372 914 347.5 907 c 128,-1,31
 323 900 323 900 288 900 c 0,32,33
 269 900 269 900 222 906 c 0,34,35
 175 911 175 911 152 911 c 0,36,37
 86 911 86 911 61 892 c 128,-1,38
 36 873 36 873 36 826 c 1,39,-1
 107 826 l 2,40,41
 195 826 195 826 234 782 c 128,-1,42
 273 738 273 738 273 650 c 2,43,-1
 273 175 l 1,0,1
341 84 m 256,44,45
 341 107 341 107 327.5 120.5 c 128,-1,46
 314 134 314 134 291 134 c 256,47,48
 268 134 268 134 254 120.5 c 128,-1,49
 240 107 240 107 240 84 c 256,50,51
 240 61 240 61 254 47 c 128,-1,52
 268 33 268 33 291 33 c 256,53,54
 314 33 314 33 327.5 47 c 128,-1,55
 341 61 341 61 341 84 c 256,44,45
EndSplineSet
EndChar

StartChar: uni0E43
Encoding: 3651 3651 68
Width: 422
GlyphClass: 2
Flags: W
AnchorPoint: "Anchor-1" 366 0 basechar 0
AnchorPoint: "Anchor-0" 391 439 basechar 0
LayerCount: 2
Back
SplineSet
288 175 m 1,0,1
 293 177 293 177 312 177 c 0,2,3
 355 177 355 177 380 153 c 128,-1,4
 405 129 405 129 405 84 c 0,5,6
 405 40 405 40 379.5 15.5 c 128,-1,7
 354 -9 354 -9 306 -9 c 0,8,9
 258 -9 258 -9 232 15.5 c 128,-1,10
 206 40 206 40 206 84 c 2,11,-1
 206 689 l 2,12,13
 206 752 206 752 225 789.5 c 128,-1,14
 244 827 244 827 285 854 c 1,15,16
 281 905 281 905 250 934.5 c 128,-1,17
 219 964 219 964 170 964 c 0,18,19
 116 964 116 964 87.5 941.5 c 128,-1,20
 59 919 59 919 53 881 c 1,21,22
 61 891 61 891 80 899 c 128,-1,23
 99 907 99 907 118 907 c 0,24,25
 154 907 154 907 175.5 884.5 c 128,-1,26
 197 862 197 862 197 824 c 0,27,28
 197 785 197 785 172.5 763 c 128,-1,29
 148 741 148 741 108 741 c 0,30,31
 55 741 55 741 27.5 772 c 128,-1,32
 0 803 0 803 0 857 c 0,33,34
 0 926 0 926 49 967 c 128,-1,35
 98 1008 98 1008 183 1008 c 0,36,37
 257 1008 257 1008 304 966.5 c 128,-1,38
 351 925 351 925 357 853 c 1,39,40
 330 832 330 832 315.5 811 c 128,-1,41
 301 790 301 790 294.5 765.5 c 128,-1,42
 288 741 288 741 288 692 c 2,43,-1
 288 175 l 1,0,1
355 84 m 256,44,45
 355 107 355 107 342 120.5 c 128,-1,46
 329 134 329 134 305 134 c 256,47,48
 282 134 282 134 268 120.5 c 128,-1,49
 254 107 254 107 254 84 c 256,50,51
 254 61 254 61 268 47 c 128,-1,52
 282 33 282 33 305 33 c 256,53,54
 328 33 328 33 341.5 47 c 128,-1,55
 355 61 355 61 355 84 c 256,44,45
151 824 m 0,56,57
 151 843 151 843 138.5 854.5 c 128,-1,58
 126 866 126 866 107 866 c 0,59,60
 88 866 88 866 76 854.5 c 128,-1,61
 64 843 64 843 64 824 c 0,62,63
 64 804 64 804 76 792.5 c 128,-1,64
 88 781 88 781 107 781 c 0,65,66
 127 781 127 781 139 792.5 c 128,-1,67
 151 804 151 804 151 824 c 0,56,57
EndSplineSet
Fore
SplineSet
288 175 m 1,0,1
 293 177 293 177 312 177 c 0,2,3
 355 177 355 177 380 153 c 128,-1,4
 405 129 405 129 405 84 c 0,5,6
 405 40 405 40 379.5 15.5 c 128,-1,7
 354 -9 354 -9 306 -9 c 0,8,9
 258 -9 258 -9 232 15.5 c 128,-1,10
 206 40 206 40 206 84 c 2,11,-1
 206 689 l 2,12,13
 206 752 206 752 225 789.5 c 128,-1,14
 244 827 244 827 285 854 c 1,15,16
 281 905 281 905 250 934.5 c 128,-1,17
 219 964 219 964 170 964 c 0,18,19
 116 964 116 964 87.5 941.5 c 128,-1,20
 59 919 59 919 53 881 c 1,21,22
 61 891 61 891 80 899 c 128,-1,23
 99 907 99 907 118 907 c 0,24,25
 154 907 154 907 175.5 884.5 c 128,-1,26
 197 862 197 862 197 824 c 0,27,28
 197 785 197 785 172.5 763 c 128,-1,29
 148 741 148 741 108 741 c 0,30,31
 55 741 55 741 27.5 772 c 128,-1,32
 0 803 0 803 0 857 c 0,33,34
 0 926 0 926 49 967 c 128,-1,35
 98 1008 98 1008 183 1008 c 0,36,37
 257 1008 257 1008 304 966.5 c 128,-1,38
 351 925 351 925 357 853 c 1,39,40
 330 832 330 832 315.5 811 c 128,-1,41
 301 790 301 790 294.5 765.5 c 128,-1,42
 288 741 288 741 288 692 c 2,43,-1
 288 175 l 1,0,1
355 84 m 256,44,45
 355 107 355 107 342 120.5 c 128,-1,46
 329 134 329 134 305 134 c 256,47,48
 282 134 282 134 268 120.5 c 128,-1,49
 254 107 254 107 254 84 c 256,50,51
 254 61 254 61 268 47 c 128,-1,52
 282 33 282 33 305 33 c 256,53,54
 328 33 328 33 341.5 47 c 128,-1,55
 355 61 355 61 355 84 c 256,44,45
151 824 m 0,56,57
 151 843 151 843 138.5 854.5 c 128,-1,58
 126 866 126 866 107 866 c 0,59,60
 88 866 88 866 76 854.5 c 128,-1,61
 64 843 64 843 64 824 c 0,62,63
 64 804 64 804 76 792.5 c 128,-1,64
 88 781 88 781 107 781 c 0,65,66
 127 781 127 781 139 792.5 c 128,-1,67
 151 804 151 804 151 824 c 0,56,57
EndSplineSet
EndChar

StartChar: uni0E44
Encoding: 3652 3652 69
Width: 486
GlyphClass: 2
Flags: W
AnchorPoint: "Anchor-1" 420 0 basechar 0
AnchorPoint: "Anchor-0" 366 439 basechar 0
LayerCount: 2
Back
SplineSet
419 84 m 256,0,1
 419 107 419 107 406 120.5 c 128,-1,2
 393 134 393 134 369 134 c 256,3,4
 346 134 346 134 332 120.5 c 128,-1,5
 318 107 318 107 318 84 c 256,6,7
 318 61 318 61 332 47 c 128,-1,8
 346 33 346 33 369 33 c 256,9,10
 392 33 392 33 405.5 47 c 128,-1,11
 419 61 419 61 419 84 c 256,0,1
-14 966 m 1,12,-1
 -14 1008 l 1,13,14
 41 1008 41 1008 65.5 997.5 c 128,-1,15
 90 987 90 987 107 957.5 c 128,-1,16
 124 928 124 928 146 846 c 1,17,-1
 161 879 l 2,18,19
 196 956 196 956 222 982 c 128,-1,20
 248 1008 248 1008 282 1008 c 0,21,22
 316 1008 316 1008 334 983 c 128,-1,23
 352 958 352 958 352 900 c 2,24,-1
 352 175 l 1,25,26
 357 177 357 177 376 177 c 0,27,28
 420 177 420 177 444.5 153 c 128,-1,29
 469 129 469 129 469 84 c 0,30,31
 469 40 469 40 443 15.5 c 128,-1,32
 417 -9 417 -9 370 -9 c 0,33,34
 322 -9 322 -9 296 15.5 c 128,-1,35
 270 40 270 40 270 84 c 2,36,-1
 270 900 l 2,37,38
 270 942 270 942 252 942 c 0,39,40
 241 942 241 942 229 925 c 128,-1,41
 217 908 217 908 203 877 c 2,42,-1
 127 722 l 1,43,-1
 103 722 l 1,44,-1
 74 829 l 2,45,46
 59 885 59 885 47 913 c 128,-1,47
 35 941 35 941 22 953.5 c 128,-1,48
 9 966 9 966 -14 966 c 1,12,-1
EndSplineSet
Fore
SplineSet
419 84 m 256,0,1
 419 107 419 107 406 120.5 c 128,-1,2
 393 134 393 134 369 134 c 256,3,4
 346 134 346 134 332 120.5 c 128,-1,5
 318 107 318 107 318 84 c 256,6,7
 318 61 318 61 332 47 c 128,-1,8
 346 33 346 33 369 33 c 256,9,10
 392 33 392 33 405.5 47 c 128,-1,11
 419 61 419 61 419 84 c 256,0,1
-14 966 m 1,12,-1
 -14 1008 l 1,13,14
 41 1008 41 1008 65.5 997.5 c 128,-1,15
 90 987 90 987 107 957.5 c 128,-1,16
 124 928 124 928 146 846 c 1,17,-1
 161 879 l 2,18,19
 196 956 196 956 222 982 c 128,-1,20
 248 1008 248 1008 282 1008 c 0,21,22
 316 1008 316 1008 334 983 c 128,-1,23
 352 958 352 958 352 900 c 2,24,-1
 352 175 l 1,25,26
 357 177 357 177 376 177 c 0,27,28
 420 177 420 177 444.5 153 c 128,-1,29
 469 129 469 129 469 84 c 0,30,31
 469 40 469 40 443 15.5 c 128,-1,32
 417 -9 417 -9 370 -9 c 0,33,34
 322 -9 322 -9 296 15.5 c 128,-1,35
 270 40 270 40 270 84 c 2,36,-1
 270 900 l 2,37,38
 270 942 270 942 252 942 c 0,39,40
 241 942 241 942 229 925 c 128,-1,41
 217 908 217 908 203 877 c 2,42,-1
 127 722 l 1,43,-1
 103 722 l 1,44,-1
 74 829 l 2,45,46
 59 885 59 885 47 913 c 128,-1,47
 35 941 35 941 22 953.5 c 128,-1,48
 9 966 9 966 -14 966 c 1,12,-1
EndSplineSet
EndChar

StartChar: uni0E45
Encoding: 3653 3653 70
Width: 481
GlyphClass: 2
Flags: W
LayerCount: 2
Back
SplineSet
402 -196 m 1,0,-1
 353 -254 l 1,1,-1
 320 -254 l 1,2,-1
 320 335 l 2,3,4
 320 421 320 421 286 466.5 c 128,-1,5
 252 512 252 512 190 512 c 0,6,7
 152 512 152 512 115 500.5 c 128,-1,8
 78 489 78 489 21 454 c 1,9,-1
 -2 492 l 1,10,11
 98 560 98 560 205 560 c 0,12,13
 402 560 402 560 402 340 c 2,14,-1
 402 -196 l 1,0,-1
EndSplineSet
Fore
SplineSet
402 -196 m 1,0,-1
 353 -254 l 1,1,-1
 320 -254 l 1,2,-1
 320 335 l 2,3,4
 320 421 320 421 286 466.5 c 128,-1,5
 252 512 252 512 190 512 c 0,6,7
 152 512 152 512 115 500.5 c 128,-1,8
 78 489 78 489 21 454 c 1,9,-1
 -2 492 l 1,10,11
 98 560 98 560 205 560 c 0,12,13
 402 560 402 560 402 340 c 2,14,-1
 402 -196 l 1,0,-1
EndSplineSet
EndChar

StartChar: uni0E46
Encoding: 3654 3654 71
Width: 495
GlyphClass: 2
Flags: W
LayerCount: 2
Back
SplineSet
212 444 m 1,0,-1
 141 507 l 1,1,2
 92 485 92 485 82 413 c 1,3,4
 91 424 91 424 110 431.5 c 128,-1,5
 129 439 129 439 147 439 c 0,6,7
 183 439 183 439 204.5 417 c 128,-1,8
 226 395 226 395 226 356 c 0,9,10
 226 318 226 318 202.5 295.5 c 128,-1,11
 179 273 179 273 137 273 c 0,12,13
 84 273 84 273 56.5 303.5 c 128,-1,14
 29 334 29 334 29 388 c 0,15,16
 29 448 29 448 61 495 c 128,-1,17
 93 542 93 542 146 557 c 1,18,-1
 212 497 l 1,19,-1
 278 557 l 1,20,21
 415 539 415 539 415 390 c 2,22,-1
 415 -196 l 1,23,-1
 366 -254 l 1,24,-1
 333 -254 l 1,25,-1
 333 394 l 2,26,27
 333 486 333 486 284 506 c 1,28,-1
 212 444 l 1,0,-1
180 356 m 0,29,30
 180 375 180 375 168 386.5 c 128,-1,31
 156 398 156 398 136 398 c 0,32,33
 117 398 117 398 105 386.5 c 128,-1,34
 93 375 93 375 93 356 c 0,35,36
 93 336 93 336 105 324.5 c 128,-1,37
 117 313 117 313 136 313 c 0,38,39
 156 313 156 313 168 324.5 c 128,-1,40
 180 336 180 336 180 356 c 0,29,30
EndSplineSet
Fore
SplineSet
212 444 m 1,0,-1
 141 507 l 1,1,2
 92 485 92 485 82 413 c 1,3,4
 91 424 91 424 110 431.5 c 128,-1,5
 129 439 129 439 147 439 c 0,6,7
 183 439 183 439 204.5 417 c 128,-1,8
 226 395 226 395 226 356 c 0,9,10
 226 318 226 318 202.5 295.5 c 128,-1,11
 179 273 179 273 137 273 c 0,12,13
 84 273 84 273 56.5 303.5 c 128,-1,14
 29 334 29 334 29 388 c 0,15,16
 29 448 29 448 61 495 c 128,-1,17
 93 542 93 542 146 557 c 1,18,-1
 212 497 l 1,19,-1
 278 557 l 1,20,21
 415 539 415 539 415 390 c 2,22,-1
 415 -196 l 1,23,-1
 366 -254 l 1,24,-1
 333 -254 l 1,25,-1
 333 394 l 2,26,27
 333 486 333 486 284 506 c 1,28,-1
 212 444 l 1,0,-1
180 356 m 0,29,30
 180 375 180 375 168 386.5 c 128,-1,31
 156 398 156 398 136 398 c 0,32,33
 117 398 117 398 105 386.5 c 128,-1,34
 93 375 93 375 93 356 c 0,35,36
 93 336 93 336 105 324.5 c 128,-1,37
 117 313 117 313 136 313 c 0,38,39
 156 313 156 313 168 324.5 c 128,-1,40
 180 336 180 336 180 356 c 0,29,30
EndSplineSet
EndChar

StartChar: uni0E47
Encoding: 3655 3655 72
Width: 0
GlyphClass: 4
Flags: W
AnchorPoint: "Anchor-2" 0 0 basemark 0
AnchorPoint: "Anchor-2" 49 -254 mark 0
AnchorPoint: "Anchor-0" -78 0 mark 0
LayerCount: 2
Back
SplineSet
-116 655 m 1,0,1
 -137 657 -137 657 -148 670 c 128,-1,2
 -159 683 -159 683 -159 701 c 0,3,4
 -159 718 -159 718 -147.5 731 c 128,-1,5
 -136 744 -136 744 -113 744 c 0,6,7
 -60 744 -60 744 -60 684 c 0,8,9
 -60 646 -60 646 -81.5 621 c 128,-1,10
 -103 596 -103 596 -138 596 c 0,11,12
 -159 596 -159 596 -183 606.5 c 128,-1,13
 -207 617 -207 617 -237 640 c 2,14,-1
 -270 663 l 1,15,16
 -286 631 -286 631 -315 600 c 1,17,18
 -360 609 -360 609 -390 643 c 128,-1,19
 -420 677 -420 677 -420 722 c 0,20,21
 -420 771 -420 771 -384 801 c 128,-1,22
 -348 831 -348 831 -288 831 c 0,23,24
 -261 831 -261 831 -180 821 c 1,25,-1
 -152 819 l 2,26,27
 -136 819 -136 819 -125 821.5 c 128,-1,28
 -114 824 -114 824 -104.5 828.5 c 128,-1,29
 -95 833 -95 833 -67 854 c 1,30,-1
 -46 833 l 1,31,32
 -70 801 -70 801 -95 782 c 128,-1,33
 -120 763 -120 763 -150 763 c 0,34,35
 -175 763 -175 763 -227 771 c 0,36,37
 -279 778 -279 778 -299 778 c 0,38,39
 -373 778 -373 778 -373 722 c 0,40,41
 -373 706 -373 706 -365.5 693 c 128,-1,42
 -358 680 -358 680 -346.5 671 c 128,-1,43
 -335 662 -335 662 -325 660 c 1,44,45
 -300 685 -300 685 -286 724 c 1,46,47
 -273 718 -273 718 -209 675 c 0,48,49
 -159 640 -159 640 -141 640 c 0,50,51
 -124 640 -124 640 -116 655 c 1,0,1
-129 700 m 0,52,53
 -129 682 -129 682 -110 682 c 0,54,55
 -103 682 -103 682 -97.5 687 c 128,-1,56
 -92 692 -92 692 -92 700 c 256,57,58
 -92 708 -92 708 -97.5 713.5 c 128,-1,59
 -103 719 -103 719 -110 719 c 0,60,61
 -119 719 -119 719 -124 713.5 c 128,-1,62
 -129 708 -129 708 -129 700 c 0,52,53
EndSplineSet
Fore
SplineSet
-116 655 m 1,0,1
 -137 657 -137 657 -148 670 c 128,-1,2
 -159 683 -159 683 -159 701 c 0,3,4
 -159 718 -159 718 -147.5 731 c 128,-1,5
 -136 744 -136 744 -113 744 c 0,6,7
 -60 744 -60 744 -60 684 c 0,8,9
 -60 646 -60 646 -81.5 621 c 128,-1,10
 -103 596 -103 596 -138 596 c 0,11,12
 -159 596 -159 596 -183 606.5 c 128,-1,13
 -207 617 -207 617 -237 640 c 2,14,-1
 -270 663 l 1,15,16
 -286 631 -286 631 -315 600 c 1,17,18
 -360 609 -360 609 -390 643 c 128,-1,19
 -420 677 -420 677 -420 722 c 0,20,21
 -420 771 -420 771 -384 801 c 128,-1,22
 -348 831 -348 831 -288 831 c 0,23,24
 -261 831 -261 831 -180 821 c 1,25,-1
 -152 819 l 2,26,27
 -136 819 -136 819 -125 821.5 c 128,-1,28
 -114 824 -114 824 -104.5 828.5 c 128,-1,29
 -95 833 -95 833 -67 854 c 1,30,-1
 -46 833 l 1,31,32
 -70 801 -70 801 -95 782 c 128,-1,33
 -120 763 -120 763 -150 763 c 0,34,35
 -175 763 -175 763 -227 771 c 0,36,37
 -279 778 -279 778 -299 778 c 0,38,39
 -373 778 -373 778 -373 722 c 0,40,41
 -373 706 -373 706 -365.5 693 c 128,-1,42
 -358 680 -358 680 -346.5 671 c 128,-1,43
 -335 662 -335 662 -325 660 c 1,44,45
 -300 685 -300 685 -286 724 c 1,46,47
 -273 718 -273 718 -209 675 c 0,48,49
 -159 640 -159 640 -141 640 c 0,50,51
 -124 640 -124 640 -116 655 c 1,0,1
-129 700 m 0,52,53
 -129 682 -129 682 -110 682 c 0,54,55
 -103 682 -103 682 -97.5 687 c 128,-1,56
 -92 692 -92 692 -92 700 c 256,57,58
 -92 708 -92 708 -97.5 713.5 c 128,-1,59
 -103 719 -103 719 -110 719 c 0,60,61
 -119 719 -119 719 -124 713.5 c 128,-1,62
 -129 708 -129 708 -129 700 c 0,52,53
EndSplineSet
EndChar

StartChar: uni0E48
Encoding: 65539 -1 73
Width: 0
GlyphClass: 4
Flags: W
AnchorPoint: "Anchor-2" 10 0 basemark 0
AnchorPoint: "Anchor-2" 10 -269 mark 0
AnchorPoint: "Anchor-0" -83 0 mark 0
LayerCount: 2
Back
SplineSet
-173 773 m 1,0,-1
 -78 773 l 1,1,-1
 -98 596 l 1,2,-1
 -153 596 l 1,3,-1
 -173 773 l 1,0,-1
EndSplineSet
Fore
SplineSet
-173 773 m 1,0,-1
 -78 773 l 1,1,-1
 -98 596 l 1,2,-1
 -153 596 l 1,3,-1
 -173 773 l 1,0,-1
EndSplineSet
Substitution2: "Single Substitution lookup 8 subtable" uni0E48.small
EndChar

StartChar: uni0E49
Encoding: 65540 -1 74
Width: 0
GlyphClass: 4
Flags: W
AnchorPoint: "Anchor-2" 0 0 basemark 0
AnchorPoint: "Anchor-2" -59 -269 mark 0
AnchorPoint: "Anchor-0" -156 0 mark 0
LayerCount: 2
Back
SplineSet
-215 734 m 0,0,1
 -215 707 -215 707 -232.5 679 c 128,-1,2
 -250 651 -250 651 -277 635 c 1,3,4
 -227 635 -227 635 -195 651 c 128,-1,5
 -163 667 -163 667 -142.5 701 c 128,-1,6
 -122 735 -122 735 -105 811 c 1,7,-1
 -31 786 l 1,8,9
 -69 596 -69 596 -265 596 c 2,10,-1
 -323 596 l 1,11,-1
 -337 631 l 1,12,13
 -306 648 -306 648 -284.5 669 c 128,-1,14
 -263 690 -263 690 -259 709 c 1,15,16
 -275 690 -275 690 -301 690 c 0,17,18
 -329 690 -329 690 -343.5 706.5 c 128,-1,19
 -358 723 -358 723 -358 750 c 0,20,21
 -358 780 -358 780 -340 795.5 c 128,-1,22
 -322 811 -322 811 -294 811 c 0,23,24
 -256 811 -256 811 -235.5 790.5 c 128,-1,25
 -215 770 -215 770 -215 734 c 0,0,1
-321 751 m 256,26,27
 -321 739 -321 739 -313 731.5 c 128,-1,28
 -305 724 -305 724 -293 724 c 0,29,30
 -282 724 -282 724 -274.5 731.5 c 128,-1,31
 -267 739 -267 739 -267 751 c 256,32,33
 -267 763 -267 763 -274.5 770.5 c 128,-1,34
 -282 778 -282 778 -293 778 c 0,35,36
 -305 778 -305 778 -313 770.5 c 128,-1,37
 -321 763 -321 763 -321 751 c 256,26,27
EndSplineSet
Fore
SplineSet
-215 734 m 0,0,1
 -215 707 -215 707 -232.5 679 c 128,-1,2
 -250 651 -250 651 -277 635 c 1,3,4
 -227 635 -227 635 -195 651 c 128,-1,5
 -163 667 -163 667 -142.5 701 c 128,-1,6
 -122 735 -122 735 -105 811 c 1,7,-1
 -31 786 l 1,8,9
 -69 596 -69 596 -265 596 c 2,10,-1
 -323 596 l 1,11,-1
 -337 631 l 1,12,13
 -306 648 -306 648 -284.5 669 c 128,-1,14
 -263 690 -263 690 -259 709 c 1,15,16
 -275 690 -275 690 -301 690 c 0,17,18
 -329 690 -329 690 -343.5 706.5 c 128,-1,19
 -358 723 -358 723 -358 750 c 0,20,21
 -358 780 -358 780 -340 795.5 c 128,-1,22
 -322 811 -322 811 -294 811 c 0,23,24
 -256 811 -256 811 -235.5 790.5 c 128,-1,25
 -215 770 -215 770 -215 734 c 0,0,1
-321 751 m 256,26,27
 -321 739 -321 739 -313 731.5 c 128,-1,28
 -305 724 -305 724 -293 724 c 0,29,30
 -282 724 -282 724 -274.5 731.5 c 128,-1,31
 -267 739 -267 739 -267 751 c 256,32,33
 -267 763 -267 763 -274.5 770.5 c 128,-1,34
 -282 778 -282 778 -293 778 c 0,35,36
 -305 778 -305 778 -313 770.5 c 128,-1,37
 -321 763 -321 763 -321 751 c 256,26,27
EndSplineSet
Substitution2: "Single Substitution lookup 8 subtable" uni0E49.small
EndChar

StartChar: uni0E4A
Encoding: 65541 -1 75
Width: 0
GlyphClass: 4
Flags: W
AnchorPoint: "Anchor-2" 0 0 basemark 0
AnchorPoint: "Anchor-2" 0 -269 mark 0
AnchorPoint: "Anchor-0" -156 0 mark 0
LayerCount: 2
Back
SplineSet
-167 706 m 0,0,1
 -167 671 -167 671 -180 643 c 1,2,3
 -149 656 -149 656 -129 697 c 128,-1,4
 -109 738 -109 738 -96 811 c 1,5,-1
 -22 786 l 1,6,7
 -45 687 -45 687 -97 641.5 c 128,-1,8
 -149 596 -149 596 -241 596 c 1,9,10
 -229 617 -229 617 -222.5 644.5 c 128,-1,11
 -216 672 -216 672 -216 695 c 0,12,13
 -216 717 -216 717 -222 734 c 128,-1,14
 -228 751 -228 751 -248 764 c 1,15,-1
 -299 719 l 1,16,-1
 -352 765 l 1,17,18
 -390 743 -390 743 -390 698 c 1,19,20
 -375 717 -375 717 -348 717 c 0,21,22
 -325 717 -325 717 -308 702.5 c 128,-1,23
 -291 688 -291 688 -291 657 c 0,24,25
 -291 628 -291 628 -309 612 c 128,-1,26
 -327 596 -327 596 -355 596 c 0,27,28
 -392 596 -392 596 -413 622.5 c 128,-1,29
 -434 649 -434 649 -434 694 c 0,30,31
 -434 780 -434 780 -348 811 c 1,32,-1
 -299 767 l 1,33,-1
 -251 811 l 1,34,35
 -167 779 -167 779 -167 706 c 0,0,1
-328 657 m 0,36,37
 -328 669 -328 669 -335 676 c 128,-1,38
 -342 683 -342 683 -355 683 c 0,39,40
 -367 683 -367 683 -374.5 676 c 128,-1,41
 -382 669 -382 669 -382 657 c 0,42,43
 -382 644 -382 644 -374.5 637 c 128,-1,44
 -367 630 -367 630 -355 630 c 0,45,46
 -342 630 -342 630 -335 637 c 128,-1,47
 -328 644 -328 644 -328 657 c 0,36,37
EndSplineSet
Fore
SplineSet
-167 706 m 0,0,1
 -167 671 -167 671 -180 643 c 1,2,3
 -149 656 -149 656 -129 697 c 128,-1,4
 -109 738 -109 738 -96 811 c 1,5,-1
 -22 786 l 1,6,7
 -45 687 -45 687 -97 641.5 c 128,-1,8
 -149 596 -149 596 -241 596 c 1,9,10
 -229 617 -229 617 -222.5 644.5 c 128,-1,11
 -216 672 -216 672 -216 695 c 0,12,13
 -216 717 -216 717 -222 734 c 128,-1,14
 -228 751 -228 751 -248 764 c 1,15,-1
 -299 719 l 1,16,-1
 -352 765 l 1,17,18
 -390 743 -390 743 -390 698 c 1,19,20
 -375 717 -375 717 -348 717 c 0,21,22
 -325 717 -325 717 -308 702.5 c 128,-1,23
 -291 688 -291 688 -291 657 c 0,24,25
 -291 628 -291 628 -309 612 c 128,-1,26
 -327 596 -327 596 -355 596 c 0,27,28
 -392 596 -392 596 -413 622.5 c 128,-1,29
 -434 649 -434 649 -434 694 c 0,30,31
 -434 780 -434 780 -348 811 c 1,32,-1
 -299 767 l 1,33,-1
 -251 811 l 1,34,35
 -167 779 -167 779 -167 706 c 0,0,1
-328 657 m 0,36,37
 -328 669 -328 669 -335 676 c 128,-1,38
 -342 683 -342 683 -355 683 c 0,39,40
 -367 683 -367 683 -374.5 676 c 128,-1,41
 -382 669 -382 669 -382 657 c 0,42,43
 -382 644 -382 644 -374.5 637 c 128,-1,44
 -367 630 -367 630 -355 630 c 0,45,46
 -342 630 -342 630 -335 637 c 128,-1,47
 -328 644 -328 644 -328 657 c 0,36,37
EndSplineSet
Substitution2: "Single Substitution lookup 8 subtable" uni0E4A.small
EndChar

StartChar: uni0E4B
Encoding: 65542 -1 76
Width: 0
GlyphClass: 4
Flags: W
AnchorPoint: "Anchor-2" 0 0 basemark 0
AnchorPoint: "Anchor-2" 10 -269 mark 0
AnchorPoint: "Anchor-0" -88 0 mark 0
LayerCount: 2
Back
SplineSet
-224 670 m 1,0,-1
 -224 727 l 1,1,-1
 -154 727 l 1,2,-1
 -154 801 l 1,3,-1
 -97 801 l 1,4,-1
 -97 727 l 1,5,-1
 -27 727 l 1,6,-1
 -27 670 l 1,7,-1
 -97 670 l 1,8,-1
 -97 596 l 1,9,-1
 -154 596 l 1,10,-1
 -154 670 l 1,11,-1
 -224 670 l 1,0,-1
EndSplineSet
Fore
SplineSet
-224 670 m 1,0,-1
 -224 727 l 1,1,-1
 -154 727 l 1,2,-1
 -154 801 l 1,3,-1
 -97 801 l 1,4,-1
 -97 727 l 1,5,-1
 -27 727 l 1,6,-1
 -27 670 l 1,7,-1
 -97 670 l 1,8,-1
 -97 596 l 1,9,-1
 -154 596 l 1,10,-1
 -154 670 l 1,11,-1
 -224 670 l 1,0,-1
EndSplineSet
Substitution2: "Single Substitution lookup 8 subtable" uni0E4B.small
EndChar

